{
.appVersion = "3135";
.formatVersion = 3;
customParameters = (
{
name = versionString;
value = V1.00002;
}
);
date = "2023-08-03 14:51:27 +0000";
familyName = GDGuFengSong;
featurePrefixes = (
{
automatic = 1;
code = "languagesystem DFLT dflt;
";
name = Languagesystems;
}
);
features = (
{
automatic = 1;
code = "feature subs;
feature sinf;
feature sups;
feature numr;
feature dnom;
feature frac;
feature lnum;
feature pnum;
feature tnum;
feature onum;
feature c2sc;
feature smcp;
feature case;
feature fwid;
";
tag = aalt;
},
{
automatic = 1;
code = "sub zero by zeroinferior;
sub one by oneinferior;
sub two by twoinferior;
sub three by threeinferior;
sub four by fourinferior;
sub five by fiveinferior;
sub six by sixinferior;
sub seven by seveninferior;
sub eight by eightinferior;
sub nine by nineinferior;
";
tag = subs;
},
{
automatic = 1;
code = "sub zero by zeroinferior;
sub one by oneinferior;
sub two by twoinferior;
sub three by threeinferior;
sub four by fourinferior;
sub five by fiveinferior;
sub six by sixinferior;
sub seven by seveninferior;
sub eight by eightinferior;
sub nine by nineinferior;
";
tag = sinf;
},
{
automatic = 1;
code = "sub zero by zerosuperior;
sub one by onesuperior;
sub two by twosuperior;
sub three by threesuperior;
sub four by foursuperior;
sub five by fivesuperior;
sub six by sixsuperior;
sub seven by sevensuperior;
sub eight by eightsuperior;
sub nine by ninesuperior;
";
tag = sups;
},
{
automatic = 1;
code = "sub zero by zero.numr;
sub one by one.numr;
sub two by two.numr;
sub three by three.numr;
sub four by four.numr;
sub five by five.numr;
sub six by six.numr;
sub seven by seven.numr;
sub eight by eight.numr;
sub nine by nine.numr;
";
tag = numr;
},
{
automatic = 1;
code = "sub zero by zero.dnom;
sub one by one.dnom;
sub two by two.dnom;
sub three by three.dnom;
sub four by four.dnom;
sub five by five.dnom;
sub six by six.dnom;
sub seven by seven.dnom;
sub eight by eight.dnom;
sub nine by nine.dnom;
";
tag = dnom;
},
{

glyphs = (
{
glyphname = A;
lastChange = "2023-08-02 11:28:06 +0000";
layers = (
{
layerId = m01;
shapes = (
{
closed = 1;
nodes = (
(283,304,o),
(275,303,o),
(265,309,c),
(263,310,o),
(238,311,o),
(214,310,c),
(218,322,o),
(221,334,o),
(224,349,c),
(230,371,o),
(244,414,o),
(249,436,c),
(258,472,o),
(281,556,o),
(284,561,c),
(286,566,o),
(293,593,o),
(299,613,c),
(303,593,o),
(310,566,o),
(313,561,c),
(315,556,o),
(339,472,o),
(347,436,c),
(352,414,o),
(367,371,o),
(372,349,c),
(375,335,o),
(379,323,o),
(381,312,c),
(362,311,o),
(334,309,o),
(296,305,c)
);
},
{
closed = 1;
nodes = (
(544,11,o),
(536,47,o),
(535,53,c),
(526,87,o),
(494,198,o),
(437,394,c),
(426,435,o),
(401,493,o),
(401,526,c),
(401,534,o),
(342,735,o),
(342,735,c),
(328,737,l),
(328,738,o),
(318,726,o),
(312,735,c),
(311,737,o),
(304,737,o),
(299,736,c),
(292,737,o),
(285,737,o),
(284,735,c),
(280,726,o),
(270,738,o),
(269,737,c),
(255,735,l),
(255,735,o),
(197,534,o),
(195,526,c),
(195,493,o),
(171,435,o),
(159,394,c),
(102,198,o),
(70,87,o),
(61,53,c),
(60,47,o),
(52,11,o),
(52,11,c),
(50,7,o),
(59,7,o),
(68,0,c),
(139,1,l),
(147,29,o),
(159,78,o),
(199,242,c),
(205,243,o),
(211,245,o),
(213,245,c),
(217,245,o),
(235,244,o),
(238,246,c),
(239,248,o),
(268,249,o),
(279,249,c),
(286,248,o),
(301,251,o),
(309,250,c),
(353,249,o),
(380,249,o),
(396,248,c),
(437,79,o),
(450,29,o),
(457,1,c),
(528,0,l),
(537,7,o),
(547,7,o),
(544,11,c)
);
}
);
width = 600;
}
);
unicode = 65;
},
{
glyphname = B;
lastChange = "2023-08-02 11:28:41 +0000";
layers = (
{
layerId = m01;
shapes = (
{
closed = 1;
nodes = (
(184,75,o),
(177,75,o),
(173,75,c),
(170,75,o),
(157,77,o),
(154,77,c),
(150,77,o),
(154,87,o),
(154,93,c),
(152,149,o),
(150,235,o),
(148,334,c),
(148,342,o),
(148,349,o),
(148,357,c),
(148,360,o),
(160,356,o),
(167,356,c),
(174,356,o),
(181,356,o),
(187,356,c),
(325,358,o),
(465,372,o),
(467,202,c),
(469,44,o),
(323,78,o),
(188,76,c)
);
},
{
closed = 1;
nodes = (
(320,667,o),
(440,670,o),
(447,558,c),
(457,399,o),
(345,434,o),
(226,423,c),
(213,423,o),
(199,423,o),
(185,423,c),
(172,423,o),
(151,422,o),
(146,439,c),
(145,481,o),
(139,500,o),
(148,534,c),
(149,539,o),
(143,605,o),
(141,657,c),
(142,657,o),
(147,659,o),
(148,660,c)
);
},
{
closed = 1;
nodes = (
(493,432,o),
(525,442,o),
(521,562,c),
(515,729,o),
(402,728,o),
(190,725,c),
(180,725,o),
(124,723,o),
(114,723,c),
(114,723,o),
(64,725,o),
(63,725,c),
(61,723,o),
(67,672,o),
(68,655,c),
(69,646,o),
(66,582,o),
(69,573,c),
(70,567,o),
(71,473,o),
(70,433,c),
(69,408,o),
(73,358,o),
(71,333,c),
(69,315,o),
(71,71,o),
(64,13,c),
(63,9,o),
(63,6,o),
(62,4,c),
(61,0,o),
(69,2,o),
(69,2,c),
(99,2,l),
(124,2,o),
(150,2,o),
(176,2,c),
(381,5,o),
(549,-28,o),
(546,203,c),
(544,353,o),
(501,378,o),
(430,404,c)
);
}
);
width = 600;
}
);
unicode = 66;
},
{
glyphname = C;
lastChange = "2023-08-02 11:28:59 +0000";
layers = (
{
layerId = m01;
shapes = (
{
closed = 1;
nodes = (
(438,222,o),
(444,213,o),
(443,202,c),
(436,131,o),
(391,72,o),
(299,72,c),
(142,72,o),
(139,230,o),
(139,365,c),
(139,500,o),
(149,651,o),
(299,651,c),
(374,651,o),
(415,614,o),
(437,559,c),
(439,555,o),
(443,550,o),
(443,545,c),
(443,540,o),
(446,533,o),
(447,535,c),
(453,534,o),
(457,534,o),
(461,535,c),
(515,535,l),
(519,534,o),
(524,534,o),
(525,535,c),
(525,535,o),
(529,540,o),
(528,543,c),
(525,560,o),
(521,576,o),
(516,591,c),
(487,676,o),
(426,728,o),
(299,728,c),
(78,728,o),
(58,565,o),
(58,364,c),
(58,163,o),
(64,0,o),
(299,0,c),
(444,0,o),
(502,75,o),
(526,182,c),
(528,194,o),
(530,205,o),
(532,217,c),
(532,220,o),
(522,225,o),
(522,225,c),
(508,225,l),
(508,225,o),
(479,228,o),
(475,228,c),
(471,228,o),
(462,225,o),
(462,227,c),
(458,227,o),
(461,223,o),
(454,228,c),
(448,234,o),
(446,228,o),
(440,226,c)
);
}
);
width = 600;
}
);
unicode = 67;
},
{
glyphname = D;
lastChange = "2023-08-02 11:29:30 +0000";
layers = (
{
layerId = m01;
shapes = (
{
closed = 1;
nodes = (
(205,65,o),
(150,75,o),
(150,121,c),
(152,338,o),
(140,592,o),
(153,649,c),
(154,655,o),
(308,646,o),
(308,646,c),
(450,646,o),
(469,511,o),
(469,377,c),
(469,244,o),
(456,73,o),
(308,73,c)
);
},
{
closed = 1;
nodes = (
(308,722,l),
(264,725,o),
(175,721,o),
(136,722,c),
(59,722,l),
(69,701,o),
(72,416,o),
(74,396,c),
(76,371,o),
(72,322,o),
(73,298,c),
(75,259,o),
(76,166,o),
(74,160,c),
(72,150,o),
(75,88,o),
(75,79,c),
(74,63,o),
(67,-20,o),
(69,-22,c),
(70,-23,o),
(87,-22,o),
(95,-23,c),
(99,-23,o),
(116,-19,o),
(118,-14,c),
(120,-2,o),
(131,1,o),
(131,2,c),
(308,2,l),
(528,2,o),
(546,178,o),
(546,376,c),
(546,575,o),
(520,722,o),
(308,722,c)
);
}
);
width = 600;
}
);
unicode = 68;
},
{
glyphname = E;
lastChange = "2023-08-02 11:30:06 +0000";
layers = (
{
layerId = m01;
shapes = (
{
closed = 1;
nodes = (
(521,76,l),
(518,75,o),
(513,69,o),
(441,69,c),
(395,69,o),
(376,71,o),
(340,71,c),
(303,72,o),
(186,68,o),
(147,67,c),
(141,67,o),
(133,74,o),
(133,77,c),
(132,83,o),
(131,87,o),
(131,90,c),
(131,99,o),
(134,163,o),
(132,172,c),
(130,177,o),
(130,305,o),
(132,345,c),
(132,348,o),
(132,352,o),
(132,356,c),
(157,356,o),
(183,357,o),
(193,357,c),
(201,357,o),
(265,355,o),
(274,357,c),
(281,358,o),
(374,358,o),
(413,356,c),
(438,355,o),
(450,358,o),
(476,356,c),
(496,355,o),
(489,425,o),
(468,419,c),
(417,403,o),
(350,416,o),
(318,419,c),
(283,421,o),
(175,417,o),
(131,415,c),
(131,426,o),
(131,436,o),
(132,444,c),
(133,458,o),
(131,587,o),
(134,669,c),
(146,670,o),
(159,671,o),
(164,671,c),
(169,672,o),
(204,669,o),
(209,671,c),
(212,672,o),
(264,672,o),
(286,670,c),
(300,669,o),
(327,672,o),
(340,670,c),
(351,669,o),
(509,668,o),
(521,658,c),
(521,722,l),
(518,731,o),
(520,740,o),
(517,738,c),
(517,738,o),
(514,737,o),
(510,735,c),
(509,734,o),
(407,733,o),
(287,731,c),
(261,731,o),
(249,726,o),
(231,733,c),
(227,735,o),
(166,732,o),
(139,730,c),
(73,740,l),
(63,736,o),
(53,739,o),
(55,733,c),
(55,733,o),
(57,727,o),
(59,721,c),
(59,719,o),
(53,566,o),
(55,348,c),
(55,301,o),
(57,34,o),
(57,34,c),
(57,34,o),
(53,-1,o),
(64,-5,c),
(70,-7,o),
(111,-7,o),
(115,-7,c),
(122,-6,o),
(205,9,o),
(215,10,c),
(223,10,o),
(288,7,o),
(297,9,c),
(303,11,o),
(396,10,o),
(435,9,c),
(460,8,o),
(473,11,o),
(498,9,c),
(518,8,o),
(525,11,o),
(548,3,c),
(548,61,l),
(543,69,o),
(542,84,o),
(537,83,c)
);
}
);
width = 600;
}
);
unicode = 69;
},
{
glyphname = F;
lastChange = "2023-08-02 11:30:23 +0000";
layers = (
{
layerId = m01;
shapes = (
{
closed = 1;
nodes = (
(469,722,o),
(456,725,o),
(432,724,c),
(393,722,o),
(300,722,o),
(294,723,c),
(285,725,o),
(222,722,o),
(214,723,c),
(204,723,o),
(171,724,o),
(144,724,c),
(144,724,o),
(121,739,o),
(115,739,c),
(111,740,o),
(71,740,o),
(65,738,c),
(54,733,o),
(59,736,o),
(43,729,c),
(42,722,o),
(57,698,o),
(57,698,c),
(57,698,o),
(59,531,o),
(61,523,c),
(70,489,o),
(64,469,o),
(63,423,c),
(62,205,o),
(60,22,o),
(59,19,c),
(57,13,o),
(55,7,o),
(55,7,c),
(54,2,o),
(63,4,o),
(74,0,c),
(144,0,l),
(135,22,o),
(134,307,o),
(132,327,c),
(131,335,o),
(131,345,o),
(131,356,c),
(175,354,o),
(280,350,o),
(315,352,c),
(347,354,o),
(414,368,o),
(464,352,c),
(484,346,o),
(492,415,o),
(471,413,c),
(447,412,o),
(434,415,o),
(410,414,c),
(371,412,o),
(278,412,o),
(272,413,c),
(263,415,o),
(200,412,o),
(192,413,c),
(183,413,o),
(157,413,o),
(132,414,c),
(132,418,o),
(132,421,o),
(132,425,c),
(130,464,o),
(130,557,o),
(131,562,c),
(134,571,o),
(130,634,o),
(131,643,c),
(131,646,o),
(132,651,o),
(133,657,c),
(133,660,o),
(140,667,o),
(147,667,c),
(186,665,o),
(300,662,o),
(337,662,c),
(373,663,o),
(391,664,o),
(437,664,c),
(509,664,o),
(514,658,o),
(517,658,c),
(533,651,l),
(538,649,o),
(539,664,o),
(543,673,c),
(543,729,l),
(521,722,o),
(514,725,o),
(493,724,c)
);
}
);
width = 600;
}
);
unicode = 70;
},
{
glyphname = G;
lastChange = "2023-08-02 11:30:49 +0000";
layers = (
{
layerId = m01;
shapes = (
{
closed = 1;
nodes = (
(509,377,o),
(469,372,o),
(460,372,c),
(460,372,o),
(228,375,o),
(220,380,c),
(211,385,o),
(210,358,o),
(210,358,c),
(210,314,l),
(215,306,o),
(215,293,o),
(221,294,c),
(248,298,l),
(251,299,o),
(242,302,o),
(281,301,c),
(313,301,o),
(367,298,o),
(422,299,c),
(425,299,o),
(437,295,o),
(437,292,c),
(438,283,o),
(440,282,o),
(443,279,c),
(449,273,o),
(443,224,o),
(442,199,c),
(422,127,o),
(381,73,o),
(297,73,c),
(141,73,o),
(138,230,o),
(138,364,c),
(138,498,o),
(148,649,o),
(297,649,c),
(397,649,o),
(436,583,o),
(451,497,c),
(532,497,l),
(517,634,o),
(465,725,o),
(297,725,c),
(78,725,o),
(58,563,o),
(58,363,c),
(58,164,o),
(64,2,o),
(297,2,c),
(364,2,o),
(409,17,o),
(441,45,c),
(441,24,o),
(450,21,o),
(441,2,c),
(511,2,l),
(526,3,o),
(522,-9,o),
(522,59,c),
(522,103,o),
(515,122,o),
(524,155,c),
(526,162,o),
(530,342,o),
(530,342,c),
(530,342,o),
(532,357,o),
(532,357,c),
(531,357,o),
(531,368,o),
(527,369,c)
);
}
);
width = 600;
}
);
unicode = 71;
},
{
glyphname = H;
lastChange = "2023-08-02 11:31:29 +0000";
layers = (
{
layerId = m01;
shapes = (
{
closed = 1;
nodes = (
(526,158,o),
(526,252,o),
(528,292,c),
(530,316,o),
(526,367,o),
(528,391,c),
(531,412,o),
(532,700,o),
(543,723,c),
(471,721,l),
(460,718,o),
(451,720,o),
(452,715,c),
(452,715,o),
(454,708,o),
(456,702,c),
(457,700,o),
(458,580,o),
(459,420,c),
(424,419,o),
(363,416,o),
(272,411,c),
(245,408,o),
(231,407,o),
(211,413,c),
(209,413,o),
(171,414,o),
(134,413,c),
(136,577,o),
(138,700,o),
(138,702,c),
(140,708,o),
(142,715,o),
(142,715,c),
(144,720,o),
(134,718,o),
(123,721,c),
(52,723,l),
(61,702,o),
(62,468,o),
(64,405,c),
(60,404,o),
(58,402,o),
(58,400,c),
(54,391,l),
(54,391,o),
(60,382,o),
(54,380,c),
(51,379,o),
(52,360,o),
(52,358,c),
(53,352,o),
(53,342,o),
(53,342,c),
(54,342,o),
(59,342,o),
(65,343,c),
(64,323,o),
(64,304,o),
(64,292,c),
(66,252,o),
(66,158,o),
(65,152,c),
(63,143,o),
(66,80,o),
(65,71,c),
(64,54,o),
(60,-30,o),
(61,-32,c),
(62,-33,o),
(77,-32,o),
(84,-33,c),
(88,-33,o),
(105,-19,o),
(106,-13,c),
(108,-2,o),
(118,-8,o),
(119,-8,c),
(132,-1,l),
(132,-1,o),
(139,184,o),
(136,194,c),
(128,227,o),
(133,247,o),
(134,293,c),
(134,312,o),
(134,329,o),
(134,348,c),
(144,348,o),
(154,348,o),
(156,349,c),
(159,350,o),
(212,352,o),
(234,352,c),
(247,352,o),
(275,355,o),
(289,355,c),
(377,355,o),
(428,356,o),
(459,356,c),
(460,335,o),
(460,314,o),
(460,293,c),
(460,247,o),
(467,227,o),
(458,194,c),
(456,184,o),
(463,-1,o),
(463,-1,c),
(475,-8,l),
(475,-8,o),
(486,-2,o),
(488,-13,c),
(489,-19,o),
(504,-33,o),
(509,-33,c),
(515,-32,o),
(532,-33,o),
(532,-32,c),
(534,-30,o),
(528,54,o),
(527,71,c),
(527,80,o),
(531,143,o),
(528,152,c)
);
}
);
width = 600;
}
);
unicode = 72;
},
{
glyphname = I;
lastChange = "2023-08-02 11:32:01 +0000";
layers = (
{
layerId = m01;
shapes = (
{
closed = 1;
nodes = (
(330,81,o),
(335,145,o),
(332,154,c),
(330,160,o),
(330,255,o),
(332,295,c),
(333,320,o),
(330,370,o),
(332,395,c),
(335,415,o),
(336,706,o),
(347,729,c),
(267,728,l),
(255,724,o),
(244,727,o),
(246,721,c),
(246,721,o),
(248,715,o),
(251,709,c),
(252,707,o),
(254,519,o),
(255,297,c),
(255,250,o),
(263,229,o),
(253,194,c),
(251,186,o),
(257,0,o),
(257,0,c),
(273,-7,l),
(273,-8,o),
(284,-2,o),
(287,-13,c),
(288,-19,o),
(306,-33,o),
(311,-33,c),
(318,-32,o),
(336,-33,o),
(336,-32,c),
(338,-30,o),
(332,55,o),
(331,72,c)
);
}
);
width = 600;
}
);
unicode = 73;
},
{
glyphname = J;
lastChange = "2023-08-02 11:32:25 +0000";
layers = (
{
layerId = m01;
shapes = (
{
closed = 1;
nodes = (
(328,101,o),
(348,131,o),
(350,140,c),
(352,145,o),
(358,253,o),
(356,292,c),
(355,316,o),
(359,369,o),
(356,393,c),
(355,414,o),
(365,697,o),
(355,718,c),
(425,718,l),
(436,714,o),
(445,716,o),
(444,711,c),
(444,711,o),
(442,705,o),
(440,699,c),
(439,697,o),
(437,514,o),
(436,297,c),
(435,252,o),
(434,213,o),
(434,178,c),
(428,-51,o),
(198,8,o),
(198,8,c),
(121,45,l),
(120,45,o),
(130,84,o),
(133,94,c),
(134,99,o),
(134,107,o),
(130,107,c),
(123,108,o),
(122,132,o),
(121,137,c),
(114,157,o),
(247,55,o),
(321,96,c)
);
}
);
width = 600;
}
);
unicode = 74;
},
{
glyphname = K;
lastChange = "2023-08-02 11:32:50 +0000";
layers = (
{
layerId = m01;
shapes = (
{
closed = 1;
nodes = (
(520,42,o),
(518,65,o),
(434,181,c),
(425,193,o),
(393,246,o),
(383,256,c),
(367,273,o),
(337,321,o),
(335,324,c),
(333,329,o),
(311,360,o),
(308,364,c),
(304,370,o),
(289,388,o),
(279,401,c),
(277,404,o),
(263,435,o),
(267,438,c),
(282,452,o),
(302,479,o),
(315,491,c),
(441,609,o),
(468,653,o),
(492,669,c),
(499,674,o),
(534,708,o),
(545,724,c),
(547,734,o),
(441,733,o),
(437,734,c),
(431,735,o),
(439,726,o),
(438,720,c),
(430,712,o),
(420,706,o),
(405,690,c),
(387,670,o),
(359,640,o),
(305,582,c),
(288,565,o),
(277,544,o),
(254,522,c),
(241,508,o),
(229,499,o),
(215,485,c),
(194,463,o),
(175,451,o),
(171,449,c),
(166,445,o),
(139,410,o),
(130,421,c),
(132,611,o),
(133,713,o),
(134,715,c),
(136,721,o),
(138,727,o),
(138,727,c),
(140,732,o),
(130,730,o),
(119,734,c),
(47,734,l),
(57,712,o),
(58,421,o),
(60,401,c),
(62,376,o),
(59,326,o),
(60,301,c),
(62,261,o),
(62,166,o),
(60,160,c),
(58,151,o),
(62,87,o),
(61,78,c),
(60,61,o),
(55,-24,o),
(57,-26,c),
(57,-27,o),
(73,-26,o),
(80,-27,c),
(84,-27,o),
(100,-13,o),
(101,-7,c),
(104,4,o),
(114,-2,o),
(114,-1,c),
(128,6,l),
(128,6,o),
(134,192,o),
(132,200,c),
(126,226,o),
(137,287,o),
(138,314,c),
(140,325,o),
(170,352,o),
(202,375,c),
(204,377,o),
(212,375,o),
(215,372,c),
(236,346,o),
(274,292,o),
(277,290,c),
(295,278,o),
(313,225,o),
(331,204,c),
(413,105,o),
(429,41,o),
(444,24,c),
(446,21,o),
(455,7,o),
(455,7,c),
(456,3,o),
(473,2,o),
(480,5,c),
(516,5,l),
(541,0,l),
(541,0,o),
(548,6,o),
(544,12,c)
);
}
);
width = 600;
}
);
unicode = 75;
},
{
glyphname = L;
lastChange = "2023-08-02 11:33:14 +0000";
layers = (
{
layerId = m01;
shapes = (
{
closed = 1;
nodes = (
(523,74,l),
(520,74,o),
(360,70,o),
(320,70,c),
(286,70,o),
(196,68,o),
(139,67,c),
(136,67,o),
(129,74,o),
(129,77,c),
(128,86,o),
(128,94,o),
(127,98,c),
(127,107,o),
(130,169,o),
(128,178,c),
(126,184,o),
(127,277,o),
(129,315,c),
(130,339,o),
(126,388,o),
(128,412,c),
(130,433,o),
(132,715,o),
(141,737,c),
(69,737,l),
(58,733,o),
(48,735,o),
(50,730,c),
(50,730,o),
(52,724,o),
(54,718,c),
(54,716,o),
(56,533,o),
(58,317,c),
(58,271,o),
(64,252,o),
(55,218,c),
(53,210,o),
(60,28,o),
(60,28,c),
(60,28,o),
(58,13,o),
(58,13,c),
(59,12,o),
(59,0,o),
(62,0,c),
(69,1,o),
(119,0,o),
(128,1,c),
(129,1,o),
(383,14,o),
(427,12,c),
(452,12,o),
(517,14,o),
(546,9,c),
(548,8,o),
(553,14,o),
(553,14,c),
(553,60,l),
(548,68,o),
(547,82,o),
(541,81,c)
);
}
);
width = 600;
}
);
unicode = 76;
},
{
glyphname = M;
lastChange = "2023-08-02 11:34:53 +0000";
layers = (
{
layerId = m01;
shapes = (
{
closed = 1;
nodes = (
(524,344,o),
(527,392,o),
(526,416,c),
(524,454,o),
(524,545,o),
(525,551,c),
(528,560,o),
(524,621,o),
(525,630,c),
(525,637,o),
(526,657,o),
(527,676,c),
(528,678,o),
(538,720,o),
(538,720,c),
(540,723,o),
(535,724,o),
(529,726,c),
(529,728,o),
(514,730,o),
(514,730,c),
(511,730,o),
(506,730,o),
(505,730,c),
(454,729,l),
(445,699,o),
(430,640,o),
(371,408,c),
(366,387,o),
(352,347,o),
(347,326,c),
(339,293,o),
(316,215,o),
(313,211,c),
(310,206,o),
(304,181,o),
(299,163,c),
(295,181,o),
(288,206,o),
(285,211,c),
(282,215,o),
(260,293,o),
(252,326,c),
(247,347,o),
(233,387,o),
(227,408,c),
(169,640,o),
(154,699,o),
(145,729,c),
(93,730,l),
(92,730,o),
(87,730,o),
(85,730,c),
(85,730,o),
(70,730,o),
(70,730,c),
(69,729,o),
(59,723,o),
(61,720,c),
(61,720,o),
(68,686,o),
(70,681,c),
(70,680,o),
(71,678,o),
(71,676,c),
(72,657,o),
(73,637,o),
(74,630,c),
(74,621,o),
(71,560,o),
(73,551,c),
(75,545,o),
(74,454,o),
(73,416,c),
(71,392,o),
(75,344,o),
(73,320,c),
(71,300,o),
(70,21,o),
(60,0,c),
(129,0,l),
(140,4,o),
(149,2,o),
(148,7,c),
(148,7,o),
(146,13,o),
(144,19,c),
(143,21,o),
(141,201,o),
(140,414,c),
(140,428,o),
(139,440,o),
(138,450,c),
(146,424,o),
(155,396,o),
(164,365,c),
(176,327,o),
(199,273,o),
(200,243,c),
(200,235,o),
(257,50,o),
(257,49,c),
(271,47,l),
(271,47,o),
(281,58,o),
(286,49,c),
(287,47,o),
(293,48,o),
(299,49,c),
(305,48,o),
(311,47,o),
(313,49,c),
(317,58,o),
(327,47,o),
(328,47,c),
(341,49,l),
(341,50,o),
(398,235,o),
(398,243,c),
(399,273,o),
(423,327,o),
(435,365,c),
(444,396,o),
(452,424,o),
(460,450,c),
(460,440,o),
(459,428,o),
(459,414,c),
(457,201,o),
(455,21,o),
(455,19,c),
(453,13,o),
(451,7,o),
(451,7,c),
(449,2,o),
(459,4,o),
(469,0,c),
(538,0,l),
(529,21,o),
(528,300,o),
(526,320,c)
);
}
);
width = 600;
}
);
unicode = 77;
},
{
glyphname = N;
lastChange = "2023-08-02 11:35:27 +0000";
layers = (
{
layerId = m01;
shapes = (
{
closed = 1;
nodes = (
(540,7,o),
(538,13,o),
(536,19,c),
(535,21,o),
(533,211,o),
(531,433,c),
(531,480,o),
(525,500,o),
(534,536,c),
(536,544,o),
(529,731,o),
(529,731,c),
(516,738,l),
(516,738,o),
(505,732,o),
(503,744,c),
(501,750,o),
(486,763,o),
(481,762,c),
(475,762,o),
(459,762,o),
(458,762,c),
(457,759,o),
(462,675,o),
(463,658,c),
(463,649,o),
(460,585,o),
(462,575,c),
(464,569,o),
(464,474,o),
(462,435,c),
(460,410,o),
(464,359,o),
(462,334,c),
(461,326,o),
(460,269,o),
(459,205,c),
(459,200,o),
(451,198,o),
(448,204,c),
(399,273,o),
(347,351,o),
(340,360,c),
(324,381,o),
(301,424,o),
(287,445,c),
(262,477,o),
(210,556,o),
(208,562,c),
(205,571,o),
(167,624,o),
(163,631,c),
(158,639,o),
(145,663,o),
(132,685,c),
(133,697,o),
(133,704,o),
(133,705,c),
(135,710,o),
(137,716,o),
(137,716,c),
(139,722,o),
(128,719,o),
(117,724,c),
(46,724,l),
(56,702,o),
(57,411,o),
(59,390,c),
(61,364,o),
(58,314,o),
(59,289,c),
(61,249,o),
(61,154,o),
(59,148,c),
(57,139,o),
(61,75,o),
(60,66,c),
(59,49,o),
(54,-36,o),
(56,-38,c),
(56,-39,o),
(72,-38,o),
(79,-39,c),
(83,-39,o),
(99,-25,o),
(99,-18,c),
(101,-7,o),
(112,-13,o),
(112,-12,c),
(126,-5,l),
(126,-5,o),
(133,181,o),
(131,189,c),
(122,225,o),
(128,244,o),
(129,291,c),
(129,379,o),
(130,462,o),
(130,530,c),
(131,538,o),
(136,544,o),
(139,539,c),
(155,512,o),
(167,491,o),
(170,489,c),
(197,465,o),
(203,444,o),
(228,405,c),
(348,218,o),
(449,59,o),
(450,57,c),
(452,50,o),
(453,44,o),
(453,44,c),
(453,44,o),
(454,43,o),
(454,43,c),
(452,20,o),
(484,1,o),
(484,1,c),
(521,1,l),
(531,4,o),
(542,1,o),
(540,7,c)
);
}
);
width = 600;
}
);
unicode = 78;
},
{
glyphname = O;
lastChange = "2023-08-02 11:35:47 +0000";
layers = (
{
layerId = m01;
shapes = (
{
closed = 1;
nodes = (
(139,71,o),
(136,230,o),
(136,364,c),
(136,499,o),
(146,651,o),
(296,651,c),
(440,651,o),
(459,514,o),
(459,379,c),
(459,245,o),
(445,71,o),
(296,71,c)
);
},
{
closed = 1;
nodes = (
(75,728,o),
(55,565,o),
(55,364,c),
(55,163,o),
(62,0,o),
(296,0,c),
(519,0,o),
(537,177,o),
(537,378,c),
(537,579,o),
(510,728,o),
(296,728,c)
);
}
);
width = 600;
}
);
unicode = 79;
},
{
glyphname = P;
lastChange = "2023-08-02 11:36:11 +0000";
layers = (
{
layerId = m01;
shapes = (
{
closed = 1;
nodes = (
(178,359,o),
(171,359,o),
(163,360,c),
(157,360,o),
(144,367,o),
(145,371,c),
(145,379,o),
(145,386,o),
(145,393,c),
(146,491,o),
(146,577,o),
(147,633,c),
(147,639,o),
(144,648,o),
(147,648,c),
(151,648,o),
(162,650,o),
(165,650,c),
(170,650,o),
(178,650,o),
(182,650,c),
(315,649,o),
(459,658,o),
(459,528,c),
(459,359,o),
(321,359,o),
(184,359,c)
);
},
{
closed = 1;
nodes = (
(142,723,o),
(117,723,o),
(93,722,c),
(63,723,l),
(63,723,o),
(55,724,o),
(56,720,c),
(56,718,o),
(57,715,o),
(57,712,c),
(65,653,o),
(66,412,o),
(68,393,c),
(71,368,o),
(67,319,o),
(68,294,c),
(70,255,o),
(70,162,o),
(69,155,c),
(66,146,o),
(70,84,o),
(69,74,c),
(68,57,o),
(63,-26,o),
(65,-28,c),
(65,-29,o),
(82,-28,o),
(89,-29,c),
(95,-29,o),
(112,-15,o),
(113,-10,c),
(116,1,o),
(127,-5,o),
(127,-4,c),
(142,3,l),
(142,3,o),
(149,188,o),
(147,195,c),
(138,228,o),
(143,248,o),
(144,289,c),
(156,289,o),
(170,289,o),
(183,289,c),
(386,289,o),
(539,303,o),
(539,528,c),
(539,726,o),
(372,723,o),
(169,723,c)
);
}
);
width = 600;
}
);
unicode = 80;
},
{
glyphname = Q;
lastChange = "2023-08-02 11:36:40 +0000";
layers = (
{
layerId = m01;
shapes = (
{
closed = 1;
nodes = (
(134,494,o),
(143,646,o),
(290,646,c),
(432,646,o),
(451,509,o),
(451,380,c),
(451,246,o),
(438,81,o),
(290,81,c),
(139,81,o),
(134,233,o),
(134,366,c)
);
},
{
closed = 1;
nodes = (
(515,-52,l),
(511,-52,o),
(506,-57,o),
(474,-34,c),
(455,-15,o),
(446,-11,o),
(432,3,c),
(423,8,o),
(415,17,o),
(400,31,c),
(515,81,o),
(524,219,o),
(524,380,c),
(524,573,o),
(501,720,o),
(290,720,c),
(75,720,o),
(56,559,o),
(56,366,c),
(56,169,o),
(60,8,o),
(290,8,c),
(294,8,o),
(300,8,o),
(304,8,c),
(317,3,o),
(332,-6,o),
(332,-11,c),
(336,-15,o),
(363,-38,o),
(369,-38,c),
(373,-38,o),
(409,-70,o),
(428,-84,c),
(438,-93,o),
(446,-98,o),
(455,-107,c),
(461,-116,o),
(469,-116,o),
(469,-130,c),
(515,-75,l),
(520,-66,o),
(529,-52,o),
(524,-52,c)
);
}
);
width = 600;
}
);
unicode = 81;
},
{
glyphname = R;
lastChange = "2023-08-02 11:37:58 +0000";
layers = (
{
layerId = m01;
shapes = (
{
closed = 1;
nodes = (
(163,402,o),
(150,410,o),
(150,414,c),
(150,421,o),
(150,428,o),
(151,435,c),
(151,533,o),
(152,591,o),
(153,647,c),
(153,653,o),
(149,657,o),
(153,657,c),
(157,657,o),
(168,659,o),
(171,659,c),
(176,659,o),
(183,659,o),
(187,659,c),
(320,658,o),
(464,672,o),
(464,542,c),
(464,375,o),
(325,402,o),
(189,402,c),
(183,402,o),
(176,402,o),
(169,402,c)
);
},
{
closed = 1;
nodes = (
(533,18,l),
(532,20,o),
(524,23,o),
(524,75,c),
(524,109,o),
(524,122,o),
(527,148,c),
(530,177,o),
(524,288,o),
(520,295,c),
(522,299,o),
(509,317,o),
(505,322,c),
(502,325,o),
(481,347,o),
(473,351,cs),
(469,353,o),
(464,357,o),
(464,357,c),
(512,391,o),
(542,446,o),
(542,542,c),
(542,740,o),
(383,729,o),
(180,729,c),
(154,729,o),
(155,738,o),
(130,737,c),
(74,739,l),
(74,739,o),
(52,733,o),
(53,729,c),
(54,726,o),
(64,707,o),
(65,704,c),
(73,646,o),
(73,427,o),
(74,408,c),
(77,384,o),
(73,335,o),
(74,310,c),
(76,271,o),
(76,177,o),
(75,172,c),
(72,163,o),
(76,100,o),
(75,91,c),
(74,74,o),
(69,-9,o),
(71,-11,c),
(71,-12,o),
(88,-11,o),
(95,-12,c),
(100,-12,o),
(118,2,o),
(119,7,c),
(121,18,o),
(133,13,o),
(133,13,c),
(148,20,l),
(148,20,o),
(155,204,o),
(152,211,c),
(143,244,o),
(149,264,o),
(150,305,c),
(150,329,o),
(160,323,o),
(173,323,c),
(250,323,o),
(332,333,o),
(392,322,c),
(416,311,o),
(453,268,o),
(444,230,c),
(440,215,o),
(439,160,o),
(441,140,c),
(442,136,o),
(445,108,o),
(443,79,c),
(442,62,o),
(444,46,o),
(441,29,c),
(439,14,o),
(446,2,o),
(452,-1,c),
(512,-1,l),
(524,2,o),
(545,-5,o),
(545,3,c)
);
}
);
width = 600;
}
);
unicode = 82;
},
{
glyphname = S;
lastChange = "2023-08-02 11:38:30 +0000";
layers = (
{
layerId = m01;
shapes = (
{
closed = 1;
nodes = (
(400,378,o),
(355,395,o),
(307,410,c),
(137,446,o),
(139,487,o),
(136,533,c),
(129,617,o),
(188,652,o),
(289,652,c),
(380,652,o),
(420,618,o),
(427,547,c),
(428,536,o),
(422,528,o),
(423,524,c),
(429,521,o),
(431,516,o),
(438,521,c),
(444,526,o),
(441,523,o),
(445,522,c),
(446,524,o),
(454,522,o),
(458,522,c),
(462,522,o),
(490,524,o),
(490,524,c),
(505,524,l),
(505,524,o),
(515,529,o),
(514,532,c),
(513,544,o),
(511,556,o),
(508,567,c),
(485,673,o),
(432,717,o),
(289,723,c),
(120,731,o),
(57,652,o),
(55,555,c),
(54,457,o),
(111,406,o),
(141,396,c),
(185,370,o),
(233,350,o),
(284,341,c),
(418,301,o),
(445,267,o),
(449,221,c),
(455,137,o),
(399,72,o),
(298,72,c),
(207,72,o),
(162,130,o),
(155,201,c),
(154,212,o),
(160,220,o),
(158,224,c),
(152,227,o),
(151,232,o),
(144,227,c),
(137,221,o),
(140,225,o),
(136,226,c),
(136,224,o),
(128,226,o),
(124,226,c),
(120,226,o),
(91,223,o),
(91,223,c),
(77,223,l),
(77,223,o),
(67,218,o),
(67,216,c),
(69,204,o),
(71,192,o),
(74,181,c),
(96,75,o),
(154,8,o),
(298,1,c),
(466,-7,o),
(514,84,o),
(527,181,c),
(539,278,o),
(473,348,o),
(443,358,c)
);
}
);
width = 600;
}
);
unicode = 83;
},
{
glyphname = T;
lastChange = "2023-08-02 11:38:51 +0000";
layers = (
{
layerId = m01;
shapes = (
{
closed = 1;
nodes = (
(547,728,o),
(535,730,o),
(533,730,c),
(522,731,o),
(484,731,o),
(417,730,c),
(403,729,o),
(382,724,o),
(372,730,c),
(370,731,o),
(324,730,o),
(307,730,c),
(288,730,o),
(239,731,o),
(237,730,c),
(225,724,o),
(203,729,o),
(188,730,c),
(115,731,o),
(74,731,o),
(62,730,c),
(60,730,o),
(47,728,o),
(47,728,c),
(45,730,o),
(46,723,o),
(44,715,c),
(52,665,l),
(64,665,o),
(87,667,o),
(179,674,c),
(187,675,o),
(203,673,o),
(211,674,c),
(224,675,o),
(255,676,o),
(257,675,c),
(258,674,o),
(261,666,o),
(261,663,c),
(262,641,o),
(264,619,o),
(264,611,c),
(265,603,o),
(261,543,o),
(264,534,c),
(265,529,o),
(265,440,o),
(263,403,c),
(262,380,o),
(266,333,o),
(263,310,c),
(261,291,o),
(260,20,o),
(250,-1,c),
(323,-1,l),
(334,3,o),
(344,1,o),
(342,6,c),
(342,6,o),
(340,12,o),
(338,17,c),
(337,20,o),
(336,195,o),
(334,401,c),
(334,445,o),
(327,464,o),
(336,497,c),
(338,503,o),
(334,635,o),
(332,670,c),
(332,672,o),
(334,675,o),
(336,675,c),
(342,674,o),
(351,674,o),
(353,675,c),
(355,676,o),
(383,675,o),
(395,674,c),
(403,673,o),
(418,675,o),
(425,674,c),
(510,667,o),
(531,665,o),
(542,665,c),
(549,715,l),
(548,723,o),
(549,730,o),
(547,728,c)
);
}
);
width = 600;
}
);
unicode = 84;
},
{
glyphname = U;
lastChange = "2023-08-02 11:39:25 +0000";
layers = (
{
layerId = m01;
shapes = (
{
closed = 1;
nodes = (
(472,726,l),
(460,722,o),
(449,725,o),
(451,719,c),
(451,719,o),
(453,713,o),
(456,707,c),
(456,705,o),
(458,565,o),
(460,386,c),
(460,386,o),
(460,381,o),
(460,378,c),
(460,244,o),
(446,71,o),
(297,71,c),
(141,71,o),
(138,229,o),
(138,363,c),
(138,371,o),
(142,548,o),
(143,605,c),
(144,667,o),
(144,706,o),
(145,707,c),
(147,713,o),
(149,719,o),
(149,719,c),
(151,725,o),
(140,722,o),
(127,726,c),
(43,726,l),
(54,705,o),
(57,376,o),
(57,363,c),
(57,162,o),
(64,0,o),
(297,0,c),
(520,0,o),
(537,176,o),
(537,376,c),
(537,380,o),
(542,705,o),
(553,726,c)
);
}
);
width = 600;
}
);
unicode = 85;
},
{
glyphname = V;
lastChange = "2023-08-02 11:39:41 +0000";
layers = (
{
layerId = m01;
shapes = (
{
closed = 1;
nodes = (
(529,711,o),
(522,676,o),
(521,670,c),
(512,637,o),
(481,528,o),
(426,337,c),
(414,296,o),
(390,240,o),
(389,207,c),
(389,199,o),
(332,3,o),
(331,3,c),
(318,0,l),
(317,0,o),
(307,12,o),
(303,3,c),
(301,0,o),
(295,1,o),
(289,2,c),
(283,1,o),
(277,0,o),
(276,3,c),
(271,12,o),
(261,0,o),
(260,0,c),
(247,3,l),
(247,3,o),
(189,199,o),
(189,207,c),
(188,240,o),
(164,296,o),
(153,337,c),
(97,528,o),
(66,637,o),
(58,670,c),
(56,676,o),
(49,711,o),
(49,711,c),
(46,715,o),
(55,716,o),
(64,722,c),
(133,720,l),
(142,689,o),
(157,627,o),
(216,381,c),
(222,359,o),
(236,317,o),
(241,295,c),
(249,260,o),
(272,178,o),
(275,173,c),
(278,168,o),
(284,142,o),
(289,122,c),
(294,142,o),
(300,168,o),
(303,173,c),
(306,178,o),
(329,260,o),
(337,295,c),
(342,317,o),
(356,359,o),
(362,381,c),
(421,627,o),
(436,689,o),
(445,720,c),
(514,722,l),
(523,716,o),
(532,715,o),
(529,711,c)
);
}
);
width = 600;
}
);
unicode = 86;
},
{
glyphname = W;
lastChange = "2023-08-02 14:00:45 +0000";
layers = (
{
layerId = m01;
shapes = (
{
closed = 1;
nodes = (
(523,387,o),
(526,339,o),
(525,315,c),
(523,277,o),
(523,185,o),
(524,180,c),
(527,171,o),
(523,109,o),
(524,100,c),
(524,93,o),
(525,74,o),
(526,54,c),
(527,52,o),
(527,51,o),
(528,49,c),
(529,44,o),
(537,10,o),
(537,10,c),
(539,7,o),
(525,0,o),
(522,0,c),
(522,0,o),
(513,0,o),
(513,0,c),
(510,0,o),
(508,0,o),
(506,0,c),
(506,0,o),
(452,2,o),
(452,2,c),
(444,32,o),
(314,443,o),
(312,447,c),
(309,452,o),
(286,452,o),
(284,447,c),
(281,443,o),
(152,32,o),
(143,2,c),
(91,0,l),
(90,0,o),
(85,0,o),
(83,0,c),
(74,0,l),
(74,0,o),
(67,0,o),
(67,1,c),
(67,1,o),
(57,7,o),
(59,10,c),
(59,10,o),
(66,44,o),
(68,49,c),
(68,51,o),
(68,52,o),
(69,54,c),
(70,74,o),
(71,93,o),
(71,100,c),
(72,109,o),
(69,171,o),
(71,180,c),
(72,185,o),
(72,277,o),
(70,315,c),
(69,339,o),
(73,387,o),
(71,411,c),
(69,431,o),
(67,711,o),
(58,732,c),
(127,732,l),
(138,728,o),
(147,730,o),
(145,725,c),
(145,725,o),
(144,719,o),
(142,713,c),
(141,711,o),
(139,530,o),
(138,317,c),
(138,303,o),
(137,291,o),
(136,281,c),
(144,307,o),
(255,608,o),
(256,608,c),
(269,611,l),
(269,611,o),
(279,600,o),
(284,609,c),
(285,611,o),
(291,610,o),
(298,609,c),
(304,610,o),
(310,611,o),
(311,609,c),
(316,600,o),
(326,611,o),
(326,611,c),
(340,608,l),
(340,608,o),
(451,307,o),
(459,281,c),
(458,291,o),
(458,303,o),
(458,317,c),
(456,530,o),
(454,711,o),
(453,713,c),
(452,719,o),
(450,725,o),
(450,725,c),
(448,730,o),
(458,728,o),
(468,732,c),
(537,732,l),
(528,711,o),
(527,431,o),
(525,411,c)
);
}
);
width = 600;
}
);
unicode = 87;
},
{
glyphname = X;
lastChange = "2023-08-02 11:41:11 +0000";
layers = (
{
layerId = m01;
shapes = (
{
closed = 1;
nodes = (
(475,113,o),
(444,170,o),
(437,177,c),
(433,181,o),
(384,264,o),
(365,299,c),
(357,314,o),
(341,340,o),
(327,362,c),
(433,537,o),
(493,637,o),
(511,668,c),
(514,674,o),
(533,709,o),
(533,709,c),
(537,714,o),
(529,715,o),
(524,722,c),
(463,726,l),
(445,696,o),
(412,638,o),
(292,423,c),
(172,638,o),
(140,696,o),
(122,726,c),
(61,722,l),
(55,715,o),
(47,714,o),
(51,709,c),
(51,709,o),
(70,674,o),
(73,668,c),
(91,637,o),
(151,537,o),
(257,362,c),
(244,340,o),
(228,314,o),
(219,299,c),
(200,264,o),
(151,181,o),
(147,177,c),
(140,170,o),
(110,113,o),
(105,105,c),
(95,91,o),
(48,19,o),
(48,17,c),
(48,16,o),
(59,11,o),
(63,9,c),
(66,7,o),
(83,-2,o),
(87,2,c),
(94,11,o),
(99,-2,o),
(99,-1,c),
(112,0,l),
(112,0,o),
(231,197,o),
(234,205,c),
(243,230,o),
(269,269,o),
(292,304,c),
(315,269,o),
(341,230,o),
(351,205,c),
(353,197,o),
(472,0,o),
(473,0,c),
(485,-1,l),
(486,-2,o),
(490,11,o),
(498,2,c),
(502,-2,o),
(518,7,o),
(521,9,c),
(525,11,o),
(536,16,o),
(536,17,c),
(536,19,o),
(489,91,o),
(480,105,c)
);
}
);
width = 600;
}
);
unicode = 88;
},
{
glyphname = Y;
lastChange = "2023-08-02 11:41:29 +0000";
layers = (
{
layerId = m01;
shapes = (
{
closed = 1;
nodes = (
(524,725,o),
(504,724,o),
(501,721,c),
(494,715,o),
(488,725,o),
(487,724,c),
(473,727,l),
(473,727,o),
(388,607,o),
(386,601,c),
(379,573,o),
(365,563,o),
(345,532,c),
(332,513,o),
(319,494,o),
(307,476,c),
(302,476,o),
(298,475,o),
(298,473,c),
(297,471,o),
(295,470,o),
(292,470,c),
(280,489,o),
(268,507,o),
(255,526,c),
(235,557,o),
(221,567,o),
(214,595,c),
(212,601,o),
(127,721,o),
(127,721,c),
(113,718,l),
(112,719,o),
(106,709,o),
(99,715,c),
(96,718,o),
(76,719,o),
(73,716,c),
(68,712,o),
(54,704,o),
(54,704,c),
(54,701,o),
(94,648,o),
(102,638,c),
(106,632,o),
(131,588,o),
(137,583,c),
(141,580,o),
(181,517,o),
(197,490,c),
(206,473,o),
(231,442,o),
(239,424,c),
(242,420,o),
(253,401,o),
(268,376,c),
(268,353,o),
(267,334,o),
(268,332,c),
(275,312,o),
(267,273,o),
(266,246,c),
(262,117,o),
(260,44,o),
(260,22,c),
(260,19,o),
(262,-5,o),
(262,-5,c),
(260,-8,o),
(269,-6,o),
(278,-9,c),
(342,3,l),
(342,24,o),
(341,65,o),
(336,228,c),
(335,242,o),
(338,271,o),
(337,286,c),
(336,309,o),
(337,364,o),
(339,367,c),
(340,370,o),
(340,383,o),
(339,395,c),
(351,413,o),
(359,427,o),
(361,430,c),
(369,448,o),
(394,479,o),
(404,496,c),
(419,523,o),
(459,586,o),
(463,589,c),
(469,594,o),
(494,638,o),
(498,644,c),
(506,654,o),
(546,707,o),
(546,710,c),
(546,710,o),
(532,719,o),
(527,722,c)
);
}
);
width = 600;
}
);
unicode = 89;
},
{
glyphname = Z;
lastChange = "2023-08-02 11:43:28 +0000";
layers = (
{
layerId = m01;
shapes = (
{
closed = 1;
nodes = (
(172,130,o),
(217,190,o),
(236,214,c),
(249,229,o),
(271,262,o),
(285,277,c),
(288,281,o),
(306,302,o),
(328,330,c),
(328,330,o),
(385,405,o),
(417,447,c),
(439,477,o),
(444,494,o),
(468,510,c),
(474,514,o),
(559,635,o),
(559,635,c),
(559,635,o),
(558,657,o),
(559,657,c),
(559,658,o),
(559,670,o),
(559,675,c),
(559,679,o),
(560,698,o),
(556,699,c),
(550,701,o),
(555,712,o),
(555,713,c),
(551,723,l),
(551,723,o),
(415,725,o),
(410,724,c),
(389,716,o),
(349,723,o),
(321,723,c),
(190,725,o),
(115,725,o),
(93,724,c),
(89,724,o),
(65,722,o),
(65,722,c),
(61,723,o),
(63,715,o),
(61,707,c),
(75,650,l),
(96,650,o),
(139,651,o),
(305,660,c),
(320,661,o),
(349,659,o),
(364,660,c),
(388,661,o),
(444,660,o),
(448,660,c),
(470,659,o),
(496,650,o),
(471,630,c),
(466,626,o),
(433,586,o),
(431,578,c),
(429,574,o),
(383,515,o),
(362,491,c),
(349,476,o),
(328,442,o),
(314,428,c),
(310,424,o),
(214,299,o),
(183,258,c),
(160,228,o),
(155,211,o),
(131,195,c),
(126,191,o),
(40,70,o),
(40,70,c),
(45,61,l),
(44,61,o),
(50,50,o),
(43,48,c),
(40,47,o),
(40,27,o),
(41,24,c),
(41,19,o),
(41,6,o),
(41,6,c),
(42,5,o),
(62,6,o),
(80,7,c),
(81,7,o),
(101,9,o),
(104,9,c),
(110,9,o),
(149,7,o),
(154,9,c),
(158,10,o),
(216,10,o),
(239,8,c),
(255,7,o),
(285,9,o),
(300,8,c),
(471,0,o),
(515,-2,o),
(537,-2,c),
(551,55,l),
(549,64,o),
(550,72,o),
(547,70,c),
(547,70,o),
(523,72,o),
(519,73,c),
(495,73,o),
(419,73,o),
(283,72,c),
(255,72,o),
(215,75,o),
(193,72,c),
(135,64,o),
(131,73,o),
(169,126,c)
);
}
);
width = 600;
}
);
unicode = 90;
},
{
glyphname = a;
lastChange = "2023-08-02 11:52:45 +0000";
layers = (
{
layerId = m01;
shapes = (
{
closed = 1;
nodes = (
(162,306,o),
(214,377,o),
(294,380,c),
(330,380,o),
(386,380,o),
(417,350,c),
(417,306,o),
(417,213,o),
(417,192,c),
(416,167,o),
(416,112,o),
(416,112,c),
(391,93,o),
(364,84,o),
(332,80,c),
(249,78,o),
(167,105,o),
(165,225,c)
);
},
{
closed = 1;
nodes = (
(497,100,o),
(501,169,o),
(497,178,c),
(497,183,o),
(497,285,o),
(498,327,c),
(498,351,o),
(497,406,o),
(498,431,c),
(501,452,o),
(501,437,o),
(513,464,c),
(429,487,l),
(417,483,o),
(404,487,o),
(408,480,c),
(410,473,o),
(410,473,o),
(413,467,c),
(416,464,o),
(417,443,o),
(417,429,c),
(382,448,o),
(338,459,o),
(292,458,c),
(167,452,o),
(71,380,o),
(73,219,c),
(76,69,o),
(186,-5,o),
(314,1,c),
(352,1,o),
(388,13,o),
(419,32,c),
(419,23,o),
(419,16,o),
(419,16,c),
(436,8,l),
(436,8,o),
(450,13,o),
(451,1,c),
(451,-4,o),
(469,-18,o),
(475,-18,c),
(482,-18,o),
(501,-18,o),
(501,-18,c),
(504,-16,o),
(498,73,o),
(497,89,c)
);
}
);
width = 600;
}
);
unicode = 97;
},
{
glyphname = b;
lastChange = "2023-08-02 12:05:50 +0000";
layers = (
{
layerId = m01;
shapes = (
{
closed = 1;
nodes = (
(444,312,o),
(392,381,o),
(307,385,c),
(270,387,o),
(215,385,o),
(183,356,c),
(183,312,o),
(181,217,o),
(182,197,c),
(183,172,o),
(186,112,o),
(186,112,c),
(210,96,o),
(237,83,o),
(270,82,c),
(354,77,o),
(437,107,o),
(442,228,c)
);
},
{
closed = 1;
nodes = (
(103,103,o),
(98,172,o),
(100,182,c),
(104,189,o),
(103,290,o),
(100,332,c),
(99,358,o),
(104,413,o),
(100,439,c),
(98,461,o),
(96,716,o),
(87,738,c),
(170,734,l),
(182,730,o),
(196,733,o),
(192,726,c),
(192,726,o),
(189,720,o),
(188,715,c),
(187,709,o),
(183,449,o),
(182,436,c),
(219,456,o),
(265,469,o),
(310,466,c),
(438,461,o),
(536,387,o),
(531,222,c),
(528,69,o),
(418,-6,o),
(289,2,c),
(249,3,o),
(214,14,o),
(181,33,c),
(181,25,o),
(179,15,o),
(179,15,c),
(165,8,l),
(165,7,o),
(153,14,o),
(150,3,c),
(149,-6,o),
(130,-19,o),
(123,-19,c),
(116,-18,o),
(96,-19,o),
(96,-18,c),
(94,-16,o),
(100,73,o),
(103,94,c)
);
}
);
width = 600;
}
);
unicode = 98;
},
{
glyphname = c;
lastChange = "2023-08-02 11:54:08 +0000";
layers = (
{
layerId = m01;
shapes = (
{
closed = 1;
nodes = (
(505,500,l),
(496,501,o),
(479,500,o),
(464,501,c),
(452,505,o),
(451,515,o),
(439,515,c),
(420,519,o),
(405,523,o),
(406,519,c),
(406,515,o),
(406,505,o),
(406,492,c),
(406,486,o),
(406,483,o),
(406,479,c),
(365,495,o),
(345,500,o),
(314,497,c),
(177,495,o),
(85,407,o),
(88,234,c),
(90,74,o),
(209,-5,o),
(342,0,c),
(380,3,o),
(442,26,o),
(474,52,c),
(476,53,o),
(479,63,o),
(479,63,c),
(464,94,l),
(456,111,l),
(456,111,o),
(445,113,o),
(442,111,c),
(420,98,o),
(391,87,o),
(361,87,c),
(276,83,o),
(188,111,o),
(182,241,c),
(181,328,o),
(235,402,o),
(324,407,c),
(361,411,o),
(422,407,o),
(452,373,c)
);
}
);
width = 600;
}
);
unicode = 99;
},
{
glyphname = d;
lastChange = "2023-08-02 11:59:39 +0000";
layers = (
{
layerId = m01;
shapes = (
{
closed = 1;
nodes = (
(165,317,o),
(219,390,o),
(303,392,c),
(340,394,o),
(394,393,o),
(427,360,c),
(427,317,o),
(430,222,o),
(427,201,c),
(425,174,o),
(425,116,o),
(425,116,c),
(402,97,o),
(373,87,o),
(340,86,c),
(256,84,o),
(174,109,o),
(169,233,c)
);
},
{
closed = 1;
nodes = (
(510,106,o),
(513,177,o),
(510,186,c),
(508,191,o),
(508,297,o),
(512,337,c),
(513,365,o),
(508,418,o),
(512,446,c),
(513,466,o),
(514,734,o),
(523,756,c),
(441,760,l),
(430,756,o),
(414,759,o),
(418,752,c),
(418,752,o),
(420,766,o),
(422,760,c),
(423,756,o),
(427,457,o),
(427,440,c),
(390,463,o),
(347,476,o),
(301,473,c),
(173,466,o),
(73,393,o),
(75,227,c),
(79,74,o),
(189,-3,o),
(320,4,c),
(359,6,o),
(395,15,o),
(430,37,c),
(431,27,o),
(431,20,o),
(431,20,c),
(445,12,l),
(446,11,o),
(460,17,o),
(461,6,c),
(462,-1,o),
(482,-17,o),
(488,-17,c),
(494,-17,o),
(514,-17,o),
(514,-16,c),
(517,-14,o),
(512,79,o),
(510,95,c)
);
}
);
width = 600;
}
);
unicode = 100;
},
{
glyphname = e;
lastChange = "2023-08-02 11:54:50 +0000";
layers = (
{
layerId = m01;
shapes = (
{
closed = 1;
nodes = (
(320,305,o),
(301,307,o),
(259,307,c),
(241,308,o),
(221,307,o),
(205,306,c),
(204,306,o),
(202,312,o),
(202,315,c),
(205,374,o),
(220,425,o),
(292,425,c),
(366,425,o),
(389,375,o),
(396,315,c),
(396,312,o),
(393,305,o),
(392,305,c),
(386,305,o),
(381,305,o),
(373,305,c)
);
},
{
closed = 1;
nodes = (
(492,294,l),
(488,417,o),
(457,504,o),
(301,504,c),
(122,504,o),
(106,390,o),
(106,253,c),
(106,114,o),
(110,3,o),
(301,1,c),
(395,0,o),
(433,27,o),
(469,93,c),
(469,95,o),
(463,103,o),
(463,103,c),
(449,114,o),
(432,127,o),
(426,127,c),
(418,133,l),
(412,139,o),
(403,144,o),
(393,146,c),
(393,146,o),
(385,143,o),
(384,139,c),
(369,102,o),
(344,77,o),
(292,77,c),
(204,77,o),
(201,147,o),
(201,220,c),
(205,220,o),
(208,220,o),
(209,220,c),
(215,221,o),
(322,221,o),
(366,220,c),
(393,218,o),
(408,221,o),
(436,220,c),
(458,218,o),
(467,221,o),
(492,213,c),
(492,291,l),
(492,294,o),
(492,294,o),
(491,294,c)
);
}
);
width = 600;
}
);
unicode = 101;
},
{
glyphname = f;
lastChange = "2023-08-02 12:05:36 +0000";
layers = (
{
layerId = m01;
shapes = (
{
closed = 1;
nodes = (
(294,567,o),
(310,622,o),
(365,615,c),
(397,610,o),
(406,583,o),
(416,553,c),
(449,593,o),
(490,637,o),
(490,637,c),
(478,686,o),
(474,679,o),
(456,694,c),
(456,694,o),
(424,706,o),
(422,706,c),
(418,696,o),
(425,680,o),
(422,666,c),
(405,674,o),
(382,696,o),
(324,698,c),
(177,700,o),
(217,458,o),
(221,451,c),
(221,451,o),
(87,447,o),
(86,442,c),
(76,408,o),
(69,367,o),
(94,362,c),
(147,346,o),
(230,378,o),
(228,335,c),
(224,287,o),
(229,250,o),
(229,200,c),
(229,191,o),
(227,-2,o),
(227,-2,c),
(226,-26,l),
(226,-27,o),
(241,-26,o),
(255,-15,c),
(260,-9,o),
(281,-15,o),
(286,-15,c),
(293,-14,o),
(291,-22,o),
(313,-6,c),
(317,-3,o),
(324,36,o),
(312,88,c),
(311,96,o),
(310,149,o),
(306,160,c),
(305,165,o),
(317,299,o),
(306,336,c),
(296,383,o),
(382,363,o),
(472,364,c),
(509,365,o),
(459,420,o),
(483,445,c),
(315,445,l),
(293,442,o),
(302,475,o),
(302,523,c)
);
}
);
width = 600;
}
);
unicode = 102;
},
{
glyphname = g;
lastChange = "2023-08-02 11:55:41 +0000";
layers = (
{
layerId = m01;
shapes = (
{
closed = 1;
nodes = (
(177,348,o),
(220,408,o),
(303,411,c),
(340,414,o),
(390,402,o),
(419,374,c),
(419,332,o),
(427,207,o),
(426,189,c),
(425,169,o),
(425,132,o),
(423,119,c),
(420,113,o),
(416,109,o),
(413,106,c),
(393,92,o),
(366,85,o),
(340,84,c),
(300,83,o),
(248,93,o),
(219,123,c),
(206,137,o),
(198,161,o),
(190,177,c),
(177,202,o),
(180,236,o),
(179,271,c)
);
},
{
closed = 1;
nodes = (
(506,132,o),
(507,171,o),
(505,178,c),
(502,184,o),
(500,326,o),
(502,366,c),
(502,390,o),
(498,439,o),
(500,465,c),
(501,480,o),
(450,476,o),
(428,467,c),
(420,463,o),
(411,463,o),
(403,467,c),
(371,481,o),
(333,488,o),
(293,486,c),
(238,483,o),
(202,475,o),
(166,449,c),
(144,432,o),
(127,423,o),
(117,396,c),
(102,364,o),
(85,307,o),
(86,259,c),
(87,220,o),
(98,139,o),
(114,111,c),
(123,91,o),
(134,59,o),
(150,50,c),
(197,20,o),
(228,0,o),
(297,3,c),
(326,5,o),
(387,25,o),
(412,36,c),
(420,-24,o),
(413,16,o),
(413,-52,c),
(413,-76,o),
(406,-130,o),
(399,-149,c),
(386,-187,o),
(343,-212,o),
(315,-212,c),
(262,-213,o),
(204,-173,o),
(189,-139,c),
(188,-134,o),
(181,-77,o),
(181,-77,c),
(171,-79,o),
(162,-72,o),
(155,-80,c),
(126,-69,l),
(120,-69,o),
(116,-69,o),
(101,-79,c),
(101,-79,o),
(95,-124,o),
(106,-163,c),
(118,-206,o),
(133,-223,o),
(153,-243,c),
(160,-251,o),
(181,-270,o),
(194,-273,c),
(231,-281,o),
(251,-292,o),
(309,-287,c),
(356,-284,o),
(405,-284,o),
(432,-254,c),
(453,-233,o),
(482,-207,o),
(492,-176,c),
(516,-116,o),
(500,-62,o),
(505,2,c),
(509,2,o),
(506,106,o),
(506,111,c)
);
}
);
width = 600;
}
);
unicode = 103;
},
{
glyphname = h;
lastChange = "2023-08-02 11:56:24 +0000";
layers = (
{
layerId = m01;
shapes = (
{
closed = 1;
nodes = (
(405,219,l),
(408,301,o),
(424,369,o),
(339,372,c),
(302,376,o),
(247,375,o),
(216,343,c),
(216,301,o),
(214,209,o),
(216,192,c),
(217,165,o),
(218,111,o),
(218,109,c),
(213,14,l),
(196,9,l),
(196,8,o),
(183,13,o),
(180,2,c),
(180,-3,o),
(161,-18,o),
(154,-18,c),
(148,-18,o),
(128,-18,o),
(128,-18,c),
(126,-16,o),
(133,71,o),
(134,91,c),
(134,98,o),
(129,165,o),
(133,175,c),
(136,181,o),
(134,280,o),
(133,322,c),
(132,348,o),
(136,397,o),
(133,424,c),
(129,445,o),
(128,728,o),
(117,749,c),
(201,756,l),
(214,749,o),
(227,755,o),
(223,748,c),
(223,748,o),
(221,741,o),
(220,735,c),
(218,731,o),
(217,434,o),
(216,419,c),
(252,441,o),
(296,452,o),
(343,449,c),
(470,445,o),
(498,375,o),
(496,216,c),
(495,159,o),
(500,111,o),
(500,75,c),
(498,60,o),
(501,44,o),
(495,35,c),
(471,11,o),
(476,14,o),
(471,11,c),
(460,-3,o),
(448,0,o),
(405,1,c)
);
}
);
width = 600;
}
);
unicode = 104;
},
{
glyphname = i;
lastChange = "2023-08-02 12:05:08 +0000";
layers = (
{
layerId = m01;
shapes = (
{
closed = 1;
nodes = (
(264,93,o),
(260,165,o),
(264,175,c),
(267,182,o),
(267,287,o),
(262,330,c),
(260,358,o),
(267,372,o),
(262,399,c),
(260,423,o),
(267,431,o),
(255,456,c),
(340,456,l),
(352,450,o),
(373,450,o),
(373,445,c),
(362,425,l),
(361,423,o),
(352,418,o),
(352,338,c),
(352,284,o),
(354,263,o),
(354,223,c),
(356,175,o),
(349,-5,o),
(349,-5,c),
(349,-8,o),
(336,-9,o),
(333,-21,c),
(332,-29,o),
(299,-29,o),
(292,-29,c),
(287,-27,o),
(264,-37,o),
(264,-37,c),
(262,-35,o),
(262,67,o),
(264,85,c)
);
},
{
closed = 1;
nodes = (
(260,588,o),
(258,602,o),
(258,625,c),
(287,636,l),
(344,625,l),
(357,620,o),
(370,624,o),
(369,618,c),
(362,604,l),
(361,601,o),
(369,546,o),
(340,547,c),
(340,547,o),
(307,535,o),
(300,535,c),
(292,538,o),
(267,541,o),
(262,567,c)
);
}
);
width = 600;
}
);
unicode = 105;
},
{
glyphname = j;
lastChange = "2023-08-02 11:57:27 +0000";
layers = (
{
layerId = m01;
shapes = (
{
closed = 1;
nodes = (
(378,598,o),
(380,612,o),
(380,632,c),
(356,641,l),
(305,632,l),
(294,628,o),
(282,630,o),
(286,627,c),
(292,612,l),
(293,610,o),
(283,559,o),
(310,560,c),
(310,560,o),
(339,551,o),
(342,551,c),
(349,551,o),
(374,554,o),
(377,578,c)
);
},
{
closed = 1;
nodes = (
(305,-95,o),
(293,-150,o),
(238,-142,c),
(215,-137,o),
(205,-122,o),
(195,-102,c),
(194,-95,o),
(186,-90,o),
(181,-92,c),
(164,-115,o),
(142,-137,o),
(129,-151,c),
(123,-161,o),
(136,-174,o),
(140,-180,c),
(168,-211,o),
(230,-222,o),
(280,-224,c),
(421,-225,o),
(385,52,o),
(383,57,c),
(383,57,o),
(377,126,o),
(378,167,c),
(380,212,o),
(378,231,o),
(378,279,c),
(378,288,o),
(379,474,o),
(379,474,c),
(379,474,o),
(365,498,o),
(352,485,c),
(347,481,o),
(325,486,o),
(322,485,c),
(315,485,o),
(316,493,o),
(294,476,c),
(292,475,o),
(283,438,o),
(294,385,c),
(298,378,o),
(298,327,o),
(302,318,c),
(304,312,o),
(293,204,o),
(299,165,c),
(311,124,o),
(305,41,o),
(305,-22,c)
);
}
);
width = 600;
}
);
unicode = 106;
},
{
glyphname = k;
lastChange = "2023-08-02 11:57:12 +0000";
layers = (
{
layerId = m01;
shapes = (
{
closed = 1;
nodes = (
(500,26,o),
(501,31,o),
(490,52,c),
(468,87,o),
(453,106,o),
(435,134,c),
(418,165,o),
(361,253,o),
(343,281,c),
(356,297,o),
(369,312,o),
(388,338,c),
(436,401,o),
(447,399,o),
(449,401,c),
(490,441,l),
(493,442,o),
(485,447,o),
(477,460,c),
(383,458,l),
(379,455,o),
(376,454,o),
(363,436,c),
(350,413,o),
(337,407,o),
(321,384,c),
(297,350,o),
(236,272,o),
(230,269,c),
(225,268,o),
(210,244,o),
(197,227,c),
(191,262,o),
(197,285,o),
(197,334,c),
(198,578,o),
(199,702,o),
(201,704,c),
(203,709,o),
(204,717,o),
(204,717,c),
(208,722,o),
(197,719,o),
(184,723,c),
(106,737,l),
(117,715,o),
(118,463,o),
(120,441,c),
(123,412,o),
(118,357,o),
(119,331,c),
(122,286,o),
(122,182,o),
(120,176,c),
(118,165,o),
(122,97,o),
(120,86,c),
(120,67,o),
(112,-24,o),
(117,-28,c),
(117,-30,o),
(126,-34,o),
(136,-36,c),
(138,-36,o),
(153,-31,o),
(156,-23,c),
(158,-11,o),
(179,-8,o),
(179,-6,c),
(196,-6,l),
(196,-6,o),
(197,47,o),
(197,104,c),
(222,132,o),
(269,186,o),
(302,225,c),
(313,211,o),
(321,198,o),
(323,193,c),
(330,185,o),
(350,134,o),
(355,128,c),
(359,125,o),
(365,114,o),
(382,84,c),
(394,65,o),
(385,62,o),
(396,45,c),
(405,27,o),
(399,25,o),
(402,3,c),
(487,3,l),
(492,13,o),
(506,22,o),
(500,26,c)
);
}
);
width = 600;
}
);
unicode = 107;
},
{
glyphname = l;
lastChange = "2023-08-02 11:57:49 +0000";
layers = (
{
layerId = m01;
shapes = (
{
closed = 1;
nodes = (
(325,80,o),
(328,138,o),
(326,146,c),
(325,152,o),
(325,240,o),
(326,275,c),
(326,298,o),
(324,346,o),
(326,369,c),
(328,388,o),
(329,656,o),
(338,677,c),
(267,676,l),
(256,672,o),
(246,675,o),
(247,671,c),
(247,671,o),
(250,665,o),
(251,659,c),
(251,656,o),
(253,482,o),
(256,278,c),
(257,235,o),
(262,216,o),
(252,183,c),
(251,176,o),
(258,5,o),
(258,5,c),
(272,-3,l),
(272,-4,o),
(282,3,o),
(284,-8,c),
(285,-14,o),
(302,-27,o),
(305,-27,c),
(314,-26,o),
(329,-27,o),
(329,-26,c),
(332,-24,o),
(326,55,o),
(325,70,c)
);
}
);
width = 600;
}
);
unicode = 108;
},
{
glyphname = m;
lastChange = "2023-08-02 11:58:00 +0000";
layers = (
{
layerId = m01;
shapes = (
{
closed = 1;
nodes = (
(553,308,o),
(579,455,o),
(412,455,c),
(366,455,o),
(332,436,o),
(306,409,c),
(285,443,o),
(259,462,o),
(205,455,c),
(157,455,o),
(153,436,o),
(131,423,c),
(146,450,l),
(146,455,o),
(126,455,o),
(111,462,c),
(38,462,l),
(45,436,o),
(45,429,o),
(45,401,c),
(45,374,o),
(45,357,o),
(45,328,c),
(45,282,o),
(45,168,o),
(45,161,c),
(45,148,o),
(45,75,o),
(45,60,c),
(45,42,o),
(45,-65,o),
(45,-65,c),
(45,-65,o),
(65,-65,o),
(73,-65,c),
(77,-65,o),
(104,-39,o),
(111,-39,c),
(131,-45,o),
(131,-26,o),
(126,-19,c),
(126,-19,o),
(131,161,o),
(131,214,c),
(126,249,o),
(131,261,o),
(131,294,c),
(139,302,o),
(131,315,o),
(131,328,c),
(131,357,o),
(164,381,o),
(205,381,c),
(292,381,o),
(265,241,o),
(265,130,c),
(265,108,o),
(265,67,o),
(265,49,c),
(265,28,o),
(265,28,o),
(265,22,c),
(265,14,o),
(271,7,o),
(271,7,c),
(325,1,l),
(332,7,o),
(346,1,o),
(346,7,c),
(346,7,o),
(346,28,o),
(346,28,c),
(352,67,o),
(338,80,o),
(338,130,c),
(338,208,o),
(346,276,o),
(332,336,c),
(346,363,o),
(372,374,o),
(405,374,c),
(506,374,o),
(474,241,o),
(474,130,c),
(474,108,o),
(474,42,o),
(474,22,c),
(474,1,o),
(474,1,o),
(474,-6,c),
(474,-6,o),
(478,-19,o),
(478,-19,c),
(533,-26,l),
(533,-19,o),
(546,-26,o),
(553,-19,c),
(553,-19,o),
(546,1,o),
(553,1,c),
(553,42,o),
(553,80,o),
(553,130,c)
);
}
);
width = 600;
}
);
unicode = 109;
},
{
glyphname = n;
lastChange = "2023-08-02 11:58:23 +0000";
layers = (
{
layerId = m01;
shapes = (
{
closed = 1;
nodes = (
(508,69,o),
(501,102,o),
(501,149,c),
(501,334,o),
(514,479,o),
(321,479,c),
(275,479,o),
(235,468,o),
(202,454,c),
(209,472,l),
(216,479,o),
(190,479,o),
(176,479,c),
(90,479,l),
(103,454,o),
(97,448,o),
(103,421,c),
(103,394,o),
(97,380,o),
(103,348,c),
(103,301,o),
(103,188,o),
(103,182,c),
(97,175,o),
(103,95,o),
(103,88,c),
(103,69,o),
(97,-43,o),
(103,-43,c),
(103,-43,o),
(117,-43,o),
(124,-43,c),
(130,-43,o),
(171,-16,o),
(176,-16,c),
(197,-16,o),
(197,3,o),
(197,3,c),
(197,3,o),
(197,182,o),
(197,235,c),
(197,267,o),
(190,294,o),
(190,328,c),
(190,334,o),
(197,341,o),
(197,348,c),
(216,394,o),
(262,401,o),
(316,401,c),
(440,401,o),
(428,267,o),
(428,149,c),
(428,129,o),
(421,62,o),
(421,43,c),
(421,30,o),
(421,30,o),
(421,17,c),
(421,17,o),
(428,3,o),
(428,3,c),
(481,3,l),
(481,3,o),
(501,3,o),
(501,3,c),
(501,10,o),
(501,23,o),
(501,23,c)
);
}
);
width = 600;
}
);
unicode = 110;
},
{
glyphname = o;
lastChange = "2023-08-02 11:58:46 +0000";
layers = (
{
layerId = m01;
shapes = (
{
closed = 1;
nodes = (
(187,75,o),
(199,171,o),
(199,253,c),
(199,334,o),
(193,428,o),
(292,428,c),
(387,428,o),
(400,345,o),
(400,263,c),
(400,183,o),
(389,75,o),
(292,75,c)
);
},
{
closed = 1;
nodes = (
(120,508,o),
(104,394,o),
(104,255,c),
(104,113,o),
(109,1,o),
(298,1,c),
(478,1,o),
(494,124,o),
(494,264,c),
(494,404,o),
(472,508,o),
(298,508,c)
);
}
);
width = 600;
}
);
unicode = 111;
},
{
glyphname = p;
lastChange = "2023-08-02 12:00:23 +0000";
layers = (
{
layerId = m01;
shapes = (
{
closed = 1;
nodes = (
(428,154,o),
(377,86,o),
(294,81,c),
(258,80,o),
(203,81,o),
(173,112,c),
(173,155,o),
(172,249,o),
(172,267,c),
(173,296,o),
(174,351,o),
(174,351,c),
(198,371,o),
(226,380,o),
(257,382,c),
(340,385,o),
(423,359,o),
(425,239,c)
);
},
{
closed = 1;
nodes = (
(92,361,o),
(87,293,o),
(92,285,c),
(93,277,o),
(93,176,o),
(91,135,c),
(87,108,o),
(93,55,o),
(91,29,c),
(87,6,o),
(86,-192,o),
(76,-215,c),
(159,-211,l),
(172,-206,o),
(183,-210,o),
(180,-204,c),
(180,-204,o),
(178,-197,o),
(177,-190,c),
(174,-187,o),
(173,17,o),
(173,32,c),
(209,11,o),
(252,1,o),
(297,2,c),
(424,7,o),
(520,81,o),
(519,243,c),
(515,393,o),
(402,470,o),
(277,462,c),
(238,461,o),
(202,451,o),
(171,433,c),
(171,439,o),
(171,447,o),
(171,447,c),
(154,456,l),
(152,457,o),
(139,450,o),
(138,461,c),
(137,467,o),
(118,483,o),
(112,483,c),
(104,482,o),
(86,483,o),
(86,482,c),
(83,481,o),
(91,389,o),
(92,372,c)
);
}
);
width = 600;
}
);
unicode = 112;
},
{
glyphname = q;
lastChange = "2023-08-02 12:00:42 +0000";
layers = (
{
layerId = m01;
shapes = (
{
closed = 1;
nodes = (
(155,165,o),
(210,90,o),
(297,85,c),
(336,84,o),
(395,85,o),
(425,120,c),
(425,165,o),
(426,263,o),
(426,284,c),
(425,313,o),
(424,373,o),
(424,373,c),
(401,392,o),
(370,403,o),
(336,405,c),
(248,408,o),
(161,381,o),
(157,252,c)
);
},
{
closed = 1;
nodes = (
(510,383,o),
(515,311,o),
(513,301,c),
(510,294,o),
(510,189,o),
(514,143,c),
(515,115,o),
(510,59,o),
(514,31,c),
(515,9,o),
(517,-185,o),
(528,-209,c),
(440,-214,l),
(426,-209,o),
(416,-213,o),
(419,-205,c),
(419,-205,o),
(420,-222,o),
(422,-215,c),
(423,-209,o),
(425,19,o),
(426,34,c),
(388,13,o),
(343,2,o),
(295,3,c),
(160,10,o),
(59,85,o),
(61,258,c),
(65,418,o),
(181,496,o),
(317,489,c),
(357,488,o),
(396,476,o),
(427,457,c),
(427,465,o),
(430,475,o),
(430,475,c),
(446,481,l),
(446,482,o),
(458,476,o),
(463,488,c),
(464,495,o),
(484,512,o),
(488,510,c),
(497,510,o),
(516,510,o),
(517,510,c),
(520,508,o),
(514,413,o),
(513,394,c)
);
}
);
width = 600;
}
);
unicode = 113;
},
{
glyphname = r;
lastChange = "2023-08-02 12:00:58 +0000";
layers = (
{
layerId = m01;
shapes = (
{
closed = 1;
nodes = (
(249,79,o),
(252,194,o),
(252,264,c),
(249,356,o),
(287,414,o),
(359,402,c),
(386,397,o),
(389,379,o),
(400,356,c),
(404,347,o),
(415,338,o),
(420,342,c),
(443,371,o),
(465,384,o),
(481,401,c),
(492,412,o),
(473,428,o),
(468,436,c),
(432,475,o),
(415,495,o),
(350,497,c),
(310,497,o),
(270,443,o),
(247,417,c),
(249,440,o),
(254,470,o),
(255,472,c),
(264,492,l),
(267,499,o),
(243,500,o),
(228,504,c),
(147,504,l),
(159,478,o),
(153,469,o),
(157,444,c),
(159,417,o),
(154,399,o),
(156,371,c),
(159,322,o),
(159,211,o),
(157,205,c),
(153,195,o),
(158,120,o),
(158,108,c),
(157,87,o),
(154,-18,o),
(157,-20,c),
(158,-20,o),
(163,-18,o),
(171,-15,c),
(171,-28,o),
(213,-15,o),
(244,-5,c),
(257,-2,o),
(262,13,o),
(260,22,c)
);
}
);
width = 600;
}
);
unicode = 114;
},
{
glyphname = s;
lastChange = "2023-08-02 12:01:09 +0000";
layers = (
{
layerId = m01;
shapes = (
{
closed = 1;
nodes = (
(310,305,o),
(264,287,o),
(228,319,c),
(193,348,o),
(227,444,o),
(318,442,c),
(384,440,o),
(395,417,o),
(409,378,c),
(409,378,o),
(422,374,o),
(427,379,c),
(463,390,l),
(469,390,o),
(482,387,o),
(497,398,c),
(497,398,o),
(487,404,o),
(484,407,c),
(449,473,o),
(417,518,o),
(318,519,c),
(144,523,o),
(95,340,o),
(155,270,c),
(170,252,o),
(228,227,o),
(260,225,c),
(302,222,o),
(340,232,o),
(389,210,c),
(402,205,o),
(422,174,o),
(415,152,c),
(402,90,o),
(367,87,o),
(290,88,c),
(263,88,o),
(237,100,o),
(223,113,c),
(213,122,o),
(203,162,o),
(200,178,c),
(197,190,o),
(190,194,o),
(190,194,c),
(180,184,l),
(164,179,o),
(143,179,o),
(133,179,c),
(124,178,o),
(122,174,o),
(114,174,c),
(109,180,o),
(127,105,o),
(130,99,c),
(160,48,o),
(198,4,o),
(295,2,c),
(457,-1,o),
(493,68,o),
(497,194,c),
(498,217,o),
(470,252,o),
(454,265,c),
(434,290,o),
(384,290,o),
(355,297,c)
);
}
);
width = 600;
}
);
unicode = 115;
},
{
glyphname = t;
lastChange = "2023-08-02 12:01:26 +0000";
layers = (
{
layerId = m01;
shapes = (
{
closed = 1;
nodes = (
(315,146,o),
(320,87,o),
(381,87,c),
(414,87,o),
(430,122,o),
(441,148,c),
(442,152,o),
(454,152,o),
(456,148,c),
(484,116,o),
(503,109,o),
(503,109,c),
(487,57,o),
(472,50,o),
(459,32,c),
(441,17,o),
(423,-4,o),
(345,5,c),
(167,26,o),
(234,274,o),
(225,393,c),
(225,393,o),
(82,389,o),
(81,394,c),
(73,431,o),
(62,475,o),
(91,483,c),
(147,499,o),
(238,465,o),
(234,511,c),
(230,560,o),
(234,524,o),
(234,580,c),
(234,588,o),
(233,652,o),
(233,652,c),
(225,668,o),
(268,676,o),
(283,663,c),
(287,659,o),
(312,658,o),
(317,658,c),
(324,658,o),
(323,659,o),
(348,643,c),
(352,639,o),
(339,650,o),
(325,593,c),
(323,584,o),
(332,549,o),
(320,508,c),
(308,461,o),
(406,499,o),
(500,479,c),
(512,476,o),
(525,417,o),
(511,392,c),
(329,392,l),
(304,394,o),
(316,302,o),
(315,232,c)
);
}
);
width = 600;
}
);
unicode = 116;
},
{
glyphname = u;
lastChange = "2023-08-02 12:01:46 +0000";
layers = (
{
layerId = m01;
shapes = (
{
closed = 1;
nodes = (
(404,479,l),
(416,453,o),
(411,443,o),
(413,420,c),
(416,392,o),
(412,377,o),
(413,348,c),
(416,302,o),
(416,193,o),
(415,187,c),
(413,183,o),
(413,172,o),
(413,158,c),
(411,147,o),
(407,137,o),
(403,127,c),
(386,86,o),
(338,78,o),
(286,78,c),
(168,78,o),
(181,210,o),
(181,321,c),
(181,344,o),
(182,405,o),
(182,426,c),
(182,448,o),
(193,437,o),
(200,460,c),
(118,477,l),
(117,472,o),
(108,475,o),
(108,470,c),
(107,466,o),
(108,447,o),
(108,442,c),
(102,403,o),
(108,368,o),
(108,321,c),
(108,144,o),
(95,2,o),
(284,2,c),
(334,2,o),
(381,13,o),
(413,33,c),
(413,1,o),
(413,-33,o),
(415,-35,c),
(415,-35,o),
(435,-24,o),
(443,-25,c),
(447,-25,o),
(481,-25,o),
(484,-19,c),
(486,-5,o),
(497,-2,o),
(497,-2,c),
(497,-2,o),
(504,184,o),
(504,237,c),
(503,279,o),
(501,300,o),
(501,355,c),
(501,439,o),
(509,445,o),
(510,448,c),
(521,466,l),
(524,472,o),
(501,474,o),
(489,479,c)
);
}
);
width = 600;
}
);
unicode = 117;
},
{
glyphname = v;
lastChange = "2023-08-02 12:02:00 +0000";
layers = (
{
layerId = m01;
shapes = (
{
closed = 1;
nodes = (
(449,460,o),
(440,457,o),
(436,448,c),
(433,444,o),
(431,438,o),
(426,425,c),
(393,359,o),
(315,180,o),
(298,163,c),
(279,198,o),
(253,255,o),
(248,265,c),
(238,278,o),
(227,309,o),
(219,322,c),
(206,345,o),
(161,432,o),
(161,435,c),
(160,442,o),
(175,453,o),
(172,459,c),
(168,469,o),
(89,463,o),
(89,462,c),
(73,451,l),
(73,451,o),
(120,349,o),
(123,347,c),
(141,329,o),
(141,315,o),
(156,290,c),
(200,197,o),
(252,89,o),
(278,38,c),
(275,21,o),
(287,3,o),
(292,1,c),
(292,-2,o),
(309,4,o),
(309,4,c),
(315,16,o),
(341,59,o),
(343,64,c),
(344,69,o),
(358,116,o),
(361,124,c),
(361,125,o),
(400,196,o),
(413,217,c),
(421,229,o),
(510,429,o),
(520,441,c),
(526,451,o),
(517,453,o),
(532,461,c),
(532,461,o),
(489,469,o),
(460,461,c)
);
}
);
width = 600;
}
);
unicode = 118;
},
{
glyphname = w;
lastChange = "2023-08-02 12:02:37 +0000";
layers = (
{
layerId = m01;
shapes = (
{
closed = 1;
nodes = (
(522,463,l),
(522,465,o),
(453,470,o),
(450,459,c),
(448,453,o),
(460,441,o),
(460,434,c),
(458,431,o),
(437,334,o),
(428,311,c),
(419,296,o),
(410,205,o),
(394,167,c),
(379,184,o),
(311,386,o),
(310,391,c),
(308,394,o),
(301,408,o),
(293,407,c),
(292,407,o),
(290,407,o),
(290,407,c),
(290,407,o),
(288,407,o),
(288,407,c),
(276,408,o),
(269,394,o),
(269,391,c),
(266,386,o),
(264,381,o),
(261,371,c),
(258,369,o),
(208,180,o),
(195,163,c),
(178,200,o),
(171,246,o),
(166,254,c),
(160,269,o),
(121,431,o),
(121,434,c),
(120,441,o),
(129,453,o),
(128,459,c),
(125,470,o),
(58,465,o),
(58,463,c),
(42,450,l),
(42,450,o),
(67,342,o),
(70,338,c),
(87,320,o),
(131,102,o),
(154,45,c),
(153,28,o),
(190,0,o),
(193,-2,c),
(193,-5,o),
(207,1,o),
(207,1,c),
(211,13,o),
(221,25,o),
(223,32,c),
(225,36,o),
(236,87,o),
(236,95,c),
(237,100,o),
(261,191,o),
(270,213,c),
(274,221,o),
(281,241,o),
(290,269,c),
(296,241,o),
(304,221,o),
(307,213,c),
(320,191,o),
(341,100,o),
(341,95,c),
(343,87,o),
(354,36,o),
(357,32,c),
(358,25,o),
(370,17,o),
(375,4,c),
(375,4,o),
(390,-1,o),
(390,0,c),
(394,4,o),
(432,51,o),
(429,71,c),
(452,128,o),
(441,174,o),
(482,275,c),
(494,304,o),
(491,320,o),
(506,338,c),
(510,342,o),
(536,450,o),
(536,450,c)
);
}
);
width = 600;
}
);
unicode = 119;
},
{
glyphname = x;
lastChange = "2023-08-02 12:03:07 +0000";
layers = (
{
layerId = m01;
shapes = (
{
closed = 1;
nodes = (
(505,3,o),
(500,6,o),
(497,9,c),
(495,9,o),
(418,127,o),
(341,244,c),
(348,252,o),
(349,256,o),
(352,262,c),
(365,284,o),
(405,342,o),
(407,344,c),
(414,350,o),
(435,389,o),
(440,392,c),
(448,406,o),
(487,452,o),
(487,454,c),
(487,454,o),
(472,465,o),
(465,470,c),
(463,473,o),
(440,476,o),
(435,473,c),
(429,467,o),
(422,478,o),
(422,478,c),
(407,479,l),
(407,479,o),
(323,374,o),
(323,368,c),
(317,344,o),
(308,333,o),
(292,315,c),
(279,337,o),
(271,344,o),
(265,368,c),
(262,374,o),
(184,483,o),
(184,483,c),
(167,479,l),
(167,479,o),
(160,470,o),
(154,476,c),
(151,478,o),
(128,478,o),
(125,476,c),
(120,470,o),
(103,459,o),
(103,459,c),
(103,455,o),
(139,408,o),
(149,399,c),
(154,392,o),
(173,353,o),
(179,348,c),
(184,344,o),
(222,286,o),
(233,262,c),
(236,260,o),
(239,252,o),
(244,244,c),
(165,128,o),
(81,12,o),
(81,10,c),
(78,9,o),
(72,9,o),
(72,9,c),
(69,6,o),
(80,0,o),
(89,-11,c),
(166,-43,l),
(166,-26,o),
(253,108,o),
(291,169,c),
(330,104,o),
(411,-29,o),
(411,-46,c),
(490,-14,l),
(497,-6,o),
(511,0,o),
(505,3,c)
);
}
);
width = 600;
}
);
unicode = 120;
},
{
glyphname = y;
lastChange = "2023-08-02 12:04:01 +0000";
layers = (
{
layerId = m01;
shapes = (
{
closed = 1;
nodes = (
(486,452,o),
(451,446,o),
(450,444,c),
(445,441,o),
(441,437,o),
(438,435,c),
(435,430,o),
(430,422,o),
(427,408,c),
(425,403,o),
(423,398,o),
(421,394,c),
(409,371,o),
(396,340,o),
(380,308,c),
(361,271,o),
(334,210,o),
(303,147,c),
(294,129,o),
(287,118,o),
(283,114,c),
(264,153,o),
(234,217,o),
(227,228,c),
(216,242,o),
(204,275,o),
(195,290,c),
(180,316,o),
(132,414,o),
(132,419,c),
(132,426,o),
(147,437,o),
(143,445,c),
(136,456,o),
(51,451,o),
(51,450,c),
(31,436,l),
(31,436,o),
(85,324,o),
(89,319,c),
(110,301,o),
(110,284,o),
(126,254,c),
(164,171,o),
(210,78,o),
(241,15,c),
(171,-136,o),
(160,-159,o),
(160,-159,c),
(154,-163,o),
(146,-196,o),
(146,-196,c),
(141,-203,o),
(153,-206,o),
(163,-216,c),
(245,-216,l),
(245,-193,o),
(303,-63,o),
(303,-63,c),
(308,-50,o),
(337,0,o),
(338,3,c),
(340,7,o),
(347,31,o),
(353,51,c),
(363,71,o),
(374,96,o),
(380,110,c),
(385,118,o),
(409,167,o),
(414,173,c),
(415,177,o),
(416,181,o),
(421,187,c),
(436,222,o),
(480,316,o),
(508,375,c),
(522,403,o),
(540,437,o),
(540,438,c),
(540,441,o),
(508,455,o),
(498,452,c)
);
}
);
width = 600;
}
);
unicode = 121;
},
{
glyphname = z;
lastChange = "2023-08-02 12:04:45 +0000";
layers = (
{
layerId = m01;
shapes = (
{
closed = 1;
nodes = (
(518,84,o),
(516,83,o),
(510,79,c),
(507,79,o),
(454,73,o),
(305,73,c),
(273,73,o),
(259,67,o),
(237,76,c),
(235,76,o),
(231,76,o),
(220,76,c),
(266,136,o),
(330,212,o),
(333,222,c),
(342,236,o),
(367,257,o),
(376,272,c),
(393,292,o),
(435,341,o),
(437,342,c),
(442,343,o),
(469,380,o),
(474,387,c),
(474,387,o),
(476,389,o),
(476,389,c),
(511,421,o),
(523,445,o),
(523,445,c),
(522,454,o),
(504,475,o),
(500,475,c),
(500,473,o),
(367,469,o),
(325,469,c),
(295,469,o),
(284,461,o),
(259,470,c),
(254,473,o),
(129,469,o),
(129,469,c),
(124,453,l),
(124,453,o),
(129,441,o),
(122,440,c),
(117,438,o),
(105,421,o),
(105,416,c),
(105,410,o),
(105,393,o),
(105,391,c),
(111,391,o),
(166,395,o),
(178,395,c),
(183,395,o),
(224,391,o),
(232,393,c),
(235,395,o),
(300,395,o),
(325,393,c),
(338,391,o),
(364,393,o),
(380,393,c),
(370,380,o),
(364,374,o),
(364,372,c),
(353,346,o),
(341,342,o),
(320,318,c),
(223,205,o),
(105,72,o),
(104,72,c),
(99,69,o),
(97,69,o),
(97,69,c),
(94,67,o),
(96,66,o),
(101,57,c),
(102,54,l),
(102,49,o),
(104,46,o),
(97,43,c),
(94,43,o),
(84,27,o),
(85,24,c),
(85,18,o),
(84,-1,o),
(85,-1,c),
(85,-3,o),
(145,1,o),
(152,1,c),
(161,1,o),
(204,-1,o),
(209,1,c),
(215,1,o),
(276,1,o),
(302,-1,c),
(320,-3,o),
(353,1,o),
(370,-1,c),
(384,-3,o),
(489,-3,o),
(507,-14,c),
(522,59,l),
(521,73,o),
(522,84,o),
(518,84,c)
);
}
);
width = 600;
}
);
unicode = 122;
},
{
glyphname = uni3900;
lastChange = "2023-08-02 06:29:14 +0000";
layers = (
{
layerId = m01;
shapes = (
{
closed = 1;
nodes = (
(407,549,o),
(456,582,o),
(482,590,c),
(483,590,o),
(561,628,o),
(583,639,c),
(610,653,o),
(624,605,o),
(635,594,c),
(641,587,o),
(659,563,o),
(677,518,c),
(685,500,o),
(684,474,o),
(708,483,c),
(724,489,o),
(729,512,o),
(732,527,c),
(733,536,o),
(741,538,o),
(744,545,c),
(747,554,o),
(747,563,o),
(744,572,c),
(743,575,o),
(739,578,o),
(733,581,c),
(721,587,o),
(673,612,o),
(664,617,c),
(654,623,o),
(602,653,o),
(628,667,c),
(658,684,o),
(686,702,o),
(689,739,c),
(689,740,o),
(640,775,o),
(627,780,c),
(626,780,o),
(558,711,o),
(553,705,c),
(546,697,o),
(518,671,o),
(510,667,c),
(509,666,o),
(434,605,o),
(434,604,c),
(434,604,o),
(398,576,o),
(393,572,c),
(369,553,o),
(347,540,o),
(347,536,c),
(347,535,o),
(385,540,o),
(395,544,c)
);
},
{
closed = 1;
nodes = (
(287,359,o),
(284,376,o),
(310,384,c),
(332,391,o),
(639,394,o),
(646,396,c),
(652,397,o),
(762,395,o),
(772,398,c),
(778,400,o),
(851,399,o),
(852,399,c),
(862,399,o),
(894,401,o),
(895,401,c),
(906,422,o),
(879,442,o),
(862,447,c),
(858,448,o),
(854,452,o),
(852,455,c),
(850,462,o),
(827,503,o),
(817,489,c),
(801,467,o),
(780,453,o),
(758,438,c),
(746,430,o),
(729,424,o),
(715,424,c),
(685,423,o),
(378,414,o),
(372,413,c),
(353,413,o),
(334,412,o),
(314,411,c),
(310,411,o),
(300,414,o),
(299,416,c),
(293,433,o),
(304,631,o),
(301,651,c),
(299,670,o),
(309,681,o),
(322,697,c),
(331,708,o),
(336,725,o),
(317,730,c),
(316,730,o),
(299,738,o),
(292,741,c),
(280,748,o),
(268,753,o),
(255,758,c),
(249,761,o),
(233,762,o),
(233,761,c),
(231,757,o),
(230,752,o),
(231,748,c),
(233,720,o),
(221,404,o),
(220,391,c),
(218,359,o),
(214,336,o),
(217,305,c),
(220,277,o),
(250,271,o),
(270,283,c),
(289,293,o),
(293,316,o),
(290,336,c)
);
},
{
closed = 1;
nodes = (
(962,202,o),
(948,203,o),
(938,207,c),
(926,213,o),
(915,225,o),
(902,230,c),
(864,244,o),
(802,258,o),
(754,284,c),
(750,284,o),
(719,304,o),
(704,309,c),
(702,310,o),
(663,319,o),
(664,318,c),
(668,311,o),
(723,271,o),
(736,260,c),
(756,244,o),
(800,199,o),
(803,193,c),
(812,174,o),
(823,159,o),
(837,148,c),
(844,142,o),
(872,93,o),
(876,82,c),
(897,24,o),
(919,65,o),
(944,85,c),
(952,91,o),
(959,97,o),
(966,104,c),
(983,120,o),
(970,172,o),
(966,189,c)
);
},
{
closed = 1;
nodes = (
(518,220,o),
(515,229,o),
(511,238,c),
(506,255,o),
(492,263,o),
(478,272,c),
(473,272,o),
(448,314,o),
(428,324,c),
(413,332,o),
(408,315,o),
(411,304,c),
(417,286,o),
(424,268,o),
(432,250,c),
(439,235,o),
(442,163,o),
(441,157,c),
(439,147,o),
(440,138,o),
(444,129,c),
(451,112,o),
(468,115,o),
(482,114,c),
(490,113,o),
(516,144,o),
(522,156,c),
(522,156,o),
(527,192,o),
(521,211,c)
);
},
{
closed = 1;
nodes = (
(789,26,o),
(786,32,o),
(780,38,c),
(761,53,o),
(743,66,o),
(726,82,c),
(704,105,o),
(682,128,o),
(659,151,c),
(655,153,o),
(614,187,o),
(614,187,c),
(613,187,o),
(578,212,o),
(577,212,c),
(568,213,o),
(605,155,o),
(611,137,c),
(615,117,o),
(619,98,o),
(622,78,c),
(627,57,o),
(615,21,o),
(614,21,c),
(603,16,o),
(566,15,o),
(562,15,c),
(544,12,o),
(527,9,o),
(510,5,c),
(504,3,o),
(464,-10,o),
(457,-3,c),
(456,-2,o),
(404,1,o),
(390,7,c),
(374,13,o),
(353,27,o),
(352,52,c),
(352,53,o),
(298,219,o),
(297,220,c),
(290,233,o),
(286,247,o),
(267,240,c),
(266,240,o),
(265,239,o),
(265,238,c),
(261,196,o),
(274,152,o),
(281,114,c),
(287,73,o),
(283,31,o),
(303,-6,c),
(309,-18,o),
(317,-29,o),
(326,-39,c),
(331,-45,o),
(411,-96,o),
(444,-96,c),
(465,-96,o),
(541,-79,o),
(555,-84,c),
(577,-92,o),
(609,-85,o),
(630,-80,c),
(644,-76,o),
(659,-76,o),
(674,-74,c),
(683,-72,o),
(740,-62,o),
(757,-50,c),
(767,-44,o),
(784,-45,o),
(796,-37,c),
(807,-30,o),
(814,-19,o),
(817,-5,c),
(820,6,o),
(793,17,o),
(793,18,c)
);
},
{
closed = 1;
nodes = (
(150,245,o),
(147,244,o),
(143,241,c),
(143,241,o),
(138,204,o),
(137,186,c),
(137,173,o),
(128,153,o),
(125,141,c),
(120,125,o),
(116,108,o),
(111,92,c),
(105,69,o),
(53,-37,o),
(43,-46,c),
(37,-52,o),
(21,-65,o),
(28,-74,c),
(46,-101,o),
(67,-93,o),
(94,-78,c),
(118,-64,o),
(143,-30,o),
(153,-12,c),
(164,9,o),
(164,43,o),
(167,57,c),
(175,95,o),
(173,133,o),
(167,173,c),
(164,193,o),
(155,244,o),
(154,244,c)
);
}
);
width = 1000;
}
);
unicode = 14592;
},
{
glyphname = uni4E00;
lastChange = "2023-08-01 14:08:55 +0000";
layers = (
{
layerId = m01;
shapes = (
{
closed = 1;
nodes = (
(929,369,o),
(882,451,o),
(866,421,c),
(857,406,o),
(846,390,o),
(835,380,c),
(834,379,o),
(830,363,o),
(827,363,c),
(747,365,o),
(669,353,o),
(589,354,c),
(548,354,o),
(393,344,o),
(357,345,c),
(334,343,o),
(93,327,o),
(69,332,c),
(60,332,o),
(39,331,o),
(40,324,c),
(40,324,o),
(56,296,o),
(56,296,c),
(56,295,o),
(57,294,o),
(58,294,c),
(68,291,o),
(75,291,o),
(86,295,c),
(109,305,o),
(206,303,o),
(223,304,c),
(266,312,o),
(310,313,o),
(353,313,c),
(389,314,o),
(426,316,o),
(462,318,c),
(476,320,o),
(632,327,o),
(668,326,c),
(689,327,o),
(745,330,o),
(751,330,c),
(764,330,o),
(850,332,o),
(883,328,c),
(908,326,o),
(934,324,o),
(957,331,c),
(961,337,o),
(969,356,o),
(961,361,c)
);
}
);
width = 1000;
}
);
unicode = 19968;
},
{
glyphname = uni4E08;
lastChange = "2023-08-02 05:58:22 +0000";
layers = (
{
layerId = m01;
shapes = (
{
closed = 1;
nodes = (
(976,51,o),
(961,52,o),
(948,53,c),
(933,54,o),
(912,49,o),
(895,51,c),
(874,52,o),
(759,58,o),
(746,60,c),
(728,63,o),
(669,77,o),
(658,78,c),
(637,80,o),
(617,82,o),
(597,85,c),
(586,86,o),
(575,92,o),
(567,94,c),
(539,99,o),
(516,103,o),
(497,106,c),
(493,106,o),
(487,108,o),
(484,109,c),
(470,115,o),
(473,121,o),
(473,122,c),
(472,129,o),
(502,171,o),
(502,171,c),
(519,189,o),
(531,228,o),
(531,259,c),
(532,280,o),
(533,324,o),
(538,357,c),
(541,376,o),
(537,393,o),
(538,413,c),
(539,430,o),
(539,465,o),
(541,465,c),
(557,465,o),
(572,469,o),
(587,470,c),
(600,470,o),
(660,464,o),
(668,465,c),
(703,468,o),
(789,465,o),
(790,465,c),
(811,467,o),
(854,474,o),
(854,475,c),
(864,499,o),
(834,513,o),
(815,518,c),
(814,518,o),
(791,546,o),
(780,548,c),
(779,548,o),
(747,524,o),
(739,506,c),
(738,502,o),
(727,491,o),
(721,490,c),
(720,490,o),
(682,488,o),
(670,489,c),
(659,490,o),
(550,490,o),
(549,490,c),
(546,492,o),
(540,494,o),
(540,497,c),
(541,506,o),
(539,545,o),
(540,554,c),
(541,564,o),
(538,576,o),
(537,586,c),
(537,599,o),
(536,612,o),
(535,624,c),
(534,647,o),
(522,663,o),
(549,677,c),
(562,684,o),
(574,686,o),
(583,700,c),
(595,723,o),
(549,730,o),
(535,730,c),
(534,730,o),
(534,731,o),
(533,731,c),
(527,736,o),
(521,742,o),
(514,744,c),
(496,747,o),
(492,750,o),
(480,762,c),
(475,767,o),
(462,761,o),
(457,757,c),
(457,757,o),
(456,756,o),
(456,755,c),
(456,750,o),
(456,746,o),
(456,744,c),
(459,726,o),
(460,709,o),
(460,696,c),
(460,639,o),
(466,555,o),
(471,486,c),
(471,485,o),
(470,484,o),
(469,484,c),
(469,484,o),
(284,478,o),
(269,478,c),
(269,478,o),
(123,478,o),
(116,479,c),
(108,479,o),
(99,485,o),
(93,477,c),
(85,468,o),
(92,438,o),
(109,444,c),
(128,450,o),
(187,451,o),
(197,450,c),
(212,448,o),
(306,461,o),
(336,458,c),
(340,458,o),
(410,455,o),
(423,457,c),
(432,458,o),
(465,454,o),
(465,454,c),
(466,454,o),
(469,347,o),
(465,318,c),
(460,272,o),
(459,265,o),
(458,253,c),
(454,210,o),
(412,161,o),
(412,161,c),
(401,159,o),
(369,209,o),
(363,214,c),
(347,229,o),
(343,248,o),
(334,268,c),
(326,285,o),
(341,297,o),
(330,314,c),
(324,325,o),
(313,333,o),
(299,330,c),
(295,330,o),
(291,303,o),
(291,303,c),
(291,302,o),
(281,295,o),
(280,293,c),
(256,282,o),
(246,280,o),
(222,275,c),
(211,273,o),
(178,265,o),
(173,255,c),
(166,244,o),
(211,210,o),
(211,211,c),
(219,216,o),
(225,224,o),
(231,231,c),
(249,255,o),
(305,284,o),
(305,282,c),
(313,259,o),
(322,235,o),
(330,210,c),
(337,189,o),
(353,166,o),
(367,147,c),
(377,130,o),
(380,114,o),
(368,98,c),
(366,95,o),
(323,61,o),
(322,62,c),
(322,62,o),
(295,46,o),
(289,41,c),
(271,30,o),
(254,17,o),
(237,6,c),
(222,-2,o),
(117,-53,o),
(79,-67,c),
(69,-71,o),
(39,-82,o),
(29,-83,c),
(-5,-88,o),
(2,-103,o),
(44,-99,c),
(46,-99,o),
(76,-93,o),
(78,-92,c),
(111,-81,o),
(121,-79,o),
(140,-72,c),
(152,-67,o),
(176,-62,o),
(184,-54,c),
(189,-49,o),
(246,-27,o),
(263,-20,c),
(278,-14,o),
(319,10,o),
(330,15,c),
(344,23,o),
(384,40,o),
(387,42,c),
(390,44,o),
(415,72,o),
(416,72,c),
(435,79,o),
(442,61,o),
(455,52,c),
(476,43,o),
(496,33,o),
(516,22,c),
(519,21,o),
(524,17,o),
(534,11,c),
(551,1,o),
(569,-4,o),
(589,-12,c),
(600,-16,o),
(690,-31,o),
(709,-36,c),
(723,-40,o),
(738,-36,o),
(752,-41,c),
(762,-45,o),
(784,-58,o),
(785,-57,c),
(800,-48,o),
(811,-34,o),
(815,-17,c),
(815,-17,o),
(832,-6,o),
(839,-1,c),
(865,16,o),
(891,25,o),
(921,25,c),
(933,25,o),
(939,30,o),
(950,35,c),
(957,39,o),
(983,44,o),
(982,45,c)
);
}
);
width = 1000;
}
);
unicode = 19976;
},
{
glyphname = uni4E09;
lastChange = "2023-08-01 14:28:51 +0000";
layers = (
{
layerId = m01;
shapes = (
{
closed = 1;
nodes = (
(150,595,o),
(197,606,o),
(212,609,c),
(226,611,o),
(332,621,o),
(351,618,c),
(371,614,o),
(455,622,o),
(478,624,c),
(503,626,o),
(646,631,o),
(657,632,c),
(660,633,o),
(763,622,o),
(767,624,c),
(774,628,o),
(785,636,o),
(789,643,c),
(796,654,o),
(793,673,o),
(782,681,c),
(772,687,o),
(763,695,o),
(756,702,c),
(742,717,o),
(730,720,o),
(710,723,c),
(687,726,o),
(682,708,o),
(669,695,c),
(665,691,o),
(653,677,o),
(649,676,c),
(631,673,o),
(612,671,o),
(593,670,c),
(590,670,o),
(492,670,o),
(482,670,c),
(469,670,o),
(387,663,o),
(358,660,c),
(309,656,o),
(260,660,o),
(212,653,c),
(190,649,o),
(168,650,o),
(146,650,c),
(137,650,o),
(126,656,o),
(121,643,c),
(116,628,o),
(120,616,o),
(133,607,c)
);
},
{
closed = 1;
nodes = (
(668,421,o),
(653,421,o),
(648,418,c),
(648,418,o),
(635,416,o),
(630,410,c),
(624,402,o),
(625,390,o),
(619,381,c),
(614,374,o),
(617,366,o),
(609,361,c),
(600,355,o),
(584,355,o),
(584,355,c),
(568,351,o),
(531,352,o),
(519,351,c),
(499,350,o),
(259,340,o),
(253,338,c),
(243,336,o),
(207,339,o),
(193,340,c),
(183,340,o),
(174,338,o),
(176,325,c),
(177,313,o),
(182,299,o),
(193,295,c),
(196,294,o),
(328,301,o),
(336,303,c),
(349,307,o),
(524,315,o),
(532,315,c),
(554,317,o),
(576,319,o),
(598,321,c),
(604,321,o),
(640,323,o),
(650,324,c),
(657,325,o),
(668,325,o),
(684,325,c),
(706,325,o),
(729,318,o),
(745,338,c),
(753,349,o),
(745,372,o),
(719,387,c),
(708,393,o),
(687,417,o),
(673,420,c)
);
},
{
closed = 1;
nodes = (
(899,80,o),
(894,119,o),
(869,123,c),
(850,127,o),
(847,118,o),
(847,118,c),
(840,112,o),
(825,80,o),
(821,76,c),
(816,71,o),
(817,33,o),
(798,24,c),
(777,25,o),
(605,19,o),
(593,18,c),
(584,18,o),
(390,19,o),
(383,20,c),
(376,21,o),
(315,19,o),
(312,18,c),
(311,18,o),
(252,20,o),
(237,18,c),
(219,15,o),
(94,5,o),
(73,6,c),
(61,7,o),
(41,11,o),
(31,5,c),
(19,-2,o),
(33,-31,o),
(38,-40,c),
(41,-45,o),
(45,-46,o),
(50,-45,c),
(55,-44,o),
(61,-42,o),
(70,-40,c),
(78,-39,o),
(131,-29,o),
(141,-30,c),
(153,-30,o),
(376,-15,o),
(381,-15,c),
(395,-15,o),
(522,-9,o),
(534,-11,c),
(547,-13,o),
(824,-15,o),
(836,-16,c),
(854,-18,o),
(913,-19,o),
(923,-18,c),
(924,-18,o),
(964,-20,o),
(971,-16,c),
(992,-5,o),
(940,41,o),
(917,62,c)
);
}
);
width = 1000;
}
);
unicode = 19977;
},
{
glyphname = uni4E0B;
lastChange = "2023-08-03 03:36:09 +0000";
layers = (
{
layerId = m01;
shapes = (
{
closed = 1;
nodes = (
(940,667,o),
(908,680,o),
(906,679,c),
(889,668,o),
(875,654,o),
(864,637,c),
(858,632,o),
(843,627,o),
(842,626,c),
(842,626,o),
(766,626,o),
(757,626,c),
(740,626,o),
(658,626,o),
(659,627,c),
(659,627,o),
(658,627,o),
(658,627,c),
(644,627,o),
(628,630,o),
(613,627,c),
(597,624,o),
(439,616,o),
(431,615,c),
(403,615,o),
(325,612,o),
(316,612,c),
(283,610,o),
(250,609,o),
(216,608,c),
(202,607,o),
(167,613,o),
(163,612,c),
(142,606,o),
(88,609,o),
(82,609,c),
(61,606,o),
(41,608,o),
(18,610,c),
(14,610,o),
(11,607,o),
(12,603,c),
(16,589,o),
(21,577,o),
(29,563,c),
(30,563,o),
(50,564,o),
(59,565,c),
(87,567,o),
(116,574,o),
(145,574,c),
(162,574,o),
(298,582,o),
(331,583,c),
(356,583,o),
(398,594,o),
(436,589,c),
(443,588,o),
(448,584,o),
(449,577,c),
(452,560,o),
(453,483,o),
(452,477,c),
(449,443,o),
(449,410,o),
(450,378,c),
(453,324,o),
(453,198,o),
(451,191,c),
(448,179,o),
(452,94,o),
(452,82,c),
(450,60,o),
(432,-64,o),
(434,-66,c),
(435,-67,o),
(457,-67,o),
(465,-67,c),
(471,-67,o),
(493,-49,o),
(495,-42,c),
(498,-26,o),
(518,-20,o),
(519,-19,c),
(535,26,l),
(535,27,o),
(535,27,o),
(535,28,c),
(533,34,o),
(537,79,o),
(538,97,c),
(539,132,o),
(537,167,o),
(535,199,c),
(534,230,o),
(537,404,o),
(536,420,c),
(535,438,o),
(535,456,o),
(534,472,c),
(534,481,o),
(538,532,o),
(541,542,c),
(543,549,o),
(546,558,o),
(549,565,c),
(551,574,o),
(519,580,o),
(511,590,c),
(509,594,o),
(550,595,o),
(564,596,c),
(584,598,o),
(604,599,o),
(625,604,c),
(638,607,o),
(650,605,o),
(662,607,c),
(671,608,o),
(726,606,o),
(737,607,c),
(750,609,o),
(778,610,o),
(780,610,c),
(802,607,o),
(824,613,o),
(845,607,c),
(854,606,o),
(971,615,o),
(975,626,c),
(983,648,o),
(972,656,o),
(954,662,c)
);
},
{
closed = 1;
nodes = (
(759,414,o),
(741,412,o),
(705,426,c),
(699,428,o),
(672,426,o),
(667,427,c),
(661,425,o),
(682,407,o),
(684,406,c),
(700,391,o),
(712,371,o),
(724,353,c),
(735,340,o),
(761,293,o),
(763,288,c),
(771,269,o),
(785,246,o),
(807,234,c),
(825,224,o),
(842,245,o),
(851,267,c),
(860,291,o),
(873,282,o),
(873,293,c),
(873,306,o),
(847,340,o),
(836,352,c),
(828,363,o),
(811,381,o),
(789,397,c)
);
}
);
width = 1000;
}
);
unicode = 19979;
},
{
glyphname = uni4E0D;
lastChange = "2023-08-03 03:34:09 +0000";
layers = (
{
layerId = m01;
shapes = (
{
closed = 1;
nodes = (
(575,380,o),
(573,410,o),
(572,441,c),
(570,459,o),
(607,483,o),
(614,507,c),
(618,520,o),
(654,562,o),
(655,562,c),
(662,564,o),
(679,568,o),
(684,573,c),
(690,580,o),
(679,591,o),
(674,597,c),
(655,617,o),
(640,638,o),
(628,663,c),
(624,671,o),
(623,688,o),
(636,687,c),
(666,686,o),
(694,686,o),
(724,686,c),
(729,686,o),
(779,684,o),
(795,688,c),
(821,693,o),
(884,694,o),
(894,688,c),
(912,678,o),
(921,699,o),
(916,714,c),
(913,726,o),
(906,736,o),
(895,744,c),
(882,752,o),
(883,767,o),
(867,771,c),
(856,774,o),
(849,765,o),
(842,757,c),
(831,748,o),
(815,746,o),
(806,733,c),
(798,724,o),
(789,716,o),
(779,712,c),
(773,709,o),
(666,715,o),
(639,714,c),
(614,714,o),
(589,717,o),
(560,711,c),
(546,708,o),
(530,710,o),
(514,708,c),
(498,706,o),
(440,709,o),
(422,705,c),
(404,703,o),
(387,705,o),
(370,705,c),
(336,705,o),
(302,704,o),
(267,703,c),
(248,703,o),
(130,697,o),
(88,694,c),
(79,693,o),
(71,695,o),
(62,695,c),
(59,696,o),
(56,693,o),
(58,689,c),
(62,677,o),
(68,656,o),
(83,656,c),
(122,657,o),
(254,675,o),
(267,674,c),
(279,674,o),
(292,674,o),
(305,675,c),
(326,676,o),
(350,677,o),
(376,677,c),
(392,677,o),
(430,679,o),
(442,678,c),
(451,677,o),
(510,677,o),
(532,679,c),
(553,682,o),
(575,681,o),
(598,676,c),
(599,675,o),
(605,665,o),
(605,665,c),
(597,652,o),
(590,639,o),
(585,625,c),
(584,620,o),
(581,616,o),
(578,612,c),
(569,601,o),
(549,567,o),
(546,562,c),
(532,543,o),
(524,527,o),
(511,508,c),
(510,505,o),
(505,505,o),
(503,506,c),
(457,541,l),
(455,542,o),
(438,518,o),
(440,517,c),
(450,510,o),
(488,477,o),
(486,464,c),
(484,453,o),
(480,445,o),
(472,437,c),
(461,425,o),
(443,407,o),
(438,397,c),
(436,389,o),
(394,338,o),
(383,329,c),
(362,316,o),
(316,257,o),
(309,248,c),
(279,220,o),
(245,198,o),
(218,172,c),
(189,145,o),
(161,114,o),
(124,80,c),
(122,79,o),
(78,42,o),
(76,40,c),
(64,27,o),
(50,17,o),
(34,7,c),
(28,2,o),
(8,-9,o),
(17,-20,c),
(17,-21,o),
(38,-11,o),
(52,-4,c),
(54,-2,o),
(88,19,o),
(94,23,c),
(114,42,o),
(136,56,o),
(159,70,c),
(166,73,o),
(175,81,o),
(187,95,c),
(198,108,o),
(216,119,o),
(230,128,c),
(258,147,o),
(285,166,o),
(310,189,c),
(332,211,o),
(387,255,o),
(391,259,c),
(398,262,o),
(430,291,o),
(440,301,c),
(455,318,o),
(485,353,o),
(491,359,c),
(493,361,o),
(496,360,o),
(496,356,c),
(496,345,o),
(493,309,o),
(493,305,c),
(500,190,o),
(503,92,o),
(508,7,c),
(510,-6,o),
(507,-19,o),
(510,-31,c),
(513,-49,o),
(514,-67,o),
(522,-83,c),
(525,-88,o),
(540,-90,o),
(543,-88,c),
(553,-83,o),
(558,-71,o),
(565,-61,c),
(579,-39,o),
(575,-22,o),
(578,-1,c),
(580,19,o),
(582,39,o),
(584,56,c),
(586,73,o),
(586,88,o),
(588,106,c),
(589,135,o),
(590,165,o),
(588,194,c),
(582,246,o),
(578,299,o),
(576,351,c)
);
},
{
closed = 1;
nodes = (
(953,221,o),
(949,239,o),
(931,249,c),
(925,253,o),
(919,259,o),
(912,263,c),
(904,269,o),
(897,277,o),
(886,282,c),
(874,287,o),
(816,319,o),
(811,321,c),
(779,334,o),
(746,344,o),
(716,359,c),
(682,376,o),
(644,392,o),
(610,404,c),
(596,409,o),
(596,398,o),
(608,393,c),
(650,376,o),
(683,343,o),
(713,308,c),
(723,296,o),
(738,283,o),
(760,266,c),
(768,259,o),
(773,248,o),
(780,242,c),
(789,233,o),
(798,226,o),
(806,213,c),
(817,192,o),
(828,173,o),
(845,155,c),
(853,146,o),
(862,125,o),
(871,119,c),
(880,111,o),
(895,110,o),
(906,118,c),
(931,136,o),
(966,162,o),
(957,203,c)
);
}
);
width = 1000;
}
);
unicode = 19981;
},
{
glyphname = uni4E15;
lastChange = "2023-08-03 03:35:36 +0000";
layers = (
{
layerId = m01;
shapes = (
{
closed = 1;
nodes = (
(788,347,o),
(743,374,o),
(738,376,c),
(713,387,o),
(688,394,o),
(663,408,c),
(638,422,o),
(610,436,o),
(582,446,c),
(572,451,o),
(571,440,o),
(581,437,c),
(613,423,o),
(638,394,o),
(661,366,c),
(669,356,o),
(681,344,o),
(697,332,c),
(704,326,o),
(707,318,o),
(713,311,c),
(720,305,o),
(727,299,o),
(732,287,c),
(742,270,o),
(750,255,o),
(762,240,c),
(769,232,o),
(774,216,o),
(783,210,c),
(790,202,o),
(801,201,o),
(809,208,c),
(830,223,o),
(857,243,o),
(851,276,c),
(847,293,o),
(844,305,o),
(832,316,c),
(827,319,o),
(822,322,o),
(815,327,c),
(810,332,o),
(804,338,o),
(796,342,c)
);
},
{
closed = 1;
nodes = (
(927,27,o),
(911,63,o),
(895,83,c),
(887,91,o),
(880,90,o),
(872,83,c),
(845,57,o),
(827,43,o),
(817,36,c),
(806,10,o),
(791,17,o),
(777,19,c),
(766,19,o),
(734,20,o),
(726,20,c),
(684,18,o),
(572,19,o),
(562,18,c),
(552,17,o),
(559,93,o),
(561,108,c),
(563,123,o),
(563,141,o),
(563,159,c),
(564,172,o),
(559,189,o),
(561,202,c),
(562,226,o),
(563,252,o),
(562,274,c),
(559,316,o),
(556,360,o),
(555,403,c),
(555,427,o),
(554,452,o),
(552,476,c),
(552,492,o),
(581,512,o),
(586,529,c),
(591,540,o),
(619,573,o),
(620,573,c),
(625,575,o),
(638,578,o),
(642,582,c),
(647,587,o),
(638,598,o),
(634,602,c),
(621,619,o),
(609,637,o),
(600,655,c),
(597,663,o),
(596,678,o),
(607,677,c),
(629,675,o),
(653,675,o),
(675,675,c),
(680,674,o),
(740,678,o),
(753,682,c),
(772,685,o),
(822,685,o),
(830,681,c),
(842,673,o),
(850,687,o),
(847,700,c),
(845,711,o),
(839,720,o),
(832,725,c),
(821,733,o),
(822,743,o),
(809,748,c),
(800,751,o),
(796,741,o),
(790,738,c),
(781,730,o),
(748,705,o),
(740,700,c),
(735,697,o),
(630,697,o),
(610,698,c),
(590,698,o),
(570,701,o),
(548,697,c),
(537,694,o),
(413,694,o),
(399,694,c),
(372,695,o),
(346,695,o),
(320,696,c),
(304,695,o),
(211,692,o),
(180,689,c),
(172,689,o),
(165,690,o),
(159,691,c),
(156,691,o),
(155,689,o),
(155,687,c),
(159,676,o),
(163,658,o),
(175,658,c),
(205,658,o),
(383,672,o),
(404,671,c),
(415,671,o),
(508,670,o),
(525,672,c),
(542,673,o),
(559,672,o),
(577,667,c),
(578,667,o),
(583,657,o),
(583,657,c),
(576,649,o),
(570,638,o),
(567,627,c),
(565,623,o),
(563,618,o),
(561,615,c),
(553,608,o),
(537,578,o),
(535,575,c),
(524,561,o),
(517,546,o),
(506,531,c),
(505,529,o),
(502,529,o),
(500,531,c),
(465,560,l),
(463,562,o),
(450,541,o),
(451,541,c),
(457,534,o),
(489,507,o),
(487,496,c),
(486,488,o),
(481,481,o),
(475,474,c),
(466,465,o),
(452,451,o),
(449,441,c),
(447,436,o),
(351,329,o),
(345,322,c),
(322,301,o),
(228,215,o),
(198,189,c),
(197,188,o),
(162,157,o),
(160,155,c),
(151,147,o),
(139,139,o),
(128,130,c),
(122,126,o),
(108,117,o),
(113,107,c),
(114,107,o),
(131,116,o),
(141,121,c),
(143,124,o),
(170,139,o),
(175,143,c),
(191,156,o),
(208,169,o),
(226,179,c),
(232,183,o),
(271,219,o),
(281,226,c),
(304,240,o),
(325,258,o),
(345,274,c),
(364,291,o),
(406,327,o),
(409,330,c),
(415,333,o),
(440,356,o),
(448,364,c),
(460,379,o),
(484,406,o),
(488,411,c),
(490,412,o),
(490,370,o),
(489,367,c),
(494,273,o),
(494,193,o),
(497,124,c),
(498,113,o),
(490,47,o),
(490,25,c),
(490,16,o),
(419,18,o),
(405,17,c),
(392,14,o),
(368,14,o),
(335,13,c),
(312,13,o),
(287,12,o),
(264,11,c),
(253,10,o),
(32,16,o),
(2,7,c),
(1,7,o),
(-1,-39,o),
(8,-45,c),
(19,-53,o),
(99,-42,o),
(116,-41,c),
(135,-39,o),
(202,-39,o),
(218,-36,c),
(229,-34,o),
(238,-33,o),
(247,-33,c),
(267,-33,o),
(500,-29,o),
(509,-27,c),
(529,-25,o),
(634,-24,o),
(635,-23,c),
(656,-19,o),
(770,-21,o),
(817,-21,c),
(827,-21,o),
(844,-24,o),
(858,-22,c),
(866,-19,o),
(871,-18,o),
(879,-22,c),
(907,-34,o),
(956,-5,o),
(955,0,c),
(953,8,o),
(948,14,o),
(941,21,c)
);
}
);
width = 1000;
}
);
unicode = 19989;
},
{
glyphname = uni4E28;
lastChange = "2023-08-02 02:21:32 +0000";
layers = (
{
layerId = m01;
shapes = (
{
closed = 1;
nodes = (
(531,278,o),
(531,402,o),
(530,424,c),
(529,445,o),
(535,466,o),
(533,489,c),
(530,521,o),
(532,634,o),
(535,659,c),
(537,672,o),
(530,736,o),
(540,760,c),
(543,766,o),
(543,773,o),
(541,780,c),
(541,781,o),
(475,815,o),
(474,797,c),
(473,772,o),
(483,744,o),
(481,717,c),
(475,650,o),
(475,583,o),
(480,516,c),
(483,482,o),
(479,449,o),
(479,416,c),
(479,386,o),
(479,363,o),
(479,345,c),
(477,287,o),
(481,229,o),
(483,170,c),
(484,141,o),
(486,111,o),
(488,81,c),
(490,63,o),
(490,-40,o),
(487,-73,c),
(486,-92,o),
(483,-106,o),
(502,-115,c),
(514,-122,o),
(528,-114,o),
(536,-103,c),
(548,-85,o),
(540,127,o),
(536,167,c),
(532,198,o),
(539,228,o),
(534,259,c)
);
}
);
width = 1000;
}
);
unicode = 20008;
},
{
glyphname = uni4E2D;
lastChange = "2023-08-03 03:34:45 +0000";
layers = (
{
layerId = m01;
shapes = (
{
closed = 1;
nodes = (
(779,383,o),
(777,367,o),
(767,368,c),
(765,369,o),
(655,362,o),
(655,361,c),
(637,359,o),
(606,358,o),
(588,360,c),
(567,361,o),
(568,374,o),
(568,392,c),
(568,416,o),
(570,499,o),
(569,519,c),
(568,531,o),
(573,552,o),
(575,557,c),
(586,573,o),
(605,559,o),
(630,563,c),
(643,565,o),
(666,568,o),
(698,564,c),
(721,561,o),
(777,570,o),
(779,560,c),
(781,554,o),
(778,540,o),
(779,534,c),
(783,514,o),
(779,491,o),
(780,473,c),
(781,446,o),
(786,417,o),
(781,391,c)
);
},
{
closed = 1;
nodes = (
(451,356,o),
(374,355,o),
(363,355,c),
(353,355,o),
(341,355,o),
(331,356,c),
(279,356,o),
(248,360,o),
(241,364,c),
(222,376,o),
(232,400,o),
(229,422,c),
(228,429,o),
(230,437,o),
(229,443,c),
(229,467,o),
(228,492,o),
(231,516,c),
(234,540,o),
(234,553,o),
(259,560,c),
(274,565,o),
(319,567,o),
(334,566,c),
(347,565,o),
(402,568,o),
(409,565,c),
(410,565,o),
(411,565,o),
(411,565,c),
(411,565,o),
(449,570,o),
(456,565,c),
(467,556,o),
(462,403,o),
(459,356,c)
);
},
{
closed = 1;
nodes = (
(919,608,o),
(894,619,o),
(886,623,c),
(871,632,o),
(859,649,o),
(845,655,c),
(832,661,o),
(809,631,o),
(804,620,c),
(798,611,o),
(791,607,o),
(783,603,c),
(773,594,o),
(768,598,o),
(758,598,c),
(748,599,o),
(608,597,o),
(592,597,c),
(564,596,o),
(586,672,o),
(592,679,c),
(604,688,o),
(610,683,o),
(610,699,c),
(610,714,o),
(605,719,o),
(593,732,c),
(581,747,o),
(547,753,o),
(533,760,c),
(517,766,o),
(500,779,o),
(483,788,c),
(478,791,o),
(467,789,o),
(463,788,c),
(462,788,o),
(461,786,o),
(461,784,c),
(460,769,o),
(463,746,o),
(463,721,c),
(462,696,o),
(463,673,o),
(463,648,c),
(464,629,o),
(463,595,o),
(446,595,c),
(427,595,o),
(264,593,o),
(250,593,c),
(246,594,o),
(242,594,o),
(238,595,c),
(238,595,o),
(238,596,o),
(237,596,c),
(230,611,o),
(217,621,o),
(202,627,c),
(196,629,o),
(192,625,o),
(184,628,c),
(181,629,o),
(176,629,o),
(172,632,c),
(164,636,o),
(156,637,o),
(148,637,c),
(145,637,o),
(144,635,o),
(144,632,c),
(144,614,o),
(146,601,o),
(146,583,c),
(145,555,o),
(149,466,o),
(148,451,c),
(146,431,o),
(145,413,o),
(145,394,c),
(145,389,o),
(140,298,o),
(139,286,c),
(138,270,o),
(137,251,o),
(134,230,c),
(134,225,o),
(135,220,o),
(138,216,c),
(138,215,o),
(159,212,o),
(166,224,c),
(171,235,o),
(188,248,o),
(197,250,c),
(215,257,o),
(219,259,o),
(228,271,c),
(233,278,o),
(230,311,o),
(238,313,c),
(262,317,o),
(334,318,o),
(362,320,c),
(378,321,o),
(442,330,o),
(460,320,c),
(468,304,o),
(461,119,o),
(463,106,c),
(463,95,o),
(466,8,o),
(465,6,c),
(465,6,o),
(466,-23,o),
(463,-37,c),
(461,-42,o),
(463,-88,o),
(478,-109,c),
(488,-122,o),
(506,-116,o),
(512,-104,c),
(530,-82,o),
(553,-66,o),
(565,-42,c),
(574,-27,o),
(574,-11,o),
(573,4,c),
(570,26,o),
(569,53,o),
(567,82,c),
(564,124,o),
(568,168,o),
(565,211,c),
(563,235,o),
(564,256,o),
(567,277,c),
(568,287,o),
(564,312,o),
(572,318,c),
(578,327,o),
(612,320,o),
(628,322,c),
(652,325,o),
(816,327,o),
(842,326,c),
(852,325,o),
(858,321,o),
(867,318,c),
(875,312,o),
(883,317,o),
(886,324,c),
(892,336,o),
(897,348,o),
(892,361,c),
(886,377,o),
(884,394,o),
(884,411,c),
(884,444,o),
(883,480,o),
(878,515,c),
(876,529,o),
(895,536,o),
(899,543,c),
(904,552,o),
(910,560,o),
(918,566,c),
(919,578,l),
(921,589,o),
(921,598,o),
(920,602,c)
);
}
);
width = 1000;
}
);
unicode = 20013;
},
{
glyphname = uni4E36;
lastChange = "2023-08-02 03:11:09 +0000";
layers = (
{
layerId = m01;
shapes = (
{
closed = 1;
nodes = (
(598,396,o),
(591,402,o),
(581,409,c),
(555,426,o),
(529,445,o),
(503,465,c),
(498,469,o),
(493,473,o),
(487,474,c),
(446,484,o),
(407,489,o),
(366,500,c),
(354,500,o),
(342,504,o),
(331,511,c),
(328,513,o),
(326,509,o),
(327,504,c),
(330,495,o),
(334,486,o),
(339,478,c),
(348,460,o),
(365,445,o),
(378,432,c),
(388,423,o),
(402,406,o),
(423,379,c),
(425,377,o),
(427,375,o),
(429,374,c),
(460,326,o),
(493,287,o),
(518,229,c),
(525,215,o),
(532,205,o),
(540,192,c),
(567,156,o),
(596,164,o),
(625,167,c),
(628,167,o),
(629,169,o),
(629,171,c),
(630,184,o),
(631,196,o),
(633,208,c),
(647,271,o),
(653,331,o),
(604,389,c)
);
}
);
width = 1000;
}
);
unicode = 20022;
},
{
glyphname = uni4E4B;
lastChange = "2023-08-03 03:35:14 +0000";
layers = (
{
layerId = m01;
shapes = (
{
closed = 1;
nodes = (
(928,57,o),
(894,49,o),
(858,44,c),
(827,39,o),
(750,26,o),
(734,25,c),
(706,25,o),
(606,15,o),
(592,14,c),
(562,11,o),
(523,17,o),
(492,20,c),
(481,22,o),
(395,19,o),
(383,25,c),
(357,35,o),
(326,46,o),
(304,62,c),
(292,74,o),
(255,117,o),
(258,136,c),
(262,150,o),
(289,158,o),
(302,168,c),
(306,171,o),
(310,175,o),
(315,180,c),
(334,198,o),
(354,215,o),
(379,232,c),
(392,242,o),
(402,256,o),
(417,263,c),
(437,274,o),
(511,328,o),
(520,337,c),
(526,343,o),
(537,346,o),
(545,352,c),
(556,361,o),
(566,369,o),
(577,378,c),
(587,386,o),
(597,391,o),
(609,397,c),
(633,408,o),
(648,421,o),
(672,434,c),
(718,467,o),
(769,499,o),
(825,531,c),
(841,540,o),
(871,535,o),
(867,560,c),
(866,568,o),
(839,589,o),
(832,595,c),
(818,610,o),
(810,629,o),
(793,644,c),
(792,645,o),
(762,612,o),
(758,611,c),
(748,607,o),
(744,601,o),
(740,593,c),
(735,581,o),
(714,544,o),
(701,546,c),
(686,547,o),
(641,546,o),
(634,547,c),
(610,548,o),
(588,544,o),
(566,542,c),
(555,541,o),
(539,538,o),
(525,538,c),
(524,538,o),
(530,599,o),
(533,629,c),
(535,657,o),
(552,671,o),
(575,694,c),
(575,695,o),
(571,708,o),
(563,709,c),
(547,710,o),
(513,721,o),
(509,724,c),
(496,734,o),
(477,728,o),
(464,738,c),
(460,742,o),
(455,746,o),
(450,750,c),
(449,750,o),
(449,750,o),
(448,750,c),
(439,742,o),
(446,718,o),
(447,708,c),
(451,682,o),
(448,654,o),
(448,627,c),
(447,596,o),
(451,566,o),
(453,536,c),
(453,535,o),
(359,528,o),
(341,528,c),
(325,527,o),
(170,530,o),
(170,528,c),
(170,522,o),
(193,475,o),
(209,460,c),
(221,449,o),
(245,466,o),
(247,466,c),
(285,473,o),
(324,477,o),
(360,482,c),
(391,487,o),
(423,490,o),
(451,495,c),
(465,498,o),
(536,509,o),
(576,511,c),
(583,511,o),
(650,524,o),
(663,525,c),
(669,525,o),
(675,516,o),
(675,516,c),
(645,482,o),
(619,455,o),
(589,433,c),
(567,421,o),
(548,403,o),
(525,388,c),
(522,387,o),
(491,364,o),
(487,361,c),
(470,349,o),
(435,310,o),
(428,308,c),
(407,303,o),
(395,284,o),
(378,270,c),
(367,263,o),
(359,252,o),
(351,246,c),
(331,232,o),
(277,182,o),
(269,179,c),
(257,172,o),
(236,151,o),
(236,153,c),
(236,153,o),
(231,185,o),
(226,188,c),
(215,198,o),
(149,128,o),
(142,123,c),
(132,114,o),
(72,53,o),
(59,45,c),
(52,39,o),
(43,35,o),
(38,28,c),
(37,27,o),
(61,-2,o),
(72,-10,c),
(72,-11,o),
(80,-9,o),
(83,-7,c),
(117,26,o),
(152,58,o),
(185,94,c),
(193,100,o),
(203,106,o),
(215,111,c),
(225,115,o),
(234,122,o),
(241,107,c),
(248,94,o),
(253,78,o),
(263,66,c),
(273,55,o),
(283,44,o),
(293,32,c),
(317,8,o),
(344,-6,o),
(377,-25,c),
(410,-43,o),
(442,-58,o),
(477,-67,c),
(505,-77,o),
(533,-70,o),
(560,-81,c),
(573,-86,o),
(703,-86,o),
(752,-82,c),
(776,-80,o),
(803,-82,o),
(829,-78,c),
(844,-75,o),
(844,-66,o),
(851,-55,c),
(858,-46,o),
(863,-40,o),
(868,-29,c),
(878,-8,o),
(892,10,o),
(911,20,c),
(919,25,o),
(931,26,o),
(937,30,c),
(946,37,o),
(973,57,o),
(973,57,c),
(973,64,o),
(968,66,o),
(961,65,c)
);
}
);
width = 1000;
}
);
unicode = 20043;
},
{
glyphname = uni4E4E;
lastChange = "2023-08-02 03:05:06 +0000";
layers = (
{
layerId = m01;
shapes = (
{
closed = 1;
nodes = (
(270,633,o),
(309,641,o),
(370,659,c),
(400,664,o),
(430,673,o),
(462,677,c),
(472,678,o),
(483,682,o),
(494,685,c),
(520,693,o),
(543,695,o),
(572,696,c),
(602,699,o),
(637,709,o),
(642,745,c),
(646,763,o),
(613,785,o),
(599,793,c),
(598,793,o),
(598,793,o),
(597,793,c),
(580,793,o),
(552,781,o),
(539,768,c),
(535,764,o),
(531,762,o),
(528,760,c),
(510,753,o),
(496,743,o),
(480,736,c),
(457,728,o),
(436,718,o),
(414,710,c),
(402,708,o),
(394,704,o),
(385,699,c),
(371,693,o),
(358,688,o),
(344,683,c),
(324,674,o),
(300,670,o),
(282,659,c),
(274,656,o),
(269,659,o),
(263,659,c),
(256,658,o),
(249,654,o),
(243,653,c),
(230,650,o),
(208,644,o),
(202,636,c),
(201,635,o),
(201,635,o),
(202,634,c),
(208,630,o),
(213,625,o),
(221,626,c)
);
},
{
closed = 1;
nodes = (
(304,387,o),
(318,411,o),
(322,434,c),
(325,457,o),
(325,478,o),
(310,496,c),
(292,512,o),
(274,528,o),
(254,541,c),
(243,547,o),
(238,557,o),
(230,565,c),
(229,567,o),
(228,567,o),
(228,567,c),
(218,562,l),
(217,562,o),
(216,561,o),
(216,560,c),
(214,528,o),
(240,518,o),
(245,491,c),
(249,467,o),
(253,452,o),
(255,443,c),
(261,420,o),
(258,400,o),
(256,378,c),
(255,359,o),
(277,359,o),
(286,369,c)
);
},
{
closed = 1;
nodes = (
(977,421,o),
(926,451,o),
(906,462,c),
(894,467,o),
(887,472,o),
(878,464,c),
(872,457,o),
(865,448,o),
(859,437,c),
(855,429,o),
(846,418,o),
(834,402,c),
(830,399,o),
(824,397,o),
(821,397,c),
(803,397,o),
(784,394,o),
(765,387,c),
(760,385,o),
(756,385,o),
(752,385,c),
(718,385,o),
(686,384,o),
(654,382,c),
(638,381,o),
(625,379,o),
(611,376,c),
(607,375,o),
(604,375,o),
(601,377,c),
(600,377,o),
(600,377,o),
(600,378,c),
(608,396,o),
(619,405,o),
(635,422,c),
(637,423,o),
(638,423,o),
(639,426,c),
(639,427,o),
(639,427,o),
(640,427,c),
(644,429,o),
(646,431,o),
(647,436,c),
(648,437,o),
(648,437,o),
(649,437,c),
(651,437,o),
(652,438,o),
(652,440,c),
(652,440,o),
(652,441,o),
(653,441,c),
(670,447,l),
(670,447,o),
(671,448,o),
(671,449,c),
(672,450,l),
(672,451,o),
(672,452,o),
(673,452,c),
(677,455,o),
(681,474,o),
(681,478,c),
(681,478,o),
(682,478,o),
(682,478,c),
(683,479,l),
(683,479,o),
(683,479,o),
(683,479,c),
(684,483,o),
(685,484,o),
(688,485,c),
(702,491,o),
(704,498,o),
(708,509,c),
(710,516,o),
(714,522,o),
(717,528,c),
(724,536,o),
(740,542,o),
(743,553,c),
(743,557,o),
(742,559,o),
(740,561,c),
(728,572,o),
(675,614,o),
(660,613,c),
(660,613,o),
(659,612,o),
(658,611,c),
(652,603,o),
(648,580,o),
(646,570,c),
(640,541,o),
(630,510,o),
(619,484,c),
(607,458,o),
(602,429,o),
(587,401,c),
(586,399,o),
(584,396,o),
(584,392,c),
(579,367,o),
(557,369,o),
(539,377,c),
(537,377,o),
(537,378,o),
(537,379,c),
(534,401,o),
(532,423,o),
(528,446,c),
(525,466,o),
(526,484,o),
(526,504,c),
(526,532,o),
(522,562,o),
(520,589,c),
(519,605,o),
(507,601,o),
(499,606,c),
(485,617,o),
(469,623,o),
(452,621,c),
(432,620,o),
(448,573,o),
(449,561,c),
(452,539,o),
(451,511,o),
(451,497,c),
(451,455,o),
(451,414,o),
(448,371,c),
(446,362,l),
(446,360,o),
(445,360,o),
(443,360,c),
(435,365,o),
(426,365,o),
(417,363,c),
(399,362,o),
(383,360,o),
(365,358,c),
(335,354,o),
(301,347,o),
(268,342,c),
(258,340,o),
(248,340,o),
(240,341,c),
(220,343,o),
(203,335,o),
(184,332,c),
(150,326,o),
(114,324,o),
(79,326,c),
(76,327,o),
(72,326,o),
(68,325,c),
(46,318,o),
(28,320,o),
(7,321,c),
(4,321,o),
(1,318,o),
(2,314,c),
(7,291,o),
(22,282,o),
(45,284,c),
(85,289,o),
(124,292,o),
(165,300,c),
(217,309,o),
(270,310,o),
(322,318,c),
(358,324,o),
(397,320,o),
(430,334,c),
(434,333,o),
(436,333,o),
(438,335,c),
(439,335,o),
(441,335,o),
(441,334,c),
(446,307,l),
(446,296,o),
(447,287,o),
(448,279,c),
(454,241,o),
(457,204,o),
(457,165,c),
(457,148,o),
(465,124,o),
(463,103,c),
(462,87,o),
(457,67,o),
(455,54,c),
(453,40,o),
(454,21,o),
(439,18,c),
(419,13,o),
(392,17,o),
(374,8,c),
(372,8,o),
(371,7,o),
(371,5,c),
(370,-4,o),
(382,-9,o),
(391,-15,c),
(404,-23,o),
(416,-37,o),
(427,-48,c),
(435,-56,o),
(437,-62,o),
(436,-74,c),
(435,-88,o),
(443,-93,o),
(455,-98,c),
(465,-102,o),
(470,-100,o),
(477,-95,c),
(506,-72,o),
(526,-51,o),
(532,-16,c),
(539,17,o),
(544,49,o),
(549,81,c),
(553,97,o),
(551,115,o),
(552,131,c),
(552,139,o),
(552,145,o),
(551,154,c),
(549,168,o),
(549,185,o),
(547,201,c),
(544,223,o),
(543,247,o),
(543,271,c),
(543,284,o),
(541,293,o),
(537,307,c),
(535,317,o),
(534,328,o),
(535,342,c),
(535,345,o),
(539,347,o),
(541,347,c),
(603,345,o),
(666,353,o),
(729,356,c),
(747,358,o),
(766,356,o),
(785,353,c),
(815,349,o),
(845,358,o),
(874,360,c),
(906,363,o),
(928,355,o),
(956,354,c),
(978,353,o),
(988,377,o),
(983,395,c)
);
}
);
width = 1000;
}
);
unicode = 20046;
},
{
glyphname = uni4E8C;
lastChange = "2023-08-01 14:21:38 +0000";
layers = (
{
layerId = m01;
shapes = (
{
closed = 1;
nodes = (
(237,592,o),
(242,574,o),
(252,568,c),
(265,560,o),
(286,565,o),
(302,567,c),
(310,568,o),
(333,565,o),
(340,565,c),
(374,567,o),
(408,571,o),
(441,576,c),
(454,579,o),
(526,577,o),
(549,577,c),
(552,577,o),
(600,574,o),
(620,578,c),
(627,580,o),
(634,580,o),
(639,581,c),
(667,588,o),
(691,581,o),
(717,581,c),
(729,580,o),
(742,582,o),
(754,583,c),
(761,584,o),
(767,584,o),
(771,591,c),
(780,607,o),
(772,625,o),
(759,636,c),
(752,643,o),
(739,649,o),
(729,654,c),
(708,665,o),
(689,692,o),
(668,680,c),
(646,669,o),
(641,647,o),
(634,624,c),
(633,617,o),
(628,615,o),
(621,615,c),
(613,615,o),
(576,612,o),
(565,614,c),
(540,616,o),
(519,620,o),
(494,617,c),
(473,615,o),
(453,615,o),
(431,613,c),
(410,612,o),
(390,616,o),
(372,617,c),
(361,618,o),
(348,616,o),
(338,616,c),
(305,617,o),
(273,623,o),
(240,628,c),
(233,629,o),
(225,629,o),
(217,630,c),
(211,631,o),
(207,630,o),
(209,622,c),
(209,621,o),
(222,613,o),
(226,608,c)
);
},
{
closed = 1;
nodes = (
(920,136,o),
(898,155,o),
(898,156,c),
(890,168,o),
(885,188,o),
(869,188,c),
(860,188,o),
(854,173,o),
(851,171,c),
(834,156,o),
(816,147,o),
(803,129,c),
(798,122,o),
(803,111,o),
(792,111,c),
(782,112,o),
(700,109,o),
(695,109,c),
(658,109,o),
(471,101,o),
(458,100,c),
(442,98,o),
(387,92,o),
(374,91,c),
(340,87,o),
(305,86,o),
(269,85,c),
(260,85,o),
(251,84,o),
(242,83,c),
(205,77,o),
(183,79,o),
(155,81,c),
(147,82,o),
(127,82,o),
(118,82,c),
(109,82,o),
(91,86,o),
(83,84,c),
(81,84,o),
(34,85,o),
(31,84,c),
(30,83,o),
(25,77,o),
(25,76,c),
(25,65,o),
(68,21,o),
(69,21,c),
(79,15,o),
(93,26,o),
(109,26,c),
(147,25,o),
(172,32,o),
(210,34,c),
(222,35,o),
(235,37,o),
(248,39,c),
(278,44,o),
(296,45,o),
(328,47,c),
(329,47,o),
(344,46,o),
(348,47,c),
(366,47,o),
(418,56,o),
(419,56,c),
(434,59,o),
(452,62,o),
(471,66,c),
(474,67,o),
(515,66,o),
(520,67,c),
(532,69,o),
(544,67,o),
(554,67,c),
(572,68,o),
(591,68,o),
(609,69,c),
(626,70,o),
(649,75,o),
(666,70,c),
(680,67,o),
(689,71,o),
(702,72,c),
(715,74,o),
(762,81,o),
(776,79,c),
(802,75,o),
(828,73,o),
(854,74,c),
(865,74,o),
(879,76,o),
(891,77,c),
(898,77,o),
(907,76,o),
(918,75,c),
(930,74,o),
(961,68,o),
(968,77,c),
(982,96,o),
(944,125,o),
(929,132,c)
);
}
);
width = 1000;
}
);
unicode = 20108;
},
{
glyphname = uni4E94;
lastChange = "2023-08-02 05:22:08 +0000";
layers = (
{
layerId = m01;
shapes = (
{
closed = 1;
nodes = (
(611,311,o),
(606,305,o),
(606,295,c),
(606,280,o),
(608,265,o),
(607,249,c),
(605,232,o),
(606,223,o),
(609,207,c),
(610,201,o),
(611,194,o),
(609,186,c),
(608,179,o),
(606,171,o),
(605,163,c),
(605,162,o),
(603,144,o),
(603,140,c),
(603,132,o),
(603,122,o),
(603,113,c),
(600,81,o),
(599,61,o),
(599,52,c),
(599,48,o),
(597,35,o),
(597,32,c),
(596,24,o),
(597,10,o),
(594,7,c),
(594,6,o),
(516,-2,o),
(503,-2,c),
(492,-2,o),
(483,-4,o),
(474,-4,c),
(463,-3,o),
(453,-3,o),
(442,-4,c),
(435,-4,o),
(421,-3,o),
(416,1,c),
(406,9,o),
(409,29,o),
(411,40,c),
(418,73,o),
(425,106,o),
(428,140,c),
(431,158,o),
(433,176,o),
(435,193,c),
(437,210,o),
(439,232,o),
(442,251,c),
(445,276,o),
(457,300,o),
(482,311,c),
(495,316,o),
(531,328,o),
(536,329,c),
(557,330,o),
(572,329,o),
(591,332,c),
(600,334,o),
(611,337,o),
(613,337,c),
(617,337,o),
(614,322,o),
(613,321,c)
);
},
{
closed = 1;
nodes = (
(942,69,o),
(927,83,o),
(915,100,c),
(904,116,o),
(893,113,o),
(883,97,c),
(877,87,o),
(871,80,o),
(866,74,c),
(852,59,o),
(842,45,o),
(834,30,c),
(830,24,o),
(826,21,o),
(819,20,c),
(806,18,o),
(716,13,o),
(713,13,c),
(693,18,o),
(683,42,o),
(685,61,c),
(688,85,o),
(690,109,o),
(691,134,c),
(691,160,o),
(698,192,o),
(701,215,c),
(705,246,o),
(710,270,o),
(713,297,c),
(714,313,o),
(715,328,o),
(729,335,c),
(734,339,o),
(738,344,o),
(739,351,c),
(742,368,o),
(744,383,o),
(745,396,c),
(746,414,o),
(727,417,o),
(716,428,c),
(701,440,o),
(691,454,o),
(673,460,c),
(662,461,o),
(658,457,o),
(654,448,c),
(642,423,o),
(629,402,o),
(617,386,c),
(610,376,o),
(582,371,o),
(571,369,c),
(562,368,o),
(509,360,o),
(508,360,c),
(493,360,o),
(474,350,o),
(459,355,c),
(458,356,o),
(457,367,o),
(457,368,c),
(458,378,o),
(460,388,o),
(461,397,c),
(461,421,o),
(462,442,o),
(464,461,c),
(465,480,o),
(470,505,o),
(481,521,c),
(489,532,o),
(494,543,o),
(500,555,c),
(504,562,o),
(509,575,o),
(498,579,c),
(485,585,o),
(473,592,o),
(462,601,c),
(461,602,o),
(485,618,o),
(502,625,c),
(516,627,o),
(582,629,o),
(601,631,c),
(616,633,o),
(629,631,o),
(642,633,c),
(665,631,o),
(721,633,o),
(726,633,c),
(735,633,o),
(778,636,o),
(783,637,c),
(800,641,o),
(799,644,o),
(802,661,c),
(806,690,o),
(780,697,o),
(758,707,c),
(748,711,o),
(725,736,o),
(723,738,c),
(714,745,o),
(698,749,o),
(690,740,c),
(686,736,o),
(684,729,o),
(683,723,c),
(681,701,l),
(681,700,o),
(657,684,o),
(656,681,c),
(656,681,o),
(264,645,o),
(246,645,c),
(238,645,o),
(234,641,o),
(225,644,c),
(217,646,o),
(209,646,o),
(201,643,c),
(193,640,o),
(102,638,o),
(95,638,c),
(83,638,l),
(76,634,o),
(78,628,o),
(81,622,c),
(89,611,o),
(97,601,o),
(107,591,c),
(122,578,o),
(133,586,o),
(150,588,c),
(175,590,o),
(201,592,o),
(226,594,c),
(231,595,o),
(301,604,o),
(327,608,c),
(334,609,o),
(341,609,o),
(347,610,c),
(360,614,o),
(395,612,o),
(396,610,c),
(403,598,o),
(404,589,o),
(401,574,c),
(396,537,o),
(390,500,o),
(389,462,c),
(388,438,o),
(386,421,o),
(385,410,c),
(380,384,o),
(375,370,o),
(379,344,c),
(379,342,o),
(375,330,o),
(372,329,c),
(367,328,o),
(332,327,o),
(327,327,c),
(306,327,o),
(228,315,o),
(224,314,c),
(213,313,o),
(204,310,o),
(194,309,c),
(188,309,o),
(184,308,o),
(182,307,c),
(172,303,o),
(166,292,o),
(176,285,c),
(184,278,o),
(198,275,o),
(208,268,c),
(216,263,o),
(223,258,o),
(232,256,c),
(244,254,o),
(258,258,o),
(270,262,c),
(286,267,o),
(300,270,o),
(315,273,c),
(329,276,o),
(343,275,o),
(357,279,c),
(367,282,o),
(369,277,o),
(369,269,c),
(370,254,o),
(357,178,o),
(356,156,c),
(356,149,o),
(347,72,o),
(346,44,c),
(346,25,o),
(341,13,o),
(335,-5,c),
(329,-25,o),
(314,-19,o),
(299,-20,c),
(285,-18,o),
(272,-21,o),
(258,-23,c),
(255,-23,o),
(65,-26,o),
(29,-22,c),
(25,-21,o),
(20,-22,o),
(15,-21,c),
(14,-21,o),
(14,-21,o),
(13,-22,c),
(12,-23,o),
(10,-25,o),
(9,-27,c),
(9,-27,o),
(9,-28,o),
(9,-29,c),
(10,-37,o),
(13,-43,o),
(19,-47,c),
(31,-55,o),
(44,-60,o),
(57,-67,c),
(61,-69,o),
(69,-72,o),
(74,-72,c),
(97,-72,o),
(121,-66,o),
(143,-62,c),
(155,-60,o),
(300,-50,o),
(313,-48,c),
(328,-47,o),
(343,-46,o),
(358,-44,c),
(368,-42,o),
(505,-33,o),
(534,-31,c),
(550,-30,o),
(686,-18,o),
(703,-20,c),
(712,-22,o),
(771,-21,o),
(793,-20,c),
(819,-20,o),
(845,-22,o),
(871,-21,c),
(879,-21,o),
(926,-18,o),
(938,-21,c),
(948,-24,o),
(958,-24,o),
(967,-22,c),
(983,-18,o),
(986,8,o),
(986,22,c),
(985,42,o),
(976,50,o),
(960,59,c)
);
}
);
width = 1000;
}
);
unicode = 20116;
},
{
glyphname = uni4EA8;
lastChange = "2023-08-02 02:19:26 +0000";
layers = (
{
layerId = m01;
shapes = (
{
closed = 1;
nodes = (
(942,708,o),
(932,716,o),
(924,724,c),
(921,728,o),
(918,731,o),
(915,732,c),
(908,734,o),
(887,739,o),
(884,730,c),
(874,705,o),
(848,664,o),
(817,671,c),
(803,674,o),
(751,667,o),
(729,670,c),
(722,670,o),
(656,671,o),
(646,668,c),
(634,664,o),
(616,669,o),
(602,668,c),
(592,668,o),
(584,700,o),
(602,712,c),
(607,716,o),
(611,742,o),
(615,749,c),
(617,755,o),
(617,759,o),
(611,761,c),
(569,776,o),
(528,792,o),
(489,811,c),
(484,814,o),
(481,818,o),
(475,817,c),
(474,817,o),
(474,816,o),
(474,815,c),
(470,778,o),
(478,739,o),
(478,694,c),
(478,676,o),
(474,668,o),
(454,666,c),
(411,660,o),
(373,658,o),
(331,659,c),
(312,660,o),
(294,659,o),
(276,659,c),
(261,658,o),
(197,655,o),
(178,656,c),
(155,658,o),
(101,650,o),
(96,650,c),
(86,650,o),
(77,650,o),
(68,651,c),
(59,654,o),
(50,652,o),
(40,652,c),
(38,651,o),
(38,651,o),
(40,650,c),
(40,649,l),
(41,649,o),
(51,621,o),
(51,621,c),
(59,612,o),
(59,606,o),
(73,606,c),
(73,606,o),
(114,613,o),
(131,608,c),
(132,608,o),
(159,617,o),
(173,613,c),
(173,613,o),
(174,613,o),
(175,613,c),
(188,619,o),
(255,622,o),
(272,622,c),
(301,622,o),
(341,623,o),
(379,627,c),
(387,629,o),
(393,629,o),
(400,629,c),
(430,629,o),
(459,631,o),
(492,636,c),
(510,639,o),
(529,635,o),
(547,636,c),
(568,636,o),
(587,636,o),
(606,638,c),
(618,639,o),
(630,642,o),
(644,642,c),
(667,640,o),
(688,642,o),
(709,645,c),
(740,648,o),
(772,644,o),
(804,646,c),
(827,648,o),
(848,648,o),
(871,650,c),
(881,651,o),
(892,647,o),
(900,647,c),
(910,648,o),
(918,648,o),
(925,650,c),
(933,654,o),
(943,656,o),
(949,658,c),
(953,658,o),
(954,660,o),
(954,663,c),
(954,684,l),
(954,684,o),
(953,703,o),
(951,703,c)
);
},
{
closed = 1;
nodes = (
(429,519,o),
(468,524,o),
(512,526,c),
(537,527,o),
(560,531,o),
(587,531,c),
(596,531,o),
(607,532,o),
(617,532,c),
(630,533,o),
(645,533,o),
(659,532,c),
(668,532,o),
(671,527,o),
(672,520,c),
(676,496,o),
(678,478,o),
(680,468,c),
(682,461,o),
(680,458,o),
(672,459,c),
(658,462,o),
(643,466,o),
(630,463,c),
(610,456,o),
(587,450,o),
(567,450,c),
(566,450,o),
(566,451,o),
(565,451,c),
(555,456,o),
(548,456,o),
(538,454,c),
(525,451,o),
(512,449,o),
(500,449,c),
(480,450,o),
(459,448,o),
(442,443,c),
(429,440,o),
(400,432,o),
(392,443,c),
(384,453,o),
(381,486,o),
(379,499,c),
(379,505,o),
(381,509,o),
(387,511,c)
);
},
{
closed = 1;
nodes = (
(817,346,o),
(813,349,o),
(812,352,c),
(809,362,o),
(805,369,o),
(794,375,c),
(782,381,o),
(755,403,o),
(741,393,c),
(723,382,o),
(719,367,o),
(715,350,c),
(714,348,o),
(711,346,o),
(709,346,c),
(688,352,o),
(660,348,o),
(640,345,c),
(626,343,o),
(613,343,o),
(599,342,c),
(588,341,o),
(579,340,o),
(569,340,c),
(531,341,o),
(494,337,o),
(455,340,c),
(442,340,o),
(425,340,o),
(407,337,c),
(390,334,o),
(373,329,o),
(357,338,c),
(356,339,o),
(355,338,o),
(355,338,c),
(353,337,o),
(358,342,o),
(358,342,c),
(375,361,o),
(382,409,o),
(383,409,c),
(386,410,o),
(388,411,o),
(391,411,c),
(412,413,o),
(432,414,o),
(452,416,c),
(478,418,o),
(512,417,o),
(541,422,c),
(551,423,o),
(596,426,o),
(621,424,c),
(635,422,o),
(681,423,o),
(688,426,c),
(707,434,o),
(724,437,o),
(746,434,c),
(758,431,o),
(790,429,o),
(798,437,c),
(799,437,o),
(799,438,o),
(799,439,c),
(804,458,o),
(789,488,o),
(793,491,c),
(811,503,o),
(821,522,o),
(823,546,c),
(823,548,o),
(822,550,o),
(820,551,c),
(803,563,o),
(785,573,o),
(766,587,c),
(753,598,o),
(737,609,o),
(721,620,c),
(719,621,o),
(717,620,o),
(716,618,c),
(708,605,o),
(698,593,o),
(689,582,c),
(684,576,o),
(678,574,o),
(673,570,c),
(657,559,o),
(641,554,o),
(621,554,c),
(596,553,o),
(571,556,o),
(548,554,c),
(515,552,o),
(486,549,o),
(449,546,c),
(427,544,o),
(407,540,o),
(387,536,c),
(378,550,o),
(374,562,o),
(354,566,c),
(341,569,o),
(329,571,o),
(318,572,c),
(315,572,o),
(312,571,o),
(310,571,c),
(306,572,o),
(304,569,o),
(304,565,c),
(305,550,o),
(304,534,o),
(306,519,c),
(308,495,o),
(311,470,o),
(312,446,c),
(313,432,o),
(318,413,o),
(316,400,c),
(315,389,o),
(313,380,o),
(315,370,c),
(316,358,o),
(317,346,o),
(316,336,c),
(316,333,o),
(245,333,o),
(213,337,c),
(209,337,o),
(204,339,o),
(200,340,c),
(190,341,l),
(189,341,o),
(188,341,o),
(188,340,c),
(181,327,o),
(204,311,o),
(211,304,c),
(212,304,o),
(212,303,o),
(213,302,c),
(216,292,o),
(219,271,o),
(236,276,c),
(247,279,o),
(261,287,o),
(272,288,c),
(285,289,o),
(333,287,o),
(338,287,c),
(353,289,o),
(369,293,o),
(386,294,c),
(418,296,o),
(451,303,o),
(482,305,c),
(519,308,o),
(556,314,o),
(593,316,c),
(608,317,o),
(659,334,o),
(669,317,c),
(673,306,o),
(670,299,o),
(659,293,c),
(650,288,o),
(634,278,o),
(613,264,c),
(606,259,o),
(601,257,o),
(594,255,c),
(593,255,o),
(552,259,o),
(552,258,c),
(551,233,o),
(556,205,o),
(557,185,c),
(558,169,o),
(558,153,o),
(559,136,c),
(560,107,o),
(567,74,o),
(565,43,c),
(565,36,o),
(567,21,o),
(565,15,c),
(558,2,o),
(546,-26,o),
(546,-26,c),
(522,-29,o),
(501,-36,o),
(478,-44,c),
(469,-49,o),
(472,-60,o),
(481,-63,c),
(509,-71,o),
(529,-78,o),
(544,-105,c),
(550,-115,o),
(556,-141,o),
(557,-141,c),
(581,-160,o),
(602,-142,o),
(614,-123,c),
(620,-113,o),
(622,-101,o),
(627,-91,c),
(633,-78,o),
(643,-76,o),
(647,-59,c),
(651,-39,o),
(663,-23,o),
(660,-3,c),
(658,20,o),
(656,43,o),
(656,66,c),
(655,92,o),
(654,178,o),
(667,187,c),
(704,217,o),
(658,227,o),
(639,233,c),
(636,233,o),
(635,235,o),
(634,238,c),
(634,241,o),
(702,266,o),
(731,272,c),
(756,277,o),
(780,277,o),
(804,285,c),
(818,291,o),
(832,294,o),
(847,300,c),
(849,300,o),
(850,302,o),
(850,304,c),
(852,315,o),
(852,327,o),
(848,338,c),
(842,345,o),
(831,349,o),
(820,348,c)
);
}
);
width = 1000;
}
);
unicode = 20136;
},
{
glyphname = uni4EE3;
lastChange = "2023-08-04 02:14:16 +0000";
layers = (
{
layerId = m01;
shapes = (
{
closed = 1;
nodes = (
(961,128,o),
(960,153,o),
(967,179,c),
(969,185,o),
(981,203,o),
(974,207,c),
(959,219,o),
(904,124,o),
(885,104,c),
(880,97,o),
(870,91,o),
(865,94,c),
(850,102,o),
(837,112,o),
(824,123,c),
(799,145,o),
(750,221,o),
(733,249,c),
(726,258,o),
(685,340,o),
(679,357,c),
(675,364,o),
(665,395,o),
(664,403,c),
(663,418,o),
(658,445,o),
(679,448,c),
(681,448,o),
(919,460,o),
(923,462,c),
(931,467,o),
(927,491,o),
(923,494,c),
(916,501,o),
(878,499,o),
(875,499,c),
(854,501,o),
(855,622,o),
(854,640,c),
(853,667,o),
(814,696,o),
(784,697,c),
(779,697,o),
(760,703,o),
(753,704,c),
(749,705,o),
(733,717,o),
(730,715,c),
(723,710,o),
(725,701,o),
(731,694,c),
(747,669,o),
(756,643,o),
(767,613,c),
(772,598,o),
(777,582,o),
(780,566,c),
(792,504,o),
(838,513,o),
(828,498,c),
(814,481,o),
(655,477,o),
(655,477,c),
(647,508,o),
(659,695,o),
(662,696,c),
(671,702,o),
(675,712,o),
(684,723,c),
(697,742,o),
(685,756,o),
(674,773,c),
(674,775,o),
(636,777,o),
(622,785,c),
(606,793,o),
(587,800,o),
(569,793,c),
(567,793,o),
(564,764,o),
(564,754,c),
(565,729,o),
(566,703,o),
(566,678,c),
(566,666,o),
(571,605,o),
(574,588,c),
(575,581,o),
(576,567,o),
(577,545,c),
(577,527,o),
(573,484,o),
(573,482,c),
(569,475,o),
(556,471,o),
(547,471,c),
(521,471,o),
(411,469,o),
(409,469,c),
(401,470,o),
(395,471,o),
(387,467,c),
(387,467,o),
(391,449,o),
(391,447,c),
(391,443,o),
(393,433,o),
(393,433,c),
(398,430,o),
(403,429,o),
(409,431,c),
(415,434,o),
(531,438,o),
(544,438,c),
(545,438,o),
(577,438,o),
(579,437,c),
(584,410,o),
(587,390,o),
(589,361,c),
(591,335,o),
(598,316,o),
(605,290,c),
(612,266,o),
(659,170,o),
(665,157,c),
(682,113,o),
(731,45,o),
(761,16,c),
(764,11,o),
(843,-35,o),
(886,-58,c),
(899,-64,o),
(930,-64,o),
(948,-60,c),
(954,-59,o),
(957,-56,o),
(957,-47,c),
(957,-12,o),
(954,22,o),
(951,53,c),
(950,61,o),
(952,95,o),
(953,102,c)
);
},
{
closed = 1;
nodes = (
(385,596,o),
(408,611,o),
(404,629,c),
(400,657,o),
(370,696,o),
(345,708,c),
(343,708,o),
(343,708,o),
(342,708,c),
(326,697,o),
(313,664,o),
(306,644,c),
(300,624,o),
(197,424,o),
(183,391,c),
(177,378,o),
(89,221,o),
(80,212,c),
(71,200,o),
(22,124,o),
(19,121,c),
(17,116,o),
(9,109,o),
(17,104,c),
(21,100,o),
(45,122,o),
(52,130,c),
(65,149,o),
(86,166,o),
(97,179,c),
(101,185,o),
(167,280,o),
(173,286,c),
(177,290,o),
(208,331,o),
(227,356,c),
(236,368,o),
(253,372,o),
(258,354,c),
(260,345,o),
(264,304,o),
(263,293,c),
(263,283,o),
(273,67,o),
(273,60,c),
(272,21,o),
(272,-18,o),
(266,-56,c),
(264,-68,o),
(260,-79,o),
(255,-89,c),
(248,-103,o),
(267,-114,o),
(279,-114,c),
(286,-114,o),
(294,-111,o),
(301,-109,c),
(319,-102,o),
(328,-90,o),
(334,-72,c),
(341,-46,o),
(353,-22,o),
(349,4,c),
(346,32,o),
(343,55,o),
(342,83,c),
(340,119,o),
(338,228,o),
(336,247,c),
(335,277,o),
(339,440,o),
(338,463,c),
(336,482,o),
(339,501,o),
(338,520,c),
(338,526,o),
(366,567,o),
(376,582,c)
);
}
);
width = 1000;
}
);
unicode = 20195;
},
{
glyphname = uni50B3;
lastChange = "2023-08-03 14:10:30 +0000";
layers = (
{
layerId = m01;
shapes = (
{
closed = 1;
nodes = (
(554,272,o),
(505,269,o),
(489,268,c),
(478,266,o),
(479,327,o),
(484,330,c),
(494,335,o),
(571,345,o),
(573,336,c),
(574,331,o),
(582,273,o),
(566,272,c)
);
},
{
closed = 1;
nodes = (
(472,418,o),
(498,416,o),
(508,419,c),
(518,422,o),
(554,421,o),
(562,421,c),
(571,421,o),
(570,392,o),
(571,385,c),
(573,370,o),
(554,368,o),
(554,368,c),
(541,370,o),
(529,367,o),
(516,364,c),
(505,363,o),
(483,363,o),
(481,363,c),
(469,363,o),
(472,392,o),
(472,400,c)
);
},
{
closed = 1;
nodes = (
(549,498,l),
(554,499,o),
(559,498,o),
(559,491,c),
(561,487,o),
(566,466,o),
(566,451,c),
(566,450,o),
(561,444,o),
(559,444,c),
(545,440,o),
(472,425,o),
(472,447,c),
(472,462,o),
(461,495,o),
(479,490,c)
);
},
{
closed = 1;
nodes = (
(626,421,l),
(624,423,o),
(638,432,o),
(650,429,c),
(679,422,o),
(723,436,o),
(733,430,c),
(737,425,o),
(741,397,o),
(735,382,c),
(733,372,o),
(626,372,o),
(626,372,c)
);
},
{
closed = 1;
nodes = (
(654,516,o),
(687,519,o),
(715,519,c),
(718,519,o),
(722,520,o),
(726,519,c),
(727,519,o),
(727,517,o),
(727,517,c),
(730,505,o),
(727,493,o),
(730,479,c),
(730,457,o),
(722,450,o),
(700,450,c),
(690,448,o),
(626,448,o),
(628,454,c),
(628,464,o),
(628,473,o),
(626,483,c),
(626,494,o),
(618,499,o),
(626,512,c)
);
},
{
closed = 1;
nodes = (
(949,288,o),
(949,291,o),
(942,292,c),
(931,295,o),
(916,299,o),
(904,297,c),
(891,294,o),
(882,290,o),
(872,281,c),
(869,280,o),
(655,272,o),
(640,279,c),
(625,284,o),
(631,328,o),
(629,345,c),
(629,345,o),
(715,353,o),
(741,353,c),
(741,348,o),
(742,326,o),
(742,323,c),
(744,313,o),
(738,292,o),
(744,287,c),
(751,276,o),
(770,283,o),
(778,288,c),
(791,295,o),
(791,302,o),
(799,316,c),
(805,323,o),
(809,339,o),
(806,348,c),
(803,356,o),
(802,390,o),
(803,393,c),
(806,406,o),
(803,421,o),
(803,429,c),
(803,444,o),
(805,458,o),
(802,473,c),
(800,483,o),
(809,505,o),
(811,505,c),
(824,509,o),
(824,532,o),
(824,532,c),
(796,557,o),
(762,582,o),
(734,539,c),
(706,539,o),
(625,527,o),
(625,538,c),
(622,558,o),
(622,567,o),
(626,582,c),
(633,601,o),
(657,601,o),
(675,600,c),
(694,599,o),
(868,618,o),
(880,612,c),
(889,608,o),
(904,615,o),
(911,619,c),
(919,625,o),
(908,633,o),
(905,637,c),
(887,648,o),
(851,674,o),
(851,674,c),
(844,669,o),
(840,663,o),
(832,657,c),
(822,651,o),
(817,644,o),
(812,637,c),
(811,637,o),
(629,626,o),
(628,626,c),
(617,629,o),
(618,650,o),
(625,657,c),
(629,667,o),
(639,689,o),
(636,699,c),
(632,720,o),
(618,728,o),
(603,739,c),
(596,746,o),
(584,738,o),
(581,745,c),
(573,757,o),
(552,756,o),
(548,751,c),
(540,742,o),
(547,732,o),
(548,725,c),
(554,702,o),
(559,651,o),
(552,632,c),
(548,622,o),
(403,619,o),
(384,632,c),
(362,648,o),
(387,654,o),
(392,667,c),
(395,676,o),
(400,684,o),
(403,694,c),
(404,695,o),
(403,696,o),
(403,698,c),
(388,708,o),
(377,720,o),
(366,732,c),
(358,742,o),
(347,749,o),
(332,749,c),
(330,749,o),
(311,686,o),
(301,657,c),
(297,644,o),
(268,572,o),
(257,550,c),
(246,528,o),
(236,499,o),
(224,480,c),
(202,447,o),
(181,411,o),
(159,377,c),
(138,349,o),
(97,287,o),
(97,287,c),
(74,246,o),
(50,220,o),
(23,188,c),
(17,179,o),
(2,163,o),
(12,163,c),
(24,163,o),
(37,175,o),
(41,181,c),
(56,199,o),
(72,214,o),
(85,230,c),
(97,246,o),
(111,262,o),
(123,279,c),
(143,301,o),
(163,331,o),
(185,357,c),
(201,377,o),
(249,432,o),
(253,445,c),
(256,454,o),
(271,452,o),
(271,447,c),
(272,432,o),
(260,-5,o),
(265,-21,c),
(267,-30,o),
(286,-36,o),
(294,-23,c),
(303,-9,o),
(314,4,o),
(320,22,c),
(326,40,o),
(314,51,o),
(315,76,c),
(315,80,o),
(330,536,o),
(330,536,c),
(319,550,o),
(362,616,o),
(362,612,c),
(365,603,o),
(363,596,o),
(373,590,c),
(374,589,o),
(374,589,o),
(375,589,c),
(387,593,o),
(414,599,o),
(425,593,c),
(435,589,o),
(552,609,o),
(554,592,c),
(555,582,o),
(554,567,o),
(555,557,c),
(558,546,o),
(558,535,o),
(559,525,c),
(561,520,o),
(493,520,o),
(474,517,c),
(462,516,o),
(462,535,o),
(461,542,c),
(460,543,o),
(438,549,o),
(428,554,c),
(404,563,o),
(420,462,o),
(424,447,c),
(428,437,o),
(428,328,o),
(429,327,c),
(432,288,l),
(432,286,o),
(438,266,o),
(432,265,c),
(413,257,o),
(380,264,o),
(358,261,c),
(347,259,o),
(344,251,o),
(347,237,c),
(351,218,o),
(349,229,o),
(367,228,c),
(384,226,o),
(668,242,o),
(684,240,c),
(708,239,o),
(725,249,o),
(733,215,c),
(734,206,o),
(734,182,o),
(733,160,c),
(731,142,o),
(645,156,o),
(625,153,c),
(624,153,o),
(610,142,o),
(610,142,c),
(596,152,o),
(581,159,o),
(569,171,c),
(558,178,o),
(547,185,o),
(541,196,c),
(538,201,o),
(525,199,o),
(527,191,c),
(532,184,o),
(537,162,o),
(538,157,c),
(540,150,o),
(577,51,o),
(578,50,c),
(593,37,o),
(602,29,o),
(621,44,c),
(631,51,o),
(642,57,o),
(654,63,c),
(658,65,o),
(660,69,o),
(657,72,c),
(648,92,o),
(642,104,o),
(639,109,c),
(636,120,o),
(640,130,o),
(653,126,c),
(662,121,o),
(735,126,o),
(735,126,c),
(738,111,o),
(734,28,o),
(726,22,c),
(718,14,o),
(705,21,o),
(693,20,c),
(682,18,o),
(653,15,o),
(664,11,c),
(664,10,o),
(687,4,o),
(697,0,c),
(708,-4,o),
(722,-11,o),
(722,-23,c),
(722,-33,o),
(722,-40,o),
(723,-47,c),
(726,-56,o),
(737,-59,o),
(744,-52,c),
(755,-38,o),
(767,-23,o),
(776,-8,c),
(781,2,o),
(781,4,o),
(785,15,c),
(791,40,o),
(799,73,o),
(796,99,c),
(793,111,o),
(792,126,o),
(796,131,c),
(803,141,o),
(879,138,o),
(901,141,c),
(911,141,o),
(921,141,o),
(931,141,c),
(934,141,o),
(942,142,o),
(942,142,c),
(944,149,o),
(945,163,o),
(938,167,c),
(928,174,o),
(911,186,o),
(899,189,c),
(880,193,o),
(873,172,o),
(866,159,c),
(864,159,o),
(819,159,o),
(798,157,c),
(795,157,o),
(793,171,o),
(793,174,c),
(793,193,o),
(796,199,o),
(798,220,c),
(798,230,o),
(799,247,o),
(807,247,c),
(848,247,o),
(913,254,o),
(955,254,c),
(963,254,o),
(962,275,o),
(953,284,c)
);
}
);
width = 1000;
}
);
unicode = 20659;
},
{
glyphname = uni51B2;
lastChange = "2023-08-03 03:19:11 +0000";
layers = (
{
layerId = m01;
shapes = (
{
closed = 1;
nodes = (
(152,615,o),
(171,562,o),
(174,558,c),
(185,545,o),
(203,538,o),
(219,545,c),
(227,548,o),
(264,616,o),
(266,638,c),
(267,646,o),
(263,651,o),
(257,654,c),
(222,670,o),
(195,698,o),
(158,719,c),
(135,732,o),
(113,747,o),
(91,762,c),
(87,765,o),
(80,767,o),
(69,769,c),
(59,771,o),
(54,762,o),
(61,754,c),
(76,735,o),
(93,715,o),
(107,694,c),
(118,674,o),
(130,653,o),
(142,632,c)
);
},
{
closed = 1;
nodes = (
(784,391,o),
(672,380,o),
(662,382,c),
(648,385,o),
(656,416,o),
(655,426,c),
(652,458,o),
(650,538,o),
(649,550,c),
(645,569,o),
(657,588,o),
(673,585,c),
(686,582,o),
(772,589,o),
(780,589,c),
(785,589,o),
(789,585,o),
(790,579,c),
(795,550,o),
(794,422,o),
(784,392,c)
);
},
{
closed = 1;
nodes = (
(555,368,o),
(555,368,o),
(554,368,c),
(520,374,o),
(436,363,o),
(431,363,c),
(422,362,o),
(418,366,o),
(418,375,c),
(418,397,o),
(419,479,o),
(419,492,c),
(420,517,o),
(421,543,o),
(422,568,c),
(423,576,o),
(426,574,o),
(432,575,c),
(442,576,o),
(498,585,o),
(514,583,c),
(533,580,o),
(559,576,o),
(562,552,c),
(564,530,o),
(566,400,o),
(566,383,c),
(567,376,o),
(564,371,o),
(556,368,c)
);
},
{
closed = 1;
nodes = (
(902,639,o),
(883,656,o),
(865,671,c),
(850,683,o),
(833,686,o),
(814,679,c),
(810,678,o),
(804,663,o),
(800,653,c),
(796,644,o),
(792,642,o),
(783,640,c),
(773,638,o),
(690,627,o),
(678,630,c),
(665,634,o),
(655,638,o),
(652,652,c),
(647,678,o),
(665,758,o),
(667,773,c),
(667,780,o),
(628,793,o),
(613,795,c),
(594,797,o),
(570,823,o),
(554,814,c),
(551,813,o),
(547,807,o),
(547,806,c),
(543,797,o),
(552,700,o),
(552,689,c),
(553,671,o),
(553,655,o),
(553,637,c),
(553,624,o),
(538,619,o),
(527,620,c),
(513,620,o),
(422,611,o),
(404,624,c),
(403,625,o),
(339,652,o),
(331,639,c),
(329,637,o),
(338,472,o),
(337,472,c),
(337,472,o),
(329,464,o),
(328,464,c),
(321,462,o),
(285,437,o),
(276,423,c),
(276,423,o),
(236,380,o),
(236,380,c),
(225,369,o),
(95,283,o),
(89,277,c),
(88,277,o),
(88,276,o),
(88,275,c),
(89,258,o),
(92,180,o),
(111,172,c),
(130,162,o),
(150,164,o),
(166,178,c),
(178,186,o),
(236,303,o),
(239,308,c),
(258,330,o),
(335,433,o),
(336,432,c),
(346,426,o),
(333,266,o),
(335,256,c),
(338,236,o),
(347,206,o),
(377,207,c),
(378,207,o),
(379,207,o),
(379,208,c),
(397,224,o),
(410,245,o),
(419,268,c),
(419,269,o),
(411,315,o),
(429,323,c),
(430,323,o),
(489,331,o),
(522,322,c),
(540,317,o),
(557,331,o),
(562,311,c),
(564,302,o),
(562,105,o),
(555,74,c),
(556,66,o),
(549,-95,o),
(551,-103,c),
(560,-134,o),
(594,-133,o),
(603,-132,c),
(635,-127,o),
(650,-80,o),
(660,-47,c),
(663,-37,o),
(658,41,o),
(660,71,c),
(660,84,o),
(663,220,o),
(660,246,c),
(659,264,o),
(652,309,o),
(662,329,c),
(670,344,o),
(787,339,o),
(789,339,c),
(802,338,o),
(890,344,o),
(892,345,c),
(893,345,o),
(889,397,o),
(889,422,c),
(887,464,o),
(892,506,o),
(890,548,c),
(889,558,o),
(893,569,o),
(903,573,c),
(913,577,o),
(932,588,o),
(935,601,c),
(937,610,o),
(931,619,o),
(924,624,c)
);
}
);
width = 1000;
}
);
unicode = 20914;
},
{
glyphname = uni51FA;
lastChange = "2023-08-02 16:42:52 +0000";
layers = (
{
layerId = m01;
shapes = (
{
closed = 1;
nodes = (
(881,222,o),
(896,241,o),
(877,251,c),
(864,259,o),
(852,266,o),
(840,276,c),
(831,281,o),
(826,286,o),
(821,288,c),
(813,292,o),
(770,306,o),
(771,287,c),
(773,262,o),
(773,243,o),
(772,217,c),
(770,195,o),
(774,140,o),
(773,135,c),
(771,120,o),
(768,77,o),
(763,69,c),
(750,52,o),
(730,34,o),
(704,37,c),
(686,39,o),
(550,33,o),
(547,34,c),
(536,37,o),
(539,59,o),
(539,66,c),
(539,81,o),
(538,98,o),
(536,113,c),
(535,125,o),
(535,203,o),
(537,214,c),
(539,232,o),
(537,272,o),
(537,276,c),
(537,286,o),
(535,294,o),
(535,304,c),
(534,315,o),
(529,386,o),
(531,394,c),
(539,407,l),
(552,409,o),
(664,411,o),
(680,415,c),
(709,424,o),
(719,385,o),
(717,363,c),
(717,351,o),
(713,314,o),
(732,318,c),
(762,324,o),
(791,369,o),
(792,369,c),
(800,370,o),
(819,370,o),
(818,380,c),
(814,413,o),
(817,443,o),
(819,476,c),
(819,491,o),
(817,506,o),
(816,521,c),
(816,521,o),
(819,604,o),
(823,605,c),
(824,605,o),
(825,605,o),
(825,605,c),
(828,609,o),
(832,610,o),
(834,613,c),
(840,617,o),
(844,623,o),
(842,629,c),
(840,642,o),
(819,658,o),
(807,664,c),
(804,666,o),
(798,668,o),
(790,670,c),
(776,675,o),
(743,691,o),
(741,691,c),
(729,692,o),
(720,675,o),
(719,665,c),
(719,662,o),
(720,654,o),
(722,640,c),
(724,621,o),
(720,507,o),
(719,477,c),
(719,468,o),
(720,455,o),
(718,444,c),
(718,442,o),
(604,437,o),
(586,434,c),
(575,433,o),
(544,433,o),
(539,434,c),
(520,440,o),
(537,624,o),
(537,643,c),
(536,655,o),
(533,730,o),
(537,735,c),
(549,749,o),
(552,755,o),
(561,763,c),
(566,769,o),
(563,783,o),
(553,785,c),
(533,788,o),
(512,791,o),
(491,793,c),
(475,796,o),
(457,801,o),
(442,799,c),
(439,798,o),
(442,785,o),
(442,779,c),
(443,765,o),
(453,433,o),
(452,431,c),
(443,423,o),
(294,422,o),
(291,422,c),
(279,420,o),
(278,427,o),
(276,438,c),
(270,460,o),
(274,479,o),
(276,501,c),
(277,510,o),
(275,547,o),
(279,555,c),
(284,563,o),
(293,570,o),
(297,579,c),
(302,591,o),
(298,612,o),
(285,618,c),
(275,624,o),
(264,632,o),
(254,637,c),
(247,640,o),
(222,650,o),
(215,642,c),
(208,634,o),
(207,624,o),
(209,612,c),
(212,588,o),
(212,450,o),
(209,429,c),
(207,420,o),
(207,355,o),
(207,332,c),
(207,319,o),
(206,283,o),
(231,297,c),
(238,301,o),
(247,303,o),
(250,313,c),
(256,331,o),
(264,350,o),
(268,370,c),
(269,376,o),
(270,389,o),
(278,393,c),
(283,394,o),
(454,403,o),
(454,400,c),
(456,390,o),
(454,360,o),
(455,350,c),
(456,345,o),
(456,339,o),
(456,332,c),
(454,270,o),
(454,232,o),
(455,156,c),
(455,145,o),
(453,134,o),
(451,125,c),
(448,102,o),
(457,22,o),
(446,22,c),
(436,22,o),
(260,14,o),
(249,17,c),
(245,18,o),
(245,28,o),
(244,33,c),
(243,47,o),
(244,115,o),
(242,148,c),
(240,165,o),
(269,165,o),
(273,181,c),
(277,202,o),
(264,225,o),
(240,227,c),
(216,229,o),
(194,239,o),
(170,247,c),
(161,250,o),
(156,248,o),
(154,239,c),
(147,212,o),
(170,187,o),
(167,160,c),
(163,135,o),
(162,111,o),
(164,86,c),
(167,71,o),
(166,-25,o),
(166,-59,c),
(164,-67,o),
(145,-128,o),
(155,-143,c),
(161,-154,o),
(171,-159,o),
(183,-159,c),
(196,-157,o),
(208,-135,o),
(214,-123,c),
(221,-109,o),
(229,-94,o),
(238,-80,c),
(242,-73,o),
(251,-68,o),
(252,-59,c),
(253,-52,o),
(248,-23,o),
(253,-19,c),
(263,-10,o),
(277,-16,o),
(291,-14,c),
(298,-13,o),
(369,-12,o),
(369,-12,c),
(372,-12,o),
(453,-10,o),
(454,-10,c),
(454,-10,o),
(466,-9,o),
(469,-9,c),
(481,-9,o),
(533,-5,o),
(550,-6,c),
(570,-8,o),
(624,-2,o),
(637,-3,c),
(653,-5,o),
(706,-5,o),
(711,-4,c),
(720,-3,o),
(757,4,o),
(763,-5,c),
(764,-7,o),
(765,-12,o),
(766,-17,c),
(766,-29,o),
(767,-40,o),
(767,-50,c),
(768,-55,o),
(770,-60,o),
(772,-63,c),
(779,-74,o),
(785,-85,o),
(793,-94,c),
(799,-99,o),
(804,-99,o),
(808,-93,c),
(824,-74,o),
(837,-54,o),
(847,-32,c),
(852,-22,o),
(860,-20,o),
(865,-13,c),
(873,2,o),
(869,23,o),
(865,41,c),
(862,53,o),
(860,66,o),
(859,79,c),
(858,100,o),
(869,199,o),
(874,209,c)
);
}
);
width = 1000;
}
);
unicode = 20986;
},
{
glyphname = uni5317;
lastChange = "2023-08-02 04:01:10 +0000";
layers = (
{
layerId = m01;
shapes = (
{
closed = 1;
nodes = (
(974,71,o),
(969,92,o),
(966,116,c),
(964,140,o),
(972,191,o),
(972,194,c),
(973,206,o),
(968,233,o),
(966,233,c),
(965,233,o),
(959,213,o),
(958,211,c),
(958,209,o),
(953,197,o),
(951,190,c),
(950,184,o),
(942,160,o),
(940,157,c),
(928,130,o),
(916,97,o),
(898,76,c),
(892,69,o),
(883,65,o),
(876,58,c),
(862,45,o),
(847,38,o),
(828,33,c),
(821,29,o),
(814,29,o),
(807,26,c),
(794,24,o),
(781,24,o),
(768,24,c),
(758,23,o),
(750,20,o),
(738,21,c),
(713,23,o),
(691,20,o),
(660,24,c),
(657,24,o),
(650,25,o),
(647,30,c),
(644,36,o),
(639,77,o),
(640,89,c),
(641,101,o),
(636,159,o),
(638,178,c),
(639,192,o),
(639,208,o),
(639,224,c),
(639,249,o),
(638,278,o),
(634,309,c),
(631,335,o),
(633,361,o),
(634,394,c),
(635,411,o),
(633,428,o),
(635,443,c),
(639,467,o),
(642,488,o),
(642,516,c),
(642,525,o),
(656,590,o),
(656,597,c),
(657,604,o),
(659,618,o),
(660,641,c),
(661,646,o),
(661,651,o),
(661,657,c),
(660,667,o),
(657,683,o),
(665,689,c),
(681,698,o),
(693,709,o),
(705,722,c),
(709,726,o),
(710,731,o),
(709,737,c),
(709,738,o),
(687,748,o),
(675,753,c),
(668,757,o),
(665,764,o),
(658,767,c),
(648,772,o),
(640,776,o),
(631,778,c),
(621,782,o),
(612,785,o),
(602,790,c),
(599,792,o),
(596,792,o),
(594,790,c),
(588,787,o),
(586,783,o),
(586,775,c),
(589,748,o),
(588,723,o),
(587,693,c),
(587,688,o),
(580,605,o),
(580,596,c),
(580,571,o),
(580,547,o),
(580,522,c),
(581,477,o),
(568,318,o),
(571,306,c),
(578,285,o),
(573,177,o),
(574,163,c),
(575,148,o),
(579,18,o),
(577,2,c),
(575,-11,o),
(578,-24,o),
(586,-35,c),
(590,-44,o),
(599,-48,o),
(604,-54,c),
(634,-89,o),
(666,-79,o),
(704,-84,c),
(717,-86,o),
(758,-93,o),
(765,-91,c),
(790,-84,o),
(815,-76,o),
(844,-74,c),
(866,-73,o),
(891,-69,o),
(907,-52,c),
(917,-42,o),
(957,-8,o),
(967,-2,c),
(979,4,o),
(981,23,o),
(983,35,c),
(984,41,o),
(985,45,o),
(983,49,c)
);
},
{
closed = 1;
nodes = (
(445,676,o),
(463,701,o),
(455,703,c),
(412,720,o),
(380,757,o),
(340,781,c),
(338,782,o),
(336,785,o),
(333,787,c),
(332,788,o),
(332,787,o),
(331,787,c),
(324,778,o),
(324,771,o),
(326,759,c),
(329,739,o),
(330,720,o),
(329,698,c),
(328,685,o),
(331,667,o),
(332,654,c),
(334,626,o),
(337,532,o),
(337,512,c),
(337,497,o),
(337,479,o),
(334,464,c),
(333,451,o),
(281,447,o),
(259,449,c),
(245,451,o),
(119,434,o),
(116,434,c),
(107,436,o),
(84,443,o),
(82,428,c),
(82,419,o),
(93,413,o),
(97,404,c),
(100,398,o),
(101,392,o),
(110,391,c),
(124,389,o),
(131,390,o),
(147,394,c),
(186,404,o),
(283,412,o),
(288,413,c),
(297,415,o),
(326,416,o),
(327,412,c),
(329,388,o),
(334,356,o),
(334,333,c),
(335,317,o),
(337,301,o),
(337,286,c),
(335,248,o),
(334,223,o),
(331,174,c),
(330,165,o),
(331,150,o),
(323,147,c),
(313,144,o),
(254,132,o),
(241,128,c),
(226,123,o),
(210,118,o),
(193,112,c),
(182,108,o),
(147,99,o),
(136,100,c),
(130,100,o),
(64,76,o),
(34,77,c),
(29,77,o),
(12,73,o),
(11,71,c),
(10,69,o),
(27,57,o),
(27,57,c),
(28,57,o),
(54,41,o),
(59,33,c),
(60,29,o),
(71,13,o),
(77,0,c),
(82,-8,o),
(85,-11,o),
(94,-6,c),
(112,12,o),
(140,34,o),
(165,40,c),
(195,49,o),
(210,58,o),
(235,73,c),
(251,83,o),
(274,94,o),
(301,105,c),
(306,107,o),
(324,120,o),
(327,111,c),
(328,106,o),
(321,-1,o),
(321,-11,c),
(319,-29,o),
(318,-46,o),
(315,-63,c),
(312,-82,o),
(309,-90,o),
(320,-103,c),
(335,-120,o),
(350,-98,o),
(359,-88,c),
(367,-77,o),
(375,-60,o),
(383,-49,c),
(387,-41,o),
(405,-36,o),
(405,-27,c),
(405,0,o),
(408,30,o),
(409,51,c),
(409,68,o),
(410,84,o),
(410,100,c),
(409,121,o),
(410,123,o),
(410,145,c),
(409,152,o),
(447,174,o),
(448,174,c),
(451,179,o),
(447,183,o),
(443,183,c),
(436,183,o),
(418,177,o),
(411,176,c),
(411,176,o),
(414,287,o),
(411,304,c),
(408,328,o),
(406,400,o),
(409,416,c),
(411,432,o),
(412,488,o),
(411,500,c),
(410,510,o),
(414,594,o),
(414,622,c),
(413,649,o),
(414,658,o),
(437,671,c)
);
},
{
closed = 1;
nodes = (
(679,447,o),
(646,434,o),
(642,425,c),
(637,412,o),
(693,430,o),
(695,430,c),
(696,430,o),
(748,451,o),
(752,453,c),
(764,458,o),
(778,462,o),
(791,464,c),
(815,469,o),
(837,474,o),
(865,480,c),
(870,482,o),
(873,484,o),
(875,488,c),
(881,502,o),
(871,524,o),
(861,533,c),
(858,537,o),
(853,538,o),
(849,540,c),
(827,553,o),
(811,566,o),
(791,566,c),
(781,565,o),
(781,554,o),
(775,547,c),
(762,532,o),
(740,501,o),
(739,500,c),
(739,500,o),
(684,461,o),
(683,456,c)
);
}
);
width = 1000;
}
);
unicode = 21271;
},
{
glyphname = uni535A;
lastChange = "2023-08-02 15:33:08 +0000";
layers = (
{
layerId = m01;
shapes = (
{
closed = 1;
nodes = (
(317,443,o),
(347,444,o),
(379,446,c),
(388,447,o),
(394,448,o),
(392,458,c),
(390,468,o),
(384,495,o),
(376,502,c),
(365,511,o),
(348,510,o),
(343,497,c),
(339,489,o),
(338,471,o),
(324,468,c),
(317,467,o),
(302,467,o),
(295,468,c),
(286,470,o),
(305,541,o),
(299,558,c),
(298,559,o),
(286,613,o),
(293,616,c),
(313,629,o),
(328,642,o),
(326,669,c),
(326,670,o),
(309,682,o),
(300,685,c),
(300,686,o),
(262,697,o),
(245,712,c),
(235,720,o),
(227,727,o),
(221,735,c),
(217,740,o),
(212,741,o),
(208,739,c),
(191,730,o),
(206,666,o),
(206,665,c),
(205,661,o),
(208,657,o),
(208,652,c),
(209,634,o),
(211,608,o),
(217,575,c),
(218,562,o),
(219,547,o),
(217,529,c),
(216,515,o),
(218,500,o),
(216,487,c),
(215,477,o),
(217,463,o),
(210,463,c),
(197,462,o),
(170,457,o),
(158,455,c),
(145,453,o),
(131,448,o),
(118,446,c),
(107,443,o),
(97,441,o),
(86,439,c),
(74,437,o),
(66,450,o),
(55,451,c),
(44,452,o),
(5,431,o),
(6,430,c),
(10,426,l),
(11,426,o),
(42,402,o),
(43,403,c),
(58,407,o),
(72,413,o),
(86,413,c),
(97,414,o),
(188,426,o),
(212,431,c),
(213,431,o),
(217,423,o),
(217,420,c),
(218,405,o),
(217,391,o),
(216,376,c),
(216,331,o),
(216,302,o),
(218,288,c),
(220,256,o),
(221,225,o),
(221,194,c),
(221,179,o),
(219,31,o),
(220,5,c),
(221,-14,o),
(221,-29,o),
(220,-48,c),
(220,-59,o),
(223,-79,o),
(237,-80,c),
(251,-80,o),
(256,-61,o),
(262,-51,c),
(268,-44,o),
(276,-32,o),
(277,-22,c),
(279,1,o),
(281,24,o),
(284,48,c),
(285,58,o),
(281,160,o),
(281,160,c),
(284,172,o),
(280,272,o),
(282,279,c),
(285,292,o),
(281,363,o),
(282,376,c),
(285,395,o),
(282,411,o),
(282,429,c),
(282,431,o),
(283,433,o),
(286,435,c)
);
},
{
closed = 1;
nodes = (
(677,439,o),
(661,439,o),
(643,437,c),
(635,435,o),
(625,433,o),
(616,430,c),
(612,431,o),
(608,430,o),
(604,427,c),
(604,427,o),
(603,447,o),
(605,455,c),
(607,460,o),
(609,501,o),
(609,501,c),
(608,504,o),
(612,508,o),
(615,508,c),
(625,506,o),
(636,504,o),
(646,505,c),
(655,505,o),
(666,506,o),
(675,508,c),
(685,509,o),
(699,517,o),
(703,508,c),
(708,500,o),
(709,442,o),
(697,441,c)
);
},
{
closed = 1;
nodes = (
(688,343,o),
(686,341,o),
(682,340,c),
(668,339,o),
(650,341,o),
(640,340,c),
(585,334,o),
(598,377,o),
(598,378,c),
(599,387,o),
(595,397,o),
(601,402,c),
(605,406,o),
(616,406,o),
(619,407,c),
(635,408,o),
(673,414,o),
(677,415,c),
(685,419,o),
(696,411,o),
(699,403,c),
(706,392,o),
(687,347,o),
(687,347,c)
);
},
{
closed = 1;
nodes = (
(693,292,o),
(677,296,o),
(672,296,c),
(670,296,o),
(668,295,o),
(667,293,c),
(663,280,o),
(671,267,o),
(672,255,c),
(673,240,o),
(671,226,o),
(673,210,c),
(673,208,o),
(671,205,o),
(669,205,c),
(663,204,o),
(658,204,o),
(652,206,c),
(651,207,o),
(650,207,o),
(650,207,c),
(644,206,o),
(640,209,o),
(635,209,c),
(631,210,o),
(627,210,o),
(623,210,c),
(613,210,o),
(613,215,o),
(611,223,c),
(608,232,o),
(607,243,o),
(607,252,c),
(607,260,o),
(599,314,o),
(603,318,c),
(607,322,o),
(611,321,o),
(615,320,c),
(626,319,o),
(637,321,o),
(645,321,c),
(650,321,o),
(655,319,o),
(662,321,c),
(667,322,o),
(671,323,o),
(676,323,c),
(693,325,o),
(699,313,o),
(694,299,c)
);
},
{
closed = 1;
nodes = (
(545,435,o),
(545,429,o),
(545,425,c),
(545,424,o),
(545,424,o),
(545,423,c),
(531,421,o),
(504,416,o),
(503,416,c),
(493,414,o),
(491,479,o),
(491,492,c),
(491,493,o),
(492,493,o),
(492,494,c),
(501,497,o),
(512,496,o),
(521,497,c),
(522,497,o),
(532,498,o),
(543,499,c),
(544,478,o),
(547,444,o),
(546,439,c)
);
},
{
closed = 1;
nodes = (
(507,332,o),
(500,328,o),
(489,330,c),
(488,331,o),
(487,331,o),
(487,332,c),
(481,352,o),
(489,372,o),
(487,380,c),
(481,400,o),
(492,395,o),
(503,398,c),
(504,399,o),
(531,402,o),
(545,404,c),
(545,397,o),
(545,390,o),
(546,379,c),
(546,367,o),
(543,353,o),
(546,341,c),
(546,340,o),
(546,340,o),
(546,339,c),
(537,337,o),
(520,333,o),
(519,333,c)
);
},
{
closed = 1;
nodes = (
(964,229,o),
(953,242,o),
(946,250,c),
(943,253,o),
(940,256,o),
(936,258,c),
(922,267,o),
(912,278,o),
(903,293,c),
(900,296,o),
(898,297,o),
(895,298,c),
(881,301,o),
(869,272,o),
(865,266,c),
(849,248,o),
(834,230,o),
(819,214,c),
(818,212,o),
(763,207,o),
(763,207,c),
(761,208,o),
(760,222,o),
(761,231,c),
(761,241,o),
(758,254,o),
(751,263,c),
(748,267,o),
(742,275,o),
(742,276,c),
(744,286,o),
(756,284,o),
(761,295,c),
(768,309,o),
(775,323,o),
(782,338,c),
(791,356,o),
(782,470,o),
(782,471,c),
(782,471,o),
(784,503,o),
(788,517,c),
(791,527,o),
(795,535,o),
(799,543,c),
(800,545,o),
(799,548,o),
(796,549,c),
(783,552,o),
(771,550,o),
(763,563,c),
(756,573,o),
(750,580,o),
(747,585,c),
(745,588,o),
(742,588,o),
(739,587,c),
(721,576,o),
(700,564,o),
(696,542,c),
(696,541,o),
(696,541,o),
(695,540,c),
(682,536,o),
(671,543,o),
(659,540,c),
(646,536,o),
(638,528,o),
(625,537,c),
(618,541,o),
(611,542,o),
(603,548,c),
(601,550,o),
(601,552,o),
(602,554,c),
(609,568,o),
(608,580,o),
(599,593,c),
(598,595,o),
(597,598,o),
(598,601,c),
(598,602,o),
(598,603,o),
(599,603,c),
(614,604,o),
(627,604,o),
(641,607,c),
(650,607,o),
(664,602,o),
(674,607,c),
(690,610,o),
(744,612,o),
(749,615,c),
(756,617,o),
(782,619,o),
(788,615,c),
(788,615,o),
(870,609,o),
(871,630,c),
(872,641,o),
(850,657,o),
(842,662,c),
(834,668,o),
(826,666,o),
(819,674,c),
(816,680,o),
(805,690,o),
(803,690,c),
(788,690,o),
(793,670,o),
(788,664,c),
(787,664,o),
(782,648,o),
(776,643,c),
(776,643,o),
(737,637,o),
(737,638,c),
(735,644,o),
(728,653,o),
(740,656,c),
(743,657,o),
(745,658,o),
(748,659,c),
(757,662,o),
(764,659,o),
(765,671,c),
(765,686,o),
(762,700,o),
(753,713,c),
(747,723,o),
(740,725,o),
(728,726,c),
(715,727,o),
(715,743,o),
(701,741,c),
(701,741,o),
(690,745,o),
(690,745,c),
(686,750,o),
(682,755,o),
(677,760,c),
(672,764,o),
(666,765,o),
(661,762,c),
(658,761,o),
(657,758,o),
(658,755,c),
(666,738,o),
(667,721,o),
(674,706,c),
(683,685,o),
(683,670,o),
(685,652,c),
(685,644,o),
(688,636,o),
(690,627,c),
(690,626,o),
(678,626,o),
(675,626,c),
(649,626,o),
(621,625,o),
(594,628,c),
(592,628,o),
(593,649,o),
(591,660,c),
(589,678,o),
(619,690,o),
(620,690,c),
(623,710,l),
(623,713,o),
(622,716,o),
(619,716,c),
(601,720,o),
(587,728,o),
(571,733,c),
(563,735,o),
(554,738,o),
(546,740,c),
(539,742,o),
(509,760,o),
(515,733,c),
(521,705,o),
(527,688,o),
(528,663,c),
(528,651,o),
(529,638,o),
(532,625,c),
(516,625,o),
(450,622,o),
(435,620,c),
(425,618,o),
(418,618,o),
(408,618,c),
(396,618,o),
(364,625,o),
(360,608,c),
(359,599,o),
(363,592,o),
(370,585,c),
(370,585,o),
(398,585,o),
(404,586,c),
(415,587,o),
(522,598,o),
(538,598,c),
(541,588,o),
(545,578,o),
(544,568,c),
(544,561,o),
(543,553,o),
(542,547,c),
(541,538,o),
(543,529,o),
(541,519,c),
(535,518,o),
(527,517,o),
(525,516,c),
(514,514,o),
(507,514,o),
(498,514,c),
(497,514,o),
(496,514,o),
(496,514,c),
(490,519,o),
(486,527,o),
(478,530,c),
(465,537,o),
(448,542,o),
(431,546,c),
(425,548,o),
(423,544,o),
(424,539,c),
(427,503,o),
(427,469,o),
(425,433,c),
(424,425,o),
(425,418,o),
(426,411,c),
(428,391,o),
(431,371,o),
(430,349,c),
(427,305,o),
(422,266,o),
(436,222,c),
(436,220,o),
(437,218,o),
(438,216,c),
(439,215,o),
(439,215,o),
(440,215,c),
(447,214,o),
(454,216,o),
(458,221,c),
(468,233,o),
(478,249,o),
(480,265,c),
(481,278,o),
(481,294,o),
(480,307,c),
(480,309,o),
(481,310,o),
(483,310,c),
(492,309,o),
(528,315,o),
(546,317,c),
(547,281,o),
(547,222,o),
(547,214,c),
(547,205,o),
(540,200,o),
(531,201,c),
(512,203,o),
(444,204,o),
(435,201,c),
(435,201,o),
(305,192,o),
(305,190,c),
(302,174,o),
(311,160,o),
(327,157,c),
(330,157,o),
(392,163,o),
(414,167,c),
(420,168,o),
(456,174,o),
(465,170,c),
(466,170,o),
(469,132,o),
(469,118,c),
(469,106,o),
(471,57,o),
(469,39,c),
(468,27,o),
(471,18,o),
(485,19,c),
(514,20,o),
(535,33,o),
(545,59,c),
(549,70,o),
(555,102,o),
(549,111,c),
(538,129,o),
(523,143,o),
(506,154,c),
(499,159,o),
(497,163,o),
(499,172,c),
(499,173,o),
(533,179,o),
(549,178,c),
(551,178,o),
(583,177,o),
(593,177,c),
(600,179,o),
(673,186,o),
(673,186,c),
(676,183,o),
(677,180,o),
(677,176,c),
(677,159,o),
(677,142,o),
(677,125,c),
(677,98,o),
(673,74,o),
(668,49,c),
(666,35,o),
(661,25,o),
(655,12,c),
(646,10,o),
(637,17,o),
(629,15,c),
(625,15,o),
(586,11,o),
(604,0,c),
(613,-4,o),
(619,-7,o),
(623,-15,c),
(634,-31,o),
(642,-49,o),
(647,-67,c),
(648,-68,o),
(661,-74,o),
(662,-74,c),
(676,-69,o),
(697,-53,o),
(704,-41,c),
(714,-23,o),
(731,-32,o),
(739,-13,c),
(743,-4,o),
(759,55,o),
(759,69,c),
(760,79,o),
(757,89,o),
(758,101,c),
(760,120,o),
(765,137,o),
(764,158,c),
(764,168,o),
(757,190,o),
(783,190,c),
(803,191,o),
(826,190,o),
(846,191,c),
(884,193,o),
(919,194,o),
(957,196,c),
(961,196,o),
(988,201,o),
(979,211,c)
);
}
);
width = 1000;
}
);
unicode = 21338;
},
{
glyphname = uni5377;
lastChange = "2023-08-01 11:01:52 +0000";
layers = (
{
layerId = m01;
shapes = (
{
closed = 1;
nodes = (
(718,673,o),
(723,668,o),
(728,664,c),
(731,663,o),
(746,645,o),
(747,645,c),
(756,635,o),
(766,627,o),
(774,616,c),
(785,600,o),
(791,582,o),
(797,563,c),
(802,553,o),
(805,544,o),
(816,544,c),
(830,544,o),
(840,548,o),
(849,560,c),
(866,587,o),
(847,627,o),
(828,647,c),
(822,654,o),
(811,657,o),
(803,663,c),
(785,674,o),
(766,683,o),
(746,689,c),
(735,693,o),
(727,698,o),
(716,702,c),
(713,704,o),
(710,707,o),
(707,708,c),
(705,709,o),
(699,696,o),
(699,695,c),
(700,689,o),
(710,678,o),
(714,675,c)
);
},
{
closed = 1;
nodes = (
(586,414,o),
(564,400,o),
(543,399,c),
(530,399,o),
(520,399,o),
(506,399,c),
(497,399,o),
(482,411,o),
(483,422,c),
(484,434,o),
(495,443,o),
(500,453,c),
(508,469,o),
(513,486,o),
(516,504,c),
(516,505,o),
(516,505,o),
(516,506,c),
(525,516,o),
(535,529,o),
(548,530,c),
(558,531,o),
(569,533,o),
(582,533,c),
(588,533,o),
(593,529,o),
(594,521,c),
(596,510,o),
(599,502,o),
(602,492,c),
(606,478,o),
(608,461,o),
(612,449,c),
(615,436,o),
(617,421,o),
(622,409,c),
(614,408,o),
(609,408,o),
(609,408,c)
);
},
{
closed = 1;
nodes = (
(925,181,o),
(906,186,o),
(888,200,c),
(876,211,o),
(863,218,o),
(849,227,c),
(846,229,o),
(816,243,o),
(809,248,c),
(803,252,o),
(794,264,o),
(785,270,c),
(770,278,o),
(757,288,o),
(747,300,c),
(737,313,o),
(727,325,o),
(714,334,c),
(711,336,o),
(708,341,o),
(702,348,c),
(695,356,o),
(696,372,o),
(693,384,c),
(693,385,o),
(693,385,o),
(693,385,c),
(738,390,o),
(782,394,o),
(786,397,c),
(806,396,o),
(823,397,o),
(836,399,c),
(846,401,o),
(849,410,o),
(854,418,c),
(863,436,o),
(876,457,o),
(854,469,c),
(844,475,o),
(827,484,o),
(818,483,c),
(812,482,o),
(807,480,o),
(804,476,c),
(793,466,o),
(783,451,o),
(773,434,c),
(773,433,o),
(765,418,o),
(765,416,c),
(765,415,o),
(714,413,o),
(671,411,c),
(660,430,o),
(653,453,o),
(635,465,c),
(634,466,o),
(634,466,o),
(634,467,c),
(630,479,o),
(622,507,o),
(625,519,c),
(626,521,o),
(627,522,o),
(628,522,c),
(642,523,o),
(655,523,o),
(669,523,c),
(687,522,o),
(709,538,o),
(703,558,c),
(699,573,o),
(693,585,o),
(680,591,c),
(657,604,o),
(659,583,o),
(653,568,c),
(650,559,o),
(649,555,o),
(639,553,c),
(627,552,o),
(617,555,o),
(607,555,c),
(595,555,o),
(576,557,o),
(576,558,c),
(576,558,o),
(551,559,o),
(551,559,c),
(549,559,o),
(548,561,o),
(549,562,c),
(554,577,o),
(558,590,o),
(563,604,c),
(571,623,o),
(574,643,o),
(576,660,c),
(578,669,o),
(582,687,o),
(589,690,c),
(608,698,o),
(631,714,o),
(627,739,c),
(625,751,o),
(601,762,o),
(590,770,c),
(574,781,o),
(566,788,o),
(548,788,c),
(545,789,o),
(542,786,o),
(541,783,c),
(540,760,o),
(538,745,o),
(535,736,c),
(532,722,o),
(526,711,o),
(525,702,c),
(521,686,o),
(516,670,o),
(513,651,c),
(508,631,o),
(494,612,o),
(488,591,c),
(486,584,o),
(484,577,o),
(483,567,c),
(481,552,o),
(473,542,o),
(461,543,c),
(454,543,o),
(440,545,o),
(417,548,c),
(411,548,o),
(410,550,o),
(409,555,c),
(407,568,o),
(422,570,o),
(427,580,c),
(438,593,o),
(446,606,o),
(437,623,c),
(430,632,o),
(416,646,o),
(404,642,c),
(398,640,o),
(395,627,o),
(389,622,c),
(369,599,o),
(352,577,o),
(328,549,c),
(325,548,o),
(320,541,o),
(309,527,c),
(297,513,o),
(283,500,o),
(268,488,c),
(268,487,o),
(267,487,o),
(267,487,c),
(267,486,o),
(251,478,o),
(251,478,c),
(247,475,o),
(237,466,o),
(236,465,c),
(233,462,o),
(229,460,o),
(227,455,c),
(225,452,o),
(220,445,o),
(220,445,c),
(218,444,o),
(215,442,o),
(211,441,c),
(209,440,o),
(207,438,o),
(205,436,c),
(203,434,o),
(198,425,o),
(198,424,c),
(195,408,o),
(217,408,o),
(225,414,c),
(230,418,o),
(236,421,o),
(239,426,c),
(244,431,o),
(251,434,o),
(257,437,c),
(262,440,o),
(269,441,o),
(273,445,c),
(273,446,o),
(294,457,o),
(301,464,c),
(304,467,o),
(316,472,o),
(317,472,c),
(319,474,o),
(320,474,o),
(322,476,c),
(330,481,o),
(340,486,o),
(348,492,c),
(356,496,o),
(360,504,o),
(369,507,c),
(393,517,o),
(450,515,o),
(450,513,c),
(453,500,o),
(452,488,o),
(446,477,c),
(438,457,o),
(429,440,o),
(422,422,c),
(415,409,o),
(417,393,o),
(397,393,c),
(386,393,o),
(379,393,o),
(376,394,c),
(369,395,o),
(363,395,o),
(361,395,c),
(357,394,o),
(354,393,o),
(350,393,c),
(343,394,o),
(338,391,o),
(330,391,c),
(328,391,o),
(325,391,o),
(323,391,c),
(320,390,o),
(318,390,o),
(314,390,c),
(306,390,o),
(292,390,o),
(270,390,c),
(269,390,o),
(269,389,o),
(269,389,c),
(267,388,o),
(255,384,o),
(251,384,c),
(237,384,o),
(221,384,o),
(206,382,c),
(199,382,o),
(190,385,o),
(182,387,c),
(182,387,o),
(182,387,o),
(182,387,c),
(182,387,o),
(182,387,o),
(181,387,c),
(181,385,o),
(177,384,o),
(177,382,c),
(173,362,o),
(178,351,o),
(196,346,c),
(208,342,o),
(216,353,o),
(226,355,c),
(234,356,o),
(249,355,o),
(249,355,c),
(250,354,o),
(253,354,o),
(254,354,c),
(254,353,l),
(255,353,o),
(263,352,o),
(267,352,c),
(278,353,o),
(288,358,o),
(299,358,c),
(309,359,o),
(319,360,o),
(329,360,c),
(343,359,o),
(366,370,o),
(366,370,c),
(372,370,o),
(378,366,o),
(380,359,c),
(383,355,o),
(381,349,o),
(379,344,c),
(370,317,o),
(358,294,o),
(342,275,c),
(334,263,o),
(320,242,o),
(300,211,c),
(294,198,o),
(279,186,o),
(269,177,c),
(262,166,o),
(254,156,o),
(245,143,c),
(226,114,o),
(192,95,o),
(169,65,c),
(162,56,o),
(155,45,o),
(143,37,c),
(125,22,o),
(113,7,o),
(93,-5,c),
(84,-11,o),
(76,-8,o),
(66,-9,c),
(63,-10,o),
(61,-13,o),
(57,-14,c),
(43,-21,o),
(39,-36,o),
(43,-51,c),
(45,-60,o),
(51,-64,o),
(58,-64,c),
(61,-64,o),
(70,-56,o),
(72,-55,c),
(75,-53,o),
(93,-42,o),
(98,-39,c),
(103,-35,o),
(108,-31,o),
(114,-27,c),
(117,-23,o),
(137,-4,o),
(138,-4,c),
(158,6,o),
(175,19,o),
(194,37,c),
(200,41,o),
(207,45,o),
(215,51,c),
(219,55,o),
(223,61,o),
(228,66,c),
(229,68,o),
(234,71,o),
(238,74,c),
(250,83,o),
(258,95,o),
(267,105,c),
(274,114,o),
(287,122,o),
(295,130,c),
(311,149,o),
(334,176,o),
(351,203,c),
(354,208,o),
(358,215,o),
(363,223,c),
(372,237,o),
(390,272,o),
(391,272,c),
(400,275,o),
(417,302,o),
(424,314,c),
(429,323,o),
(457,362,o),
(462,373,c),
(465,378,o),
(469,378,o),
(474,377,c),
(485,374,o),
(495,373,o),
(507,376,c),
(519,378,o),
(527,376,o),
(539,379,c),
(544,382,o),
(548,382,o),
(551,383,c),
(560,383,o),
(569,384,o),
(576,380,c),
(580,379,o),
(604,379,o),
(634,382,c),
(635,379,o),
(642,371,o),
(643,369,c),
(648,359,o),
(655,350,o),
(660,341,c),
(670,318,o),
(685,293,o),
(707,277,c),
(711,272,o),
(741,237,o),
(753,222,c),
(761,211,o),
(768,200,o),
(776,189,c),
(782,179,o),
(810,163,o),
(812,161,c),
(831,139,o),
(885,107,o),
(890,104,c),
(904,96,o),
(933,86,o),
(938,108,c),
(941,122,o),
(946,133,o),
(950,142,c),
(954,152,o),
(959,169,o),
(946,173,c)
);
},
{
closed = 1;
nodes = (
(773,8,o),
(771,10,o),
(768,17,c),
(762,31,o),
(756,44,o),
(750,58,c),
(750,58,o),
(742,69,o),
(735,69,c),
(734,69,o),
(734,69,o),
(733,69,c),
(725,61,o),
(724,54,o),
(717,45,c),
(715,41,o),
(692,-6,o),
(685,-8,c),
(672,-11,o),
(606,-25,o),
(590,-26,c),
(567,-29,o),
(540,-27,o),
(522,-28,c),
(514,-29,o),
(494,-28,o),
(493,-18,c),
(490,6,o),
(488,29,o),
(485,52,c),
(484,65,o),
(484,80,o),
(485,93,c),
(486,101,o),
(486,106,o),
(486,112,c),
(486,129,o),
(481,152,o),
(481,166,c),
(480,190,o),
(479,215,o),
(477,240,c),
(477,243,o),
(479,247,o),
(482,250,c),
(482,251,o),
(483,251,o),
(483,251,c),
(488,250,o),
(505,247,o),
(507,254,c),
(507,255,o),
(553,262,o),
(584,267,c),
(583,248,o),
(583,232,o),
(588,212,c),
(589,208,o),
(589,202,o),
(588,197,c),
(585,184,o),
(583,171,o),
(583,159,c),
(583,158,o),
(583,158,o),
(583,157,c),
(582,156,o),
(581,154,o),
(581,152,c),
(581,151,o),
(581,151,o),
(581,150,c),
(578,146,o),
(576,142,o),
(573,140,c),
(568,136,o),
(561,129,o),
(554,128,c),
(553,127,o),
(553,127,o),
(553,126,c),
(552,118,o),
(571,121,o),
(578,121,c),
(579,121,o),
(579,122,o),
(579,122,c),
(579,122,l),
(579,122,o),
(579,122,o),
(579,122,c),
(589,123,o),
(600,124,o),
(610,124,c),
(613,124,o),
(615,124,o),
(619,124,c),
(619,124,o),
(620,123,o),
(620,123,c),
(623,120,o),
(626,119,o),
(629,121,c),
(630,121,o),
(630,121,o),
(630,122,c),
(649,146,o),
(634,189,o),
(629,217,c),
(628,227,o),
(637,240,o),
(643,245,c),
(650,252,o),
(654,259,o),
(656,270,c),
(661,289,o),
(626,309,o),
(614,317,c),
(606,325,o),
(592,302,o),
(589,296,c),
(587,293,o),
(586,286,o),
(585,278,c),
(584,278,o),
(506,263,o),
(506,263,c),
(492,263,o),
(490,276,o),
(483,284,c),
(480,288,o),
(477,291,o),
(473,294,c),
(469,300,o),
(462,305,o),
(457,313,c),
(455,313,o),
(455,314,o),
(454,314,c),
(445,314,o),
(447,304,o),
(444,297,c),
(443,294,o),
(444,291,o),
(444,286,c),
(443,282,o),
(442,276,o),
(442,270,c),
(442,259,o),
(432,252,o),
(432,242,c),
(432,237,o),
(433,229,o),
(434,224,c),
(437,198,o),
(438,175,o),
(438,149,c),
(437,140,o),
(433,127,o),
(436,120,c),
(442,96,o),
(445,73,o),
(450,50,c),
(453,37,o),
(455,23,o),
(457,11,c),
(457,7,o),
(457,4,o),
(457,2,c),
(453,-14,o),
(451,-28,o),
(452,-39,c),
(453,-70,o),
(489,-48,o),
(499,-65,c),
(505,-80,o),
(572,-91,o),
(584,-90,c),
(603,-88,o),
(721,-71,o),
(725,-71,c),
(742,-68,o),
(772,-72,o),
(778,-54,c),
(784,-40,o),
(786,-25,o),
(786,-10,c),
(787,-5,o),
(790,10,o),
(781,9,c)
);
}
);
width = 1000;
}
);
unicode = 21367;
},
{
glyphname = uni5403;
lastChange = "2023-08-03 08:46:51 +0000";
layers = (
{
layerId = m01;
shapes = (
{
closed = 1;
nodes = (
(243,277,o),
(164,280,o),
(158,287,c),
(147,297,o),
(146,339,o),
(147,355,c),
(148,382,o),
(135,529,o),
(134,544,c),
(134,544,o),
(139,564,o),
(140,563,c),
(156,547,o),
(183,564,o),
(203,566,c),
(222,569,o),
(239,572,o),
(241,546,c),
(243,531,o),
(243,486,o),
(243,478,c),
(239,442,o),
(246,287,o),
(246,286,c)
);
},
{
closed = 1;
nodes = (
(444,452,o),
(529,532,o),
(539,542,c),
(545,549,o),
(542,523,o),
(550,520,c),
(571,511,o),
(617,519,o),
(641,520,c),
(642,520,o),
(834,533,o),
(850,528,c),
(883,516,o),
(915,538,o),
(904,575,c),
(902,579,o),
(899,584,o),
(895,589,c),
(878,606,o),
(847,650,o),
(824,610,c),
(813,590,o),
(806,570,o),
(783,571,c),
(750,573,o),
(594,557,o),
(558,564,c),
(551,565,o),
(547,567,o),
(551,573,c),
(551,574,o),
(681,738,o),
(681,748,c),
(681,777,o),
(654,772,o),
(637,782,c),
(620,793,o),
(602,803,o),
(583,811,c),
(582,811,o),
(567,770,o),
(559,751,c),
(543,715,o),
(426,489,o),
(404,452,c),
(392,429,o),
(349,373,o),
(345,375,c),
(326,386,o),
(326,406,o),
(323,426,c),
(323,427,o),
(318,524,o),
(324,530,c),
(334,538,o),
(358,553,o),
(358,555,c),
(357,573,o),
(350,588,o),
(339,601,c),
(321,620,o),
(329,641,o),
(295,647,c),
(276,660,o),
(268,637,o),
(259,624,c),
(251,612,o),
(248,607,o),
(231,606,c),
(215,606,o),
(198,605,o),
(182,604,c),
(166,602,o),
(157,594,o),
(141,597,c),
(140,597,o),
(137,618,o),
(131,625,c),
(121,628,o),
(105,633,o),
(84,642,c),
(68,648,o),
(70,614,o),
(71,608,c),
(74,574,o),
(78,546,o),
(79,522,c),
(80,501,o),
(82,481,o),
(81,461,c),
(80,422,o),
(80,383,o),
(82,345,c),
(84,281,o),
(81,219,o),
(82,157,c),
(82,138,o),
(79,113,o),
(81,92,c),
(81,84,o),
(81,75,o),
(81,68,c),
(78,43,o),
(67,-25,o),
(104,-32,c),
(121,-35,o),
(125,-21,o),
(127,-6,c),
(128,1,o),
(130,7,o),
(133,14,c),
(140,29,o),
(142,50,o),
(140,64,c),
(139,72,o),
(142,129,o),
(143,152,c),
(143,170,o),
(136,241,o),
(146,246,c),
(157,252,o),
(166,250,o),
(177,249,c),
(196,245,o),
(219,249,o),
(239,252,c),
(262,254,o),
(287,249,o),
(309,245,c),
(325,243,o),
(321,258,o),
(321,268,c),
(320,296,o),
(322,358,o),
(324,360,c),
(339,366,o),
(346,358,o),
(349,360,c),
(360,364,o),
(418,405,o),
(429,424,c)
);
},
{
closed = 1;
nodes = (
(928,-8,o),
(924,-1,o),
(920,6,c),
(902,37,o),
(896,69,o),
(896,106,c),
(896,111,o),
(888,131,o),
(882,115,c),
(880,110,o),
(878,103,o),
(876,94,c),
(875,85,o),
(869,72,o),
(861,54,c),
(857,47,o),
(853,42,o),
(846,38,c),
(829,23,o),
(826,3,o),
(804,-5,c),
(784,-14,o),
(759,-22,o),
(736,-22,c),
(735,-22,o),
(609,-36,o),
(608,-36,c),
(605,-38,o),
(568,-36,o),
(561,-37,c),
(540,-39,o),
(524,-21,o),
(524,-21,c),
(525,-21,o),
(520,1,o),
(526,13,c),
(530,20,o),
(557,101,o),
(560,107,c),
(574,141,o),
(597,176,o),
(608,213,c),
(614,226,o),
(636,271,o),
(645,275,c),
(652,278,o),
(670,308,o),
(680,306,c),
(692,304,o),
(702,346,o),
(703,347,c),
(703,347,o),
(710,357,o),
(709,358,c),
(688,386,o),
(664,423,o),
(627,384,c),
(616,372,o),
(615,376,o),
(603,364,c),
(594,354,o),
(418,346,o),
(407,348,c),
(397,350,o),
(389,348,o),
(386,339,c),
(381,326,o),
(391,306,o),
(399,296,c),
(401,294,o),
(421,290,o),
(423,291,c),
(442,298,o),
(543,307,o),
(560,306,c),
(570,306,o),
(565,292,o),
(563,288,c),
(555,265,o),
(546,243,o),
(540,222,c),
(520,159,o),
(496,91,o),
(471,19,c),
(466,6,o),
(452,-9,o),
(456,-23,c),
(461,-43,o),
(472,-65,o),
(478,-90,c),
(481,-106,o),
(493,-116,o),
(505,-126,c),
(511,-131,o),
(661,-127,o),
(677,-129,c),
(705,-133,o),
(802,-120,o),
(828,-119,c),
(850,-118,o),
(868,-106,o),
(891,-105,c),
(896,-105,o),
(909,-102,o),
(910,-102,c),
(931,-77,o),
(949,-50,o),
(932,-16,c)
);
}
);
width = 1000;
}
);
unicode = 21507;
},
{
glyphname = uni5468;
lastChange = "2023-08-02 06:49:11 +0000";
layers = (
{
layerId = m01;
shapes = (
{
closed = 1;
nodes = (
(664,164,o),
(664,161,o),
(663,154,c),
(662,152,o),
(605,150,o),
(588,149,c),
(572,147,o),
(554,146,o),
(537,147,c),
(527,149,l),
(525,151,o),
(523,163,o),
(522,166,c),
(515,200,o),
(520,225,o),
(522,254,c),
(522,254,o),
(522,255,o),
(522,255,c),
(524,256,o),
(526,257,o),
(530,258,c),
(543,261,o),
(556,262,o),
(567,262,c),
(574,262,o),
(580,262,o),
(588,263,c),
(596,263,o),
(605,267,o),
(613,268,c),
(622,268,o),
(652,267,o),
(659,261,c),
(659,261,o),
(664,258,o),
(664,255,c),
(666,229,o),
(665,210,o),
(664,172,c)
);
},
{
closed = 1;
nodes = (
(748,154,o),
(757,184,o),
(751,209,c),
(751,211,o),
(750,216,o),
(750,224,c),
(750,227,o),
(747,260,o),
(751,266,c),
(756,280,o),
(758,274,o),
(775,289,c),
(784,297,o),
(776,311,o),
(772,323,c),
(765,335,o),
(761,344,o),
(758,353,c),
(756,360,o),
(747,363,o),
(740,359,c),
(734,355,o),
(726,349,o),
(723,343,c),
(714,330,o),
(705,319,o),
(695,306,c),
(686,295,o),
(674,293,o),
(658,294,c),
(645,294,o),
(617,290,o),
(604,290,c),
(593,290,o),
(580,290,o),
(570,289,c),
(562,289,o),
(556,288,o),
(548,288,c),
(541,286,o),
(536,286,o),
(530,288,c),
(525,289,o),
(527,291,o),
(527,294,c),
(526,305,o),
(526,316,o),
(526,328,c),
(526,330,o),
(525,331,o),
(523,331,c),
(516,331,o),
(509,331,o),
(502,331,c),
(493,331,o),
(483,338,o),
(475,341,c),
(468,343,o),
(462,344,o),
(453,344,c),
(445,345,o),
(440,344,o),
(444,334,c),
(447,313,o),
(448,293,o),
(448,272,c),
(449,257,o),
(447,241,o),
(446,225,c),
(446,218,o),
(446,209,o),
(448,199,c),
(451,163,o),
(449,129,o),
(444,91,c),
(443,79,o),
(443,65,o),
(443,51,c),
(444,43,o),
(443,33,o),
(439,22,c),
(438,17,o),
(435,5,o),
(440,3,c),
(455,-4,o),
(465,18,o),
(472,25,c),
(494,43,o),
(506,59,o),
(509,85,c),
(509,88,o),
(512,93,o),
(516,98,c),
(523,107,o),
(536,106,o),
(545,105,c),
(556,104,o),
(603,109,o),
(618,110,c),
(640,111,o),
(661,112,o),
(683,113,c),
(698,113,o),
(712,114,o),
(726,112,c),
(747,108,o),
(754,108,o),
(751,130,c)
);
},
{
closed = 1;
nodes = (
(567,437,o),
(564,424,o),
(558,412,c),
(557,409,o),
(532,411,o),
(523,410,c),
(515,410,o),
(411,410,o),
(396,408,c),
(387,407,o),
(375,407,o),
(369,415,c),
(361,419,o),
(359,424,o),
(359,431,c),
(359,443,o),
(359,454,o),
(360,467,c),
(362,480,o),
(364,493,o),
(364,505,c),
(364,515,o),
(367,519,o),
(377,518,c),
(388,518,o),
(408,519,o),
(436,520,c),
(445,520,o),
(556,518,o),
(557,518,c),
(563,519,o),
(567,517,o),
(568,512,c),
(573,494,o),
(575,470,o),
(571,450,c)
);
},
{
closed = 1;
nodes = (
(375,656,o),
(373,675,o),
(378,689,c),
(379,693,o),
(383,695,o),
(388,694,c),
(409,693,o),
(523,697,o),
(540,697,c),
(545,698,o),
(546,693,o),
(549,689,c),
(552,684,o),
(563,687,o),
(563,668,c),
(562,650,o),
(563,613,o),
(565,596,c),
(570,583,o),
(570,561,o),
(558,551,c),
(556,550,o),
(399,548,o),
(384,544,c),
(376,542,o),
(374,547,o),
(372,553,c),
(370,558,o),
(376,610,o),
(375,637,c)
);
},
{
closed = 1;
nodes = (
(945,748,o),
(943,753,o),
(938,761,c),
(925,775,o),
(919,787,o),
(913,796,c),
(908,809,o),
(891,823,o),
(878,811,c),
(867,798,o),
(864,783,o),
(851,771,c),
(835,756,o),
(827,743,o),
(800,743,c),
(791,743,o),
(622,730,o),
(601,732,c),
(596,732,o),
(444,736,o),
(415,725,c),
(409,722,o),
(381,711,o),
(379,724,c),
(378,731,o),
(378,744,o),
(379,765,c),
(379,768,o),
(377,770,o),
(374,771,c),
(360,774,o),
(348,777,o),
(335,779,c),
(323,780,o),
(296,787,o),
(287,789,c),
(284,790,o),
(268,790,o),
(266,789,c),
(266,789,o),
(266,781,o),
(267,778,c),
(270,769,o),
(271,760,o),
(273,750,c),
(275,731,o),
(276,713,o),
(276,693,c),
(276,669,o),
(279,557,o),
(280,527,c),
(281,503,o),
(278,482,o),
(274,455,c),
(270,428,o),
(249,252,o),
(248,243,c),
(249,236,o),
(241,178,o),
(233,156,c),
(230,148,o),
(221,107,o),
(215,95,c),
(207,82,o),
(185,24,o),
(174,13,c),
(159,-3,o),
(119,-44,o),
(117,-46,c),
(113,-53,o),
(19,-113,o),
(13,-122,c),
(6,-131,o),
(9,-153,o),
(30,-141,c),
(43,-133,o),
(56,-124,o),
(69,-116,c),
(73,-113,o),
(126,-77,o),
(126,-77,c),
(126,-77,l),
(158,-61,o),
(182,-29,o),
(209,-3,c),
(216,3,o),
(226,9,o),
(228,17,c),
(229,20,o),
(245,52,o),
(248,57,c),
(255,64,o),
(263,76,o),
(274,93,c),
(283,108,o),
(307,176,o),
(311,192,c),
(316,211,o),
(320,231,o),
(324,250,c),
(335,287,o),
(352,324,o),
(353,363,c),
(353,364,o),
(349,377,o),
(355,378,c),
(372,380,o),
(470,379,o),
(491,378,c),
(515,377,o),
(655,379,o),
(656,379,c),
(661,380,o),
(759,382,o),
(778,385,c),
(788,386,o),
(807,394,o),
(807,394,c),
(807,404,o),
(802,417,o),
(787,409,c),
(787,409,o),
(695,411,o),
(686,410,c),
(656,408,o),
(649,437,o),
(651,456,c),
(653,488,o),
(658,523,o),
(700,531,c),
(712,531,o),
(725,532,o),
(738,532,c),
(748,532,o),
(757,535,o),
(765,528,c),
(779,519,o),
(784,525,o),
(795,531,c),
(801,535,o),
(809,540,o),
(807,548,c),
(801,560,o),
(793,566,o),
(779,563,c),
(766,561,o),
(700,558,o),
(692,560,c),
(675,562,o),
(663,569,o),
(655,583,c),
(651,591,o),
(653,602,o),
(654,612,c),
(656,635,o),
(655,661,o),
(656,685,c),
(656,690,o),
(658,695,o),
(659,699,c),
(661,701,o),
(682,702,o),
(690,704,c),
(702,706,o),
(743,707,o),
(754,707,c),
(768,707,o),
(781,706,o),
(797,706,c),
(805,707,o),
(828,708,o),
(829,707,c),
(830,700,o),
(829,694,o),
(830,689,c),
(831,681,o),
(842,512,o),
(845,500,c),
(846,492,o),
(845,425,o),
(849,399,c),
(852,378,o),
(849,357,o),
(849,335,c),
(849,319,o),
(848,301,o),
(849,286,c),
(850,264,o),
(852,184,o),
(853,178,c),
(854,165,o),
(849,139,o),
(849,137,c),
(849,121,o),
(835,60,o),
(835,60,c),
(834,57,o),
(816,15,o),
(815,15,c),
(810,12,o),
(731,2,o),
(731,1,c),
(729,-4,o),
(762,-36,o),
(768,-41,c),
(773,-45,o),
(774,-49,o),
(774,-52,c),
(773,-62,o),
(773,-74,o),
(773,-84,c),
(773,-94,o),
(790,-96,o),
(797,-94,c),
(805,-93,o),
(811,-88,o),
(817,-84,c),
(831,-76,o),
(844,-74,o),
(854,-60,c),
(865,-49,o),
(876,-38,o),
(885,-27,c),
(904,-5,o),
(934,50,o),
(938,53,c),
(952,70,o),
(954,85,o),
(955,108,c),
(955,121,o),
(957,172,o),
(956,185,c),
(955,204,o),
(950,288,o),
(948,309,c),
(948,317,o),
(950,388,o),
(948,404,c),
(947,415,o),
(946,568,o),
(946,578,c),
(945,588,o),
(940,674,o),
(950,681,c),
(963,688,o),
(970,699,o),
(976,712,c),
(980,725,o),
(967,740,o),
(956,744,c)
);
}
);
width = 1000;
}
);
unicode = 21608;
},
{
glyphname = uni54C0;
lastChange = "2023-08-01 15:30:04 +0000";
layers = (
{
layerId = m01;
shapes = (
{
closed = 1;
nodes = (
(70,608,o),
(77,603,o),
(77,603,c),
(81,602,o),
(86,601,o),
(90,602,c),
(102,604,o),
(137,607,o),
(150,607,c),
(164,611,o),
(177,612,o),
(190,613,c),
(194,613,o),
(301,618,o),
(314,618,c),
(317,618,o),
(495,631,o),
(506,629,c),
(506,629,o),
(718,635,o),
(721,636,c),
(729,636,o),
(826,630,o),
(843,642,c),
(856,648,o),
(864,649,o),
(859,662,c),
(869,672,o),
(871,687,o),
(859,699,c),
(848,709,o),
(817,743,o),
(801,731,c),
(796,728,o),
(792,724,o),
(787,720,c),
(769,702,o),
(753,682,o),
(740,658,c),
(738,658,o),
(622,653,o),
(592,653,c),
(587,655,o),
(522,652,o),
(512,650,c),
(512,655,o),
(512,708,o),
(513,709,c),
(520,715,o),
(525,722,o),
(530,729,c),
(535,736,o),
(534,742,o),
(534,751,c),
(534,771,o),
(515,774,o),
(501,778,c),
(485,781,o),
(471,784,o),
(456,787,c),
(449,790,o),
(441,793,o),
(434,792,c),
(420,791,o),
(414,783,o),
(413,767,c),
(413,754,o),
(413,736,o),
(414,715,c),
(415,709,o),
(415,702,o),
(415,695,c),
(415,685,o),
(417,669,o),
(415,653,c),
(416,650,o),
(411,646,o),
(411,645,c),
(411,645,o),
(192,638,o),
(177,638,c),
(176,638,o),
(96,637,o),
(83,639,c),
(77,641,o),
(66,637,o),
(65,629,c),
(64,620,o),
(62,613,o),
(70,608,c)
);
},
{
closed = 1;
nodes = (
(562,318,l),
(589,321,l),
(603,321,l),
(619,306,l),
(642,287,l),
(642,287,o),
(606,240,o),
(597,263,c)
);
},
{
closed = 1;
nodes = (
(479,347,o),
(476,340,o),
(468,341,c),
(460,342,o),
(414,339,o),
(409,340,c),
(409,340,o),
(337,329,o),
(335,342,c),
(332,361,o),
(332,392,o),
(334,413,c),
(334,423,o),
(332,458,o),
(341,458,c),
(362,462,o),
(565,469,o),
(565,469,c),
(565,469,o),
(586,471,o),
(593,469,c),
(600,467,o),
(602,369,o),
(597,352,c),
(594,342,o),
(581,346,o),
(572,343,c),
(561,341,o),
(548,343,o),
(537,340,c),
(537,340,l),
(537,341,o),
(487,338,o),
(487,339,c)
);
},
{
closed = 1;
nodes = (
(974,82,o),
(962,86,o),
(956,85,c),
(944,84,o),
(933,85,o),
(923,86,c),
(919,86,o),
(867,104,o),
(864,105,c),
(848,110,o),
(833,115,o),
(817,119,c),
(805,122,o),
(770,138,o),
(763,140,c),
(741,147,o),
(720,155,o),
(700,167,c),
(687,175,o),
(658,187,o),
(653,192,c),
(635,203,o),
(630,216,o),
(624,226,c),
(617,233,o),
(743,298,o),
(752,303,c),
(770,313,o),
(784,321,o),
(803,327,c),
(815,331,o),
(813,355,o),
(807,363,c),
(802,371,o),
(780,399,o),
(770,399,c),
(770,399,o),
(762,392,o),
(757,387,c),
(752,382,o),
(709,351,o),
(700,346,c),
(694,342,o),
(683,350,o),
(683,355,c),
(684,406,l),
(684,416,o),
(687,459,o),
(683,479,c),
(682,491,o),
(696,501,o),
(703,509,c),
(709,515,o),
(714,527,o),
(720,535,c),
(721,539,l),
(719,546,l),
(713,553,o),
(700,557,o),
(691,561,c),
(681,567,o),
(669,569,o),
(658,574,c),
(648,577,o),
(634,582,o),
(626,574,c),
(621,569,o),
(617,568,o),
(613,562,c),
(602,551,l),
(598,542,o),
(593,534,o),
(590,526,c),
(588,519,o),
(586,513,o),
(582,508,c),
(582,507,o),
(582,507,o),
(581,507,c),
(579,507,o),
(575,504,o),
(575,504,c),
(575,504,o),
(477,499,o),
(473,499,c),
(466,501,o),
(418,497,o),
(403,495,c),
(400,495,o),
(397,493,o),
(394,493,c),
(389,493,o),
(343,493,o),
(341,495,c),
(327,502,o),
(314,507,o),
(302,515,c),
(282,529,o),
(264,529,o),
(242,527,c),
(243,498,o),
(248,467,o),
(250,438,c),
(251,421,o),
(251,335,o),
(253,322,c),
(256,313,o),
(256,247,o),
(254,243,c),
(253,239,o),
(256,233,o),
(259,231,c),
(267,228,o),
(273,228,o),
(280,233,c),
(286,239,o),
(293,244,o),
(298,250,c),
(307,259,o),
(326,255,o),
(327,275,c),
(328,287,o),
(328,299,o),
(334,309,c),
(338,317,o),
(376,315,o),
(376,314,c),
(376,313,o),
(368,294,o),
(368,294,c),
(364,281,o),
(357,271,o),
(349,262,c),
(340,251,o),
(313,208,o),
(312,208,c),
(309,205,o),
(247,142,o),
(237,131,c),
(227,117,o),
(217,109,o),
(204,98,c),
(195,91,o),
(152,48,o),
(149,45,c),
(147,43,o),
(121,18,o),
(120,18,c),
(120,18,o),
(100,0,o),
(94,-4,c),
(86,-9,o),
(54,-39,o),
(53,-40,c),
(50,-41,o),
(41,-50,o),
(41,-50,c),
(32,-57,o),
(30,-62,o),
(31,-72,c),
(32,-72,o),
(62,-60,o),
(64,-58,c),
(64,-58,o),
(64,-58,o),
(64,-57,c),
(64,-54,o),
(93,-34,o),
(103,-29,c),
(106,-27,o),
(175,22,o),
(180,28,c),
(194,37,o),
(205,48,o),
(218,55,c),
(228,61,o),
(289,117,o),
(296,121,c),
(298,122,o),
(336,144,o),
(340,145,c),
(351,150,o),
(359,177,o),
(373,177,c),
(391,177,o),
(379,131,o),
(378,117,c),
(378,111,o),
(379,87,o),
(378,71,c),
(376,55,o),
(377,35,o),
(377,18,c),
(377,11,o),
(377,11,o),
(374,4,c),
(374,4,o),
(314,-31,o),
(312,-34,c),
(312,-34,o),
(268,-60,o),
(263,-63,c),
(259,-67,o),
(257,-71,o),
(256,-72,c),
(253,-76,o),
(252,-80,o),
(254,-85,c),
(258,-101,o),
(271,-127,o),
(290,-111,c),
(299,-103,o),
(398,-23,o),
(408,-18,c),
(418,-15,o),
(522,60,o),
(535,74,c),
(548,87,o),
(562,102,o),
(576,115,c),
(581,120,o),
(602,133,o),
(597,142,c),
(595,150,o),
(589,155,o),
(583,159,c),
(582,159,o),
(550,130,o),
(546,129,c),
(546,129,o),
(535,122,o),
(531,119,c),
(525,114,o),
(501,106,o),
(491,106,c),
(483,105,o),
(480,106,o),
(476,113,c),
(468,129,o),
(464,140,o),
(466,158,c),
(467,182,o),
(462,205,o),
(459,230,c),
(458,241,o),
(458,253,o),
(456,266,c),
(453,277,o),
(462,293,o),
(471,301,c),
(477,308,o),
(478,309,o),
(482,317,c),
(482,317,o),
(525,322,o),
(535,317,c),
(541,302,o),
(564,252,o),
(569,241,c),
(577,224,o),
(602,175,o),
(605,172,c),
(618,154,o),
(634,139,o),
(650,125,c),
(667,111,o),
(760,40,o),
(777,27,c),
(792,17,o),
(801,15,o),
(818,11,c),
(840,8,o),
(854,22,o),
(867,40,c),
(871,45,o),
(878,50,o),
(885,50,c),
(899,51,o),
(913,54,o),
(927,54,c),
(937,55,o),
(946,55,o),
(956,55,c),
(971,56,o),
(981,63,o),
(975,81,c)
);
}
);
width = 1000;
}
);
unicode = 21696;
},
{
glyphname = uni555C;
lastChange = "2023-08-03 13:54:07 +0000";
layers = (
{
layerId = m01;
shapes = (
{
closed = 1;
nodes = (
(563,387,o),
(591,402,o),
(598,407,c),
(616,421,o),
(633,432,o),
(648,451,c),
(652,457,o),
(657,462,o),
(663,467,c),
(670,473,o),
(679,483,o),
(692,495,c),
(697,500,o),
(702,500,o),
(708,494,c),
(713,489,o),
(746,470,o),
(757,456,c),
(765,446,o),
(780,422,o),
(793,417,c),
(794,417,o),
(813,415,o),
(813,416,c),
(823,424,o),
(813,434,o),
(821,444,c),
(825,448,o),
(837,455,o),
(838,455,c),
(851,455,o),
(831,502,o),
(828,509,c),
(821,526,o),
(809,536,o),
(791,538,c),
(779,539,o),
(771,545,o),
(758,545,c),
(741,545,o),
(761,572,o),
(767,576,c),
(788,592,o),
(802,612,o),
(812,633,c),
(815,639,o),
(819,654,o),
(825,663,c),
(831,673,o),
(864,677,o),
(866,679,c),
(875,691,o),
(842,729,o),
(838,736,c),
(826,760,o),
(805,771,o),
(782,750,c),
(763,733,o),
(758,716,o),
(739,711,c),
(738,710,o),
(594,712,o),
(587,709,c),
(576,705,o),
(581,692,o),
(586,681,c),
(591,672,o),
(598,671,o),
(612,673,c),
(641,676,o),
(674,675,o),
(689,676,c),
(697,677,o),
(737,681,o),
(740,675,c),
(743,670,o),
(738,666,o),
(738,665,c),
(725,645,o),
(694,598,o),
(694,598,c),
(694,597,o),
(686,592,o),
(685,592,c),
(671,587,o),
(659,590,o),
(648,599,c),
(645,600,o),
(575,623,o),
(587,604,c),
(593,593,o),
(617,571,o),
(621,569,c),
(632,562,o),
(641,554,o),
(649,544,c),
(661,528,o),
(650,518,o),
(640,506,c),
(632,495,o),
(626,482,o),
(618,471,c),
(607,452,o),
(595,437,o),
(580,420,c),
(574,413,o),
(564,406,o),
(561,401,c),
(554,393,o),
(549,387,o),
(556,387,c)
);
},
{
closed = 1;
nodes = (
(183,587,o),
(203,593,o),
(203,593,c),
(210,597,o),
(215,588,o),
(215,585,c),
(217,572,o),
(213,570,o),
(215,558,c),
(220,530,o),
(222,510,o),
(222,496,c),
(221,483,o),
(222,475,o),
(223,472,c),
(226,462,o),
(228,422,o),
(226,413,c),
(223,397,o),
(133,396,o),
(130,402,c),
(124,416,o),
(127,539,o),
(125,548,c),
(124,557,o),
(143,563,o),
(173,582,c)
);
},
{
closed = 1;
nodes = (
(124,309,o),
(121,348,o),
(123,355,c),
(124,360,o),
(230,368,o),
(243,370,c),
(261,373,o),
(276,370,o),
(293,365,c),
(298,363,o),
(317,362,o),
(323,365,c),
(337,373,o),
(352,395,o),
(361,406,c),
(365,411,o),
(393,444,o),
(398,449,c),
(406,458,o),
(408,475,o),
(410,487,c),
(411,490,o),
(416,491,o),
(417,488,c),
(429,460,o),
(460,402,o),
(497,409,c),
(506,411,o),
(508,415,o),
(512,423,c),
(518,436,o),
(532,467,o),
(523,477,c),
(516,484,o),
(502,499,o),
(490,506,c),
(483,509,o),
(471,512,o),
(466,519,c),
(454,538,o),
(460,553,o),
(473,570,c),
(483,583,o),
(490,596,o),
(494,607,c),
(496,611,o),
(527,656,o),
(517,685,c),
(516,687,o),
(518,690,o),
(521,690,c),
(548,686,l),
(551,685,o),
(552,687,o),
(553,689,c),
(554,699,o),
(555,716,o),
(551,721,c),
(544,730,o),
(532,731,o),
(526,741,c),
(523,747,o),
(521,757,o),
(517,762,c),
(507,776,o),
(490,771,o),
(482,758,c),
(477,749,o),
(457,708,o),
(447,708,c),
(425,707,o),
(402,705,o),
(380,702,c),
(357,699,o),
(308,703,o),
(308,679,c),
(307,663,o),
(339,663,o),
(357,666,c),
(364,667,o),
(412,670,o),
(423,671,c),
(447,672,o),
(456,657,o),
(443,636,c),
(430,614,o),
(402,557,o),
(402,557,c),
(395,556,o),
(387,563,o),
(380,569,c),
(377,572,o),
(357,586,o),
(351,590,c),
(342,596,o),
(327,598,o),
(326,597,c),
(319,596,o),
(325,584,o),
(333,575,c),
(342,562,o),
(374,527,o),
(379,521,c),
(382,520,o),
(386,513,o),
(385,511,c),
(380,497,o),
(371,468,o),
(336,423,c),
(324,407,o),
(308,389,o),
(304,384,c),
(302,382,o),
(288,378,o),
(286,380,c),
(280,386,o),
(281,413,o),
(280,417,c),
(280,418,o),
(282,461,o),
(283,465,c),
(288,488,o),
(277,582,o),
(277,604,c),
(278,635,o),
(287,634,o),
(284,641,c),
(277,660,o),
(225,676,o),
(221,673,c),
(210,667,o),
(205,656,o),
(202,644,c),
(201,641,o),
(199,638,o),
(195,637,c),
(191,635,o),
(112,597,o),
(102,599,c),
(101,599,o),
(95,603,o),
(94,604,c),
(86,616,o),
(69,622,o),
(55,623,c),
(48,624,o),
(43,617,o),
(45,610,c),
(52,582,o),
(55,550,o),
(57,522,c),
(61,483,o),
(61,444,o),
(64,404,c),
(69,345,o),
(69,285,o),
(70,226,c),
(70,197,o),
(74,165,o),
(73,134,c),
(73,130,o),
(70,119,o),
(79,118,c),
(86,116,o),
(92,120,o),
(96,127,c),
(101,135,o),
(107,143,o),
(114,151,c),
(119,157,o),
(125,165,o),
(125,172,c),
(124,189,o),
(124,207,o),
(123,224,c),
(123,244,o),
(126,269,o),
(125,292,c)
);
},
{
closed = 1;
nodes = (
(636,134,o),
(631,163,o),
(627,172,c),
(626,173,o),
(615,206,o),
(612,213,c),
(599,236,o),
(591,258,o),
(587,278,c),
(585,285,o),
(591,290,o),
(597,292,c),
(612,296,o),
(696,304,o),
(712,303,c),
(732,301,o),
(714,273,o),
(709,264,c),
(703,254,o),
(645,142,o),
(645,141,c)
);
},
{
closed = 1;
nodes = (
(933,14,o),
(919,1,o),
(903,10,c),
(889,17,o),
(875,26,o),
(860,31,c),
(839,39,o),
(818,46,o),
(796,51,c),
(788,53,o),
(746,64,o),
(738,73,c),
(731,81,o),
(691,106,o),
(678,118,c),
(689,134,o),
(738,174,o),
(746,195,c),
(752,209,o),
(788,254,o),
(795,260,c),
(810,273,o),
(832,280,o),
(840,297,c),
(846,312,o),
(815,337,o),
(805,353,c),
(799,363,o),
(786,395,o),
(785,395,c),
(771,398,o),
(764,372,o),
(760,362,c),
(760,361,o),
(727,335,o),
(721,334,c),
(700,332,o),
(657,329,o),
(648,329,c),
(611,328,o),
(582,328,o),
(563,327,c),
(559,327,o),
(554,328,o),
(551,325,c),
(545,317,o),
(550,307,o),
(552,303,c),
(564,280,o),
(573,255,o),
(579,230,c),
(584,208,o),
(593,185,o),
(596,163,c),
(598,152,o),
(610,120,o),
(608,113,c),
(606,99,o),
(575,62,o),
(567,53,c),
(557,40,o),
(497,-15,o),
(487,-22,c),
(473,-33,o),
(458,-44,o),
(443,-54,c),
(438,-58,o),
(380,-85,o),
(392,-92,c),
(400,-97,o),
(433,-85,o),
(440,-82,c),
(467,-71,o),
(490,-56,o),
(514,-41,c),
(563,-12,o),
(637,48,o),
(648,59,c),
(663,43,o),
(683,29,o),
(691,24,c),
(700,19,o),
(706,11,o),
(713,5,c),
(733,-11,o),
(753,-27,o),
(773,-42,c),
(783,-50,o),
(793,-59,o),
(806,-58,c),
(830,-57,o),
(846,-57,o),
(862,-45,c),
(878,-33,o),
(895,-32,o),
(913,-24,c),
(928,-18,o),
(959,-11,o),
(959,-4,c),
(959,0,o),
(951,3,o),
(950,3,c)
);
},
{
closed = 1;
nodes = (
(418,33,o),
(438,-12,o),
(464,-4,c),
(469,-2,o),
(484,20,o),
(491,36,c),
(499,54,o),
(491,78,o),
(487,83,c),
(482,90,o),
(469,109,o),
(462,115,c),
(455,122,o),
(433,133,o),
(436,137,c),
(447,157,o),
(490,234,o),
(505,250,c),
(509,255,o),
(527,272,o),
(528,273,c),
(531,277,o),
(531,285,o),
(533,292,c),
(537,303,o),
(530,320,o),
(530,320,c),
(531,321,o),
(496,370,o),
(489,366,c),
(460,350,o),
(464,309,o),
(425,304,c),
(412,303,o),
(395,303,o),
(373,304,c),
(337,306,o),
(301,302,o),
(265,299,c),
(250,298,o),
(253,280,o),
(256,271,c),
(256,270,o),
(267,265,o),
(272,266,c),
(299,270,o),
(315,271,o),
(348,271,c),
(376,271,o),
(404,275,o),
(433,277,c),
(449,279,o),
(439,271,o),
(438,260,c),
(438,258,o),
(407,190,o),
(392,177,c),
(388,173,o),
(385,173,o),
(383,174,c),
(366,189,o),
(358,192,o),
(344,200,c),
(328,210,o),
(311,211,o),
(298,227,c),
(296,230,o),
(293,230,o),
(290,231,c),
(278,237,o),
(290,218,o),
(293,215,c),
(312,194,o),
(326,169,o),
(344,146,c),
(348,142,o),
(354,129,o),
(353,128,c),
(351,116,o),
(345,106,o),
(337,97,c),
(327,83,o),
(279,13,o),
(244,-13,c),
(219,-31,o),
(202,-41,o),
(179,-53,c),
(174,-55,o),
(146,-67,o),
(144,-72,c),
(142,-78,o),
(187,-70,o),
(196,-67,c),
(212,-62,o),
(225,-56,o),
(239,-48,c),
(271,-31,o),
(306,4,o),
(316,13,c),
(338,34,o),
(363,53,o),
(386,73,c),
(387,74,o),
(388,74,o),
(389,73,c),
(396,69,o),
(402,62,o),
(407,54,c)
);
}
);
width = 1000;
}
);
unicode = 21852;
},
{
glyphname = uni5617;
lastChange = "2023-08-03 03:10:59 +0000";
layers = (
{
layerId = m01;
shapes = (
{
closed = 1;
nodes = (
(114,437,o),
(120,454,o),
(136,462,c),
(147,467,o),
(204,508,o),
(205,517,c),
(208,531,o),
(210,550,o),
(210,573,c),
(212,610,o),
(252,593,o),
(274,594,c),
(287,595,o),
(342,594,o),
(352,595,c),
(371,598,o),
(515,601,o),
(545,599,c),
(553,599,o),
(581,599,o),
(597,598,c),
(609,598,o),
(730,601,o),
(799,603,c),
(802,603,o),
(808,597,o),
(807,594,c),
(806,587,o),
(799,541,o),
(800,540,c),
(813,530,o),
(888,547,o),
(889,548,c),
(893,553,o),
(920,549,o),
(926,548,c),
(937,546,o),
(964,537,o),
(966,555,c),
(969,575,o),
(947,594,o),
(932,600,c),
(928,601,o),
(924,604,o),
(921,607,c),
(911,615,o),
(897,620,o),
(890,630,c),
(875,648,o),
(863,668,o),
(837,653,c),
(833,651,o),
(831,649,o),
(829,646,c),
(828,642,o),
(824,630,o),
(816,630,c),
(783,627,o),
(641,624,o),
(640,625,c),
(635,634,o),
(726,684,o),
(741,689,c),
(754,693,o),
(761,702,o),
(762,716,c),
(764,732,o),
(746,735,o),
(735,740,c),
(734,740,o),
(717,759,o),
(707,765,c),
(706,765,o),
(690,733,o),
(690,733,c),
(690,732,o),
(657,690,o),
(656,690,c),
(656,690,o),
(610,628,o),
(610,627,c),
(605,612,o),
(577,638,o),
(571,643,c),
(561,651,o),
(571,705,o),
(568,720,c),
(565,732,o),
(589,733,o),
(594,749,c),
(601,774,o),
(573,772,o),
(561,784,c),
(554,789,o),
(550,796,o),
(543,800,c),
(526,810,o),
(507,818,o),
(486,813,c),
(483,812,o),
(471,805,o),
(471,803,c),
(472,782,o),
(484,766,o),
(484,746,c),
(485,708,o),
(481,664,o),
(481,624,c),
(481,623,o),
(399,623,o),
(393,627,c),
(389,629,o),
(418,644,o),
(416,654,c),
(412,682,o),
(378,674,o),
(371,689,c),
(366,700,o),
(360,710,o),
(351,718,c),
(344,726,o),
(320,743,o),
(319,742,c),
(316,738,o),
(315,731,o),
(317,725,c),
(324,702,o),
(335,688,o),
(333,665,c),
(333,649,o),
(341,639,o),
(349,625,c),
(349,624,o),
(253,623,o),
(234,625,c),
(212,628,o),
(217,671,o),
(216,671,c),
(203,677,o),
(177,687,o),
(172,662,c),
(168,639,o),
(160,615,o),
(153,592,c),
(149,579,o),
(139,565,o),
(134,556,c),
(120,529,o),
(105,503,o),
(87,480,c),
(79,468,o),
(78,459,o),
(84,448,c),
(87,445,o),
(90,443,o),
(94,442,c)
);
},
{
closed = 1;
nodes = (
(478,523,o),
(523,521,o),
(533,518,c),
(551,513,o),
(608,522,o),
(609,521,c),
(619,515,o),
(608,509,o),
(608,498,c),
(608,489,o),
(607,469,o),
(607,452,c),
(576,452,o),
(526,450,o),
(510,452,c),
(507,452,o),
(503,452,o),
(498,451,c),
(479,448,o),
(458,447,o),
(433,449,c),
(417,452,o),
(386,451,o),
(381,470,c),
(377,486,o),
(376,501,o),
(376,518,c),
(393,515,o),
(446,522,o),
(466,523,c)
);
},
{
closed = 1;
nodes = (
(893,345,o),
(892,346,o),
(878,340,c),
(862,335,o),
(846,326,o),
(833,315,c),
(810,295,o),
(401,298,o),
(393,304,c),
(384,308,o),
(366,302,o),
(369,311,c),
(375,323,o),
(446,360,o),
(475,361,c),
(482,358,o),
(537,359,o),
(573,359,c),
(688,364,l),
(706,366,o),
(717,370,o),
(736,372,c),
(749,373,o),
(760,370,o),
(773,366,c),
(775,365,o),
(777,366,o),
(777,369,c),
(777,386,o),
(773,402,o),
(764,417,c),
(750,439,o),
(696,398,o),
(683,390,c),
(681,389,o),
(680,388,o),
(679,387,c),
(574,382,l),
(546,383,o),
(499,383,o),
(473,382,c),
(454,393,o),
(409,402,o),
(408,402,c),
(395,412,o),
(406,419,o),
(409,423,c),
(417,431,o),
(448,431,o),
(461,430,c),
(472,429,o),
(493,428,o),
(524,427,c),
(527,427,o),
(529,429,o),
(532,429,c),
(542,428,o),
(580,429,o),
(607,429,c),
(607,425,o),
(607,423,o),
(608,423,c),
(627,426,o),
(639,420,o),
(661,418,c),
(672,416,o),
(700,429,o),
(699,431,c),
(694,438,o),
(696,491,o),
(694,502,c),
(694,504,o),
(722,548,o),
(722,549,c),
(714,568,o),
(651,586,o),
(650,585,c),
(636,576,o),
(628,545,o),
(627,545,c),
(614,548,o),
(369,545,o),
(365,546,c),
(351,551,o),
(330,583,o),
(317,558,c),
(308,538,o),
(308,520,o),
(318,503,c),
(319,502,o),
(319,502,o),
(319,501,c),
(320,497,o),
(321,496,o),
(320,492,c),
(317,471,o),
(314,450,o),
(312,429,c),
(311,418,o),
(313,411,o),
(322,405,c),
(337,396,o),
(357,385,o),
(346,363,c),
(339,351,o),
(332,338,o),
(326,325,c),
(323,321,o),
(321,317,o),
(318,315,c),
(315,311,o),
(307,305,o),
(305,300,c),
(303,294,o),
(202,286,o),
(196,286,c),
(182,288,o),
(116,288,o),
(96,288,c),
(86,288,o),
(76,284,o),
(64,286,c),
(51,288,o),
(39,291,o),
(26,294,c),
(16,297,o),
(14,272,o),
(13,265,c),
(13,254,o),
(25,256,o),
(35,253,c),
(58,246,o),
(406,268,o),
(412,268,c),
(426,268,o),
(562,273,o),
(586,271,c),
(612,269,o),
(770,278,o),
(773,279,c),
(783,279,o),
(827,285,o),
(843,287,c),
(873,289,o),
(909,291,o),
(954,290,c),
(964,290,o),
(969,294,o),
(970,301,c),
(971,320,o),
(914,323,o),
(902,334,c)
);
},
{
closed = 1;
nodes = (
(696,-60,o),
(691,-59,o),
(687,-59,c),
(644,-60,o),
(401,-54,o),
(356,-58,c),
(355,-51,o),
(359,-36,o),
(355,-26,c),
(355,-23,o),
(355,-15,o),
(356,-5,c),
(357,8,o),
(344,50,o),
(371,49,c),
(381,49,o),
(604,49,o),
(618,50,c),
(631,50,o),
(647,47,o),
(649,65,c),
(649,69,o),
(648,72,o),
(647,74,c),
(646,75,o),
(461,69,o),
(451,69,c),
(441,68,o),
(432,68,o),
(421,66,c),
(403,66,o),
(385,67,o),
(367,69,c),
(356,71,o),
(356,68,o),
(353,74,c),
(353,75,o),
(345,163,o),
(352,167,c),
(354,168,o),
(599,170,o),
(610,172,c),
(619,174,o),
(629,172,o),
(637,174,c),
(649,176,o),
(695,181,o),
(704,176,c),
(705,175,o),
(706,154,o),
(708,144,c),
(708,137,o),
(709,124,o),
(710,104,c),
(713,72,o),
(714,34,o),
(714,-11,c),
(714,-26,o),
(714,-65,o),
(703,-61,c)
);
},
{
closed = 1;
nodes = (
(755,238,o),
(733,228,o),
(722,215,c),
(716,208,o),
(714,208,o),
(711,200,c),
(708,196,o),
(709,194,o),
(703,194,c),
(688,194,o),
(616,192,o),
(605,192,c),
(602,192,o),
(506,193,o),
(462,190,c),
(445,189,o),
(362,187,o),
(349,187,c),
(344,195,o),
(348,198,o),
(347,207,c),
(347,208,o),
(339,214,o),
(338,214,c),
(320,211,o),
(305,218,o),
(286,218,c),
(283,218,o),
(280,215,o),
(280,212,c),
(281,196,o),
(284,182,o),
(284,168,c),
(284,129,o),
(284,93,o),
(288,53,c),
(293,-4,o),
(297,-61,o),
(289,-116,c),
(288,-123,o),
(289,-128,o),
(294,-133,c),
(306,-153,o),
(351,-129,o),
(350,-126,c),
(350,-126,o),
(351,-92,o),
(355,-87,c),
(380,-86,o),
(454,-78,o),
(487,-78,c),
(497,-78,o),
(679,-82,o),
(693,-82,c),
(693,-82,o),
(711,-81,o),
(712,-82,c),
(723,-110,o),
(728,-138,o),
(768,-126,c),
(786,-121,o),
(783,-77,o),
(788,-63,c),
(794,-37,o),
(797,-34,o),
(801,-2,c),
(805,31,o),
(798,99,o),
(794,132,c),
(792,148,o),
(796,151,o),
(803,158,c),
(823,174,o),
(805,192,o),
(800,206,c),
(800,207,o),
(779,220,o),
(770,227,c)
);
}
);
width = 1000;
}
);
unicode = 22039;
},
{
glyphname = uni571F;
lastChange = "2023-08-02 05:27:44 +0000";
layers = (
{
layerId = m01;
shapes = (
{
closed = 1;
nodes = (
(959,84,o),
(949,90,o),
(939,97,c),
(930,103,o),
(922,107,o),
(913,114,c),
(889,130,o),
(891,151,o),
(855,126,c),
(840,116,o),
(824,104,o),
(811,90,c),
(803,83,o),
(792,69,o),
(781,68,c),
(765,67,o),
(717,61,o),
(708,61,c),
(701,61,o),
(608,62,o),
(580,56,c),
(566,54,o),
(535,53,o),
(533,61,c),
(527,91,o),
(531,121,o),
(532,154,c),
(533,165,o),
(532,264,o),
(531,302,c),
(531,329,o),
(529,413,o),
(538,424,c),
(538,425,o),
(551,428,o),
(556,426,c),
(596,426,o),
(635,428,o),
(675,431,c),
(690,432,o),
(830,432,o),
(831,434,c),
(840,456,o),
(819,463,o),
(804,470,c),
(786,478,o),
(770,491,o),
(754,502,c),
(748,507,o),
(735,511,o),
(728,505,c),
(713,489,o),
(698,475,o),
(684,465,c),
(661,446,o),
(595,444,o),
(592,444,c),
(572,445,o),
(540,446,o),
(539,470,c),
(539,489,o),
(546,569,o),
(544,602,c),
(544,613,o),
(558,632,o),
(563,639,c),
(575,659,o),
(593,664,o),
(593,664,c),
(589,677,o),
(562,686,o),
(551,688,c),
(525,694,o),
(499,702,o),
(472,707,c),
(470,707,o),
(466,669,o),
(468,651,c),
(469,635,o),
(473,467,o),
(458,448,c),
(448,436,o),
(392,446,o),
(357,444,c),
(329,442,o),
(307,442,o),
(283,442,c),
(281,442,o),
(241,440,o),
(232,440,c),
(224,441,o),
(147,444,o),
(137,445,c),
(136,445,o),
(135,445,o),
(135,444,c),
(130,438,o),
(132,424,o),
(132,416,c),
(132,414,o),
(134,412,o),
(136,412,c),
(157,411,o),
(180,412,o),
(200,414,c),
(217,416,o),
(360,423,o),
(368,423,c),
(368,423,o),
(373,422,o),
(384,421,c),
(389,421,o),
(432,422,o),
(462,420,c),
(463,402,o),
(462,384,o),
(460,366,c),
(459,353,o),
(458,342,o),
(457,333,c),
(457,306,o),
(458,106,o),
(455,89,c),
(454,79,o),
(461,54,o),
(440,53,c),
(427,55,o),
(333,51,o),
(301,49,c),
(281,48,o),
(211,49,o),
(195,46,c),
(170,41,o),
(57,44,o),
(36,47,c),
(17,51,o),
(14,42,o),
(13,40,c),
(4,24,o),
(2,8,o),
(14,6,c),
(23,4,o),
(63,5,o),
(71,6,c),
(79,8,o),
(187,12,o),
(225,12,c),
(226,13,o),
(378,18,o),
(392,19,c),
(399,19,o),
(406,20,o),
(413,21,c),
(422,23,o),
(520,27,o),
(536,27,c),
(564,28,o),
(656,29,o),
(673,32,c),
(681,34,o),
(779,41,o),
(821,41,c),
(841,41,o),
(861,41,o),
(883,43,c),
(888,44,o),
(894,44,o),
(899,43,c),
(921,36,o),
(978,49,o),
(979,50,c),
(984,62,o),
(982,74,o),
(970,79,c)
);
}
);
width = 1000;
}
);
unicode = 22303;
},
{
glyphname = uni5728;
lastChange = "2023-08-02 06:09:59 +0000";
layers = (
{
layerId = m01;
shapes = (
{
closed = 1;
nodes = (
(556,2,o),
(387,-27,o),
(384,-18,c),
(384,-18,o),
(385,64,o),
(384,75,c),
(383,85,o),
(390,264,o),
(391,270,c),
(391,272,o),
(391,272,o),
(392,272,c),
(404,269,o),
(442,272,o),
(443,272,c),
(453,270,o),
(533,279,o),
(550,277,c),
(573,276,o),
(573,222,o),
(572,208,c),
(572,207,o),
(575,167,o),
(575,167,c),
(575,167,o),
(577,117,o),
(576,108,c),
(576,100,o),
(577,-8,o),
(576,-8,c)
);
},
{
closed = 1;
nodes = (
(961,12,o),
(954,14,o),
(949,15,c),
(939,20,o),
(939,41,o),
(930,41,c),
(910,41,o),
(897,34,o),
(881,24,c),
(876,21,o),
(871,15,o),
(866,10,c),
(857,-3,o),
(776,0,o),
(768,0,c),
(763,0,o),
(704,3,o),
(694,-2,c),
(684,0,o),
(658,-7,o),
(654,0,c),
(648,10,o),
(653,119,o),
(650,124,c),
(647,130,o),
(661,282,o),
(662,283,c),
(672,287,o),
(777,284,o),
(790,285,c),
(819,288,o),
(882,288,o),
(881,291,c),
(877,308,o),
(832,377,o),
(822,357,c),
(819,353,o),
(803,343,o),
(792,335,c),
(786,330,o),
(782,322,o),
(782,314,c),
(782,313,o),
(674,310,o),
(667,311,c),
(663,311,o),
(654,327,o),
(654,327,c),
(654,327,o),
(670,478,o),
(665,490,c),
(656,510,o),
(641,518,o),
(622,516,c),
(615,514,o),
(581,481,o),
(581,479,c),
(577,470,o),
(578,330,o),
(570,314,c),
(564,304,o),
(558,312,o),
(550,306,c),
(530,292,o),
(496,295,o),
(474,293,c),
(463,293,o),
(411,293,o),
(404,295,c),
(393,297,o),
(396,310,o),
(391,315,c),
(387,321,o),
(372,338,o),
(368,341,c),
(363,345,o),
(397,392,o),
(403,402,c),
(411,415,o),
(423,451,o),
(430,450,c),
(432,450,o),
(459,507,o),
(459,507,c),
(483,543,l),
(490,547,o),
(524,553,o),
(528,553,c),
(528,553,l),
(528,553,o),
(636,559,o),
(637,558,c),
(657,557,o),
(745,569,o),
(763,569,c),
(769,570,o),
(846,574,o),
(860,582,c),
(870,587,o),
(882,581,o),
(891,579,c),
(903,578,o),
(922,586,o),
(921,587,c),
(921,587,o),
(850,658,o),
(849,658,c),
(841,658,o),
(832,640,o),
(826,627,c),
(822,625,o),
(788,603,o),
(773,595,c),
(771,593,o),
(503,581,o),
(503,581,c),
(501,581,o),
(527,637,o),
(527,645,c),
(527,653,o),
(574,722,o),
(571,748,c),
(569,767,o),
(554,786,o),
(535,784,c),
(526,784,o),
(517,796,o),
(516,798,c),
(498,808,l),
(497,809,o),
(492,781,o),
(484,769,c),
(470,750,o),
(471,716,o),
(467,705,c),
(458,684,o),
(436,626,o),
(435,621,c),
(430,600,o),
(420,587,o),
(413,570,c),
(412,567,o),
(373,575,o),
(360,574,c),
(343,573,o),
(101,560,o),
(87,563,c),
(61,571,o),
(58,543,o),
(65,521,c),
(65,520,o),
(66,519,o),
(67,519,c),
(81,519,o),
(177,530,o),
(188,531,c),
(209,533,o),
(264,543,o),
(269,543,c),
(297,543,o),
(326,543,o),
(355,544,c),
(364,544,o),
(372,548,o),
(382,543,c),
(383,542,o),
(383,542,o),
(384,542,c),
(408,543,l),
(409,543,o),
(365,471,o),
(363,465,c),
(363,464,o),
(336,416,o),
(330,402,c),
(325,389,o),
(312,379,o),
(307,368,c),
(287,328,o),
(269,288,o),
(242,257,c),
(239,253,o),
(206,211,o),
(195,191,c),
(179,166,o),
(162,143,o),
(141,121,c),
(138,119,o),
(107,81,o),
(107,80,c),
(101,77,o),
(96,74,o),
(92,68,c),
(92,68,o),
(18,-2,o),
(18,-3,c),
(16,-12,o),
(0,-18,o),
(8,-20,c),
(27,-28,o),
(92,27,o),
(104,41,c),
(121,53,o),
(164,97,o),
(172,106,c),
(177,113,o),
(205,139,o),
(209,143,c),
(237,174,o),
(295,246,o),
(302,262,c),
(307,274,o),
(313,267,o),
(319,260,c),
(320,257,o),
(321,254,o),
(322,246,c),
(324,200,o),
(325,152,o),
(326,105,c),
(326,77,o),
(314,-54,o),
(310,-75,c),
(309,-86,o),
(312,-93,o),
(314,-102,c),
(316,-115,o),
(321,-123,o),
(332,-125,c),
(334,-126,o),
(351,-100,o),
(360,-91,c),
(371,-81,o),
(368,-82,o),
(378,-74,c),
(385,-67,o),
(386,-50,o),
(386,-50,c),
(404,-48,o),
(420,-45,o),
(438,-41,c),
(453,-36,o),
(571,-36,o),
(581,-33,c),
(594,-33,o),
(691,-32,o),
(694,-32,c),
(700,-34,o),
(709,-32,o),
(714,-32,c),
(729,-32,o),
(853,-30,o),
(857,-28,c),
(862,-28,o),
(867,-27,o),
(873,-25,c),
(874,-25,o),
(961,-22,o),
(962,-22,c),
(1007,-22,o),
(980,-9,o),
(965,8,c)
);
}
);
width = 1000;
}
);
unicode = 22312;
},
{
glyphname = uni577C;
lastChange = "2023-08-03 03:33:23 +0000";
layers = (
{
layerId = m01;
shapes = (
{
closed = 1;
nodes = (
(959,211,o),
(955,228,o),
(948,245,c),
(939,266,o),
(928,268,o),
(908,269,c),
(903,269,o),
(858,280,o),
(840,275,c),
(838,275,o),
(781,282,o),
(771,308,c),
(762,333,o),
(760,365,o),
(770,390,c),
(771,395,o),
(772,397,o),
(771,400,c),
(770,410,o),
(756,420,o),
(761,428,c),
(761,430,o),
(959,449,o),
(959,450,c),
(960,459,o),
(958,471,o),
(948,473,c),
(942,474,o),
(923,502,o),
(909,511,c),
(897,521,o),
(884,523,o),
(877,509,c),
(877,508,o),
(857,462,o),
(848,462,c),
(826,461,o),
(710,452,o),
(703,449,c),
(694,446,o),
(567,443,o),
(553,441,c),
(535,439,o),
(540,542,o),
(539,561,c),
(537,582,o),
(536,604,o),
(536,627,c),
(536,629,o),
(626,639,o),
(634,640,c),
(667,648,o),
(702,644,o),
(732,653,c),
(739,655,o),
(819,665,o),
(841,667,c),
(857,669,o),
(869,684,o),
(855,697,c),
(842,709,o),
(829,721,o),
(818,732,c),
(810,738,o),
(796,755,o),
(795,755,c),
(782,758,o),
(779,747,o),
(772,738,c),
(772,738,o),
(719,718,o),
(694,705,c),
(689,701,o),
(666,693,o),
(662,690,c),
(626,675,o),
(588,663,o),
(549,654,c),
(545,653,o),
(537,650,o),
(537,650,c),
(531,654,o),
(532,661,o),
(536,666,c),
(541,674,o),
(542,683,o),
(538,694,c),
(537,694,o),
(493,713,o),
(474,729,c),
(470,732,o),
(464,730,o),
(463,725,c),
(456,696,o),
(469,660,o),
(470,629,c),
(470,597,o),
(471,563,o),
(473,530,c),
(475,515,o),
(475,395,o),
(475,375,c),
(476,360,o),
(474,346,o),
(473,333,c),
(468,276,o),
(446,232,o),
(426,182,c),
(413,148,o),
(389,126,o),
(368,99,c),
(355,81,o),
(256,5,o),
(247,-4,c),
(246,-4,o),
(177,-37,o),
(152,-58,c),
(149,-60,o),
(123,-69,o),
(122,-77,c),
(122,-78,o),
(139,-78,o),
(148,-74,c),
(151,-70,o),
(187,-57,o),
(202,-48,c),
(202,-48,o),
(214,-41,o),
(218,-39,c),
(223,-35,o),
(271,-11,o),
(283,-7,c),
(296,2,o),
(342,30,o),
(346,34,c),
(355,49,o),
(407,89,o),
(418,105,c),
(423,114,o),
(446,144,o),
(448,146,c),
(467,171,o),
(505,237,o),
(507,243,c),
(523,279,o),
(532,326,o),
(533,330,c),
(536,353,o),
(539,383,o),
(541,406,c),
(542,414,o),
(563,410,o),
(570,413,c),
(576,416,o),
(602,418,o),
(609,418,c),
(618,416,o),
(686,422,o),
(686,421,c),
(686,406,o),
(687,390,o),
(690,376,c),
(692,361,o),
(689,343,o),
(687,330,c),
(685,303,o),
(633,311,o),
(628,311,c),
(623,311,o),
(609,309,o),
(609,308,c),
(607,306,o),
(688,270,o),
(688,270,c),
(690,270,o),
(694,256,o),
(693,249,c),
(692,224,o),
(692,202,o),
(693,177,c),
(693,175,o),
(693,167,o),
(694,150,c),
(696,124,o),
(694,-16,o),
(706,-34,c),
(709,-40,o),
(733,-67,o),
(739,-53,c),
(745,-41,o),
(749,-29,o),
(756,-16,c),
(770,15,o),
(768,221,o),
(767,222,c),
(767,222,o),
(774,247,o),
(780,240,c),
(803,224,o),
(826,213,o),
(852,205,c),
(859,202,o),
(900,175,o),
(913,172,c),
(927,169,o),
(955,167,o),
(956,167,c),
(959,181,o),
(961,189,o),
(961,194,c)
);
},
{
closed = 1;
nodes = (
(194,142,o),
(243,172,o),
(284,212,c),
(295,221,o),
(330,236,o),
(331,237,c),
(353,254,o),
(373,269,o),
(394,282,c),
(396,283,o),
(398,286,o),
(400,290,c),
(401,291,o),
(394,303,o),
(389,307,c),
(388,307,o),
(319,263,o),
(316,279,c),
(315,286,o),
(313,302,o),
(312,327,c),
(312,329,o),
(307,418,o),
(307,418,c),
(307,420,o),
(306,461,o),
(307,461,c),
(325,463,o),
(339,472,o),
(354,476,c),
(359,478,o),
(381,483,o),
(384,483,c),
(408,487,o),
(413,482,o),
(434,494,c),
(452,504,o),
(444,530,o),
(434,545,c),
(428,554,o),
(421,557,o),
(411,555,c),
(410,555,o),
(403,546,o),
(401,542,c),
(395,532,o),
(394,517,o),
(382,514,c),
(362,507,o),
(309,498,o),
(309,500,c),
(308,519,o),
(309,533,o),
(309,554,c),
(309,571,o),
(312,589,o),
(312,607,c),
(311,631,o),
(315,647,o),
(323,669,c),
(332,696,o),
(275,711,o),
(271,713,c),
(260,723,o),
(249,724,o),
(236,724,c),
(234,725,o),
(244,590,o),
(243,580,c),
(242,577,o),
(242,496,o),
(242,483,c),
(242,480,o),
(41,470,o),
(40,469,c),
(37,461,o),
(41,456,o),
(44,447,c),
(50,428,o),
(39,431,o),
(50,428,c),
(60,426,o),
(91,430,o),
(101,434,c),
(111,437,o),
(185,446,o),
(212,449,c),
(220,450,o),
(236,448,o),
(236,447,c),
(243,435,o),
(250,266,o),
(247,247,c),
(246,242,o),
(191,220,o),
(183,216,c),
(153,200,o),
(49,168,o),
(41,170,c),
(28,172,o),
(30,158,o),
(39,153,c),
(60,142,o),
(79,133,o),
(100,124,c),
(101,124,o),
(102,123,o),
(102,123,c),
(120,97,l),
(121,95,o),
(123,95,o),
(124,96,c),
(131,102,o),
(137,108,o),
(144,112,c)
);
}
);
width = 1000;
}
);
unicode = 22396;
},
{
glyphname = uni5927;
lastChange = "2023-08-03 03:33:45 +0000";
layers = (
{
layerId = m01;
shapes = (
{
closed = 1;
nodes = (
(963,53,o),
(926,57,o),
(902,69,c),
(876,81,o),
(807,114,o),
(800,119,c),
(759,148,o),
(715,176,o),
(677,212,c),
(658,232,o),
(647,239,o),
(631,257,c),
(621,267,o),
(606,293,o),
(601,306,c),
(589,332,o),
(574,359,o),
(572,390,c),
(572,403,o),
(568,412,o),
(567,426,c),
(567,427,o),
(646,432,o),
(657,434,c),
(676,439,o),
(816,444,o),
(858,448,c),
(862,449,o),
(890,448,o),
(890,457,c),
(890,470,o),
(885,479,o),
(875,488,c),
(860,498,o),
(847,509,o),
(834,522,c),
(826,530,o),
(816,523,o),
(808,519,c),
(795,512,o),
(799,492,o),
(785,485,c),
(782,481,o),
(780,478,o),
(774,476,c),
(772,476,o),
(546,460,o),
(542,461,c),
(523,464,o),
(526,475,o),
(526,519,c),
(526,551,o),
(538,583,o),
(544,614,c),
(544,619,o),
(559,650,o),
(562,657,c),
(566,666,o),
(568,686,o),
(557,691,c),
(528,710,o),
(499,732,o),
(467,736,c),
(463,736,o),
(458,651,o),
(461,610,c),
(461,596,o),
(457,499,o),
(454,489,c),
(452,478,o),
(452,454,o),
(451,454,c),
(438,450,o),
(335,450,o),
(335,450,c),
(334,450,o),
(81,439,o),
(62,441,c),
(62,441,o),
(61,441,o),
(61,441,c),
(62,417,o),
(55,411,o),
(75,402,c),
(85,398,o),
(199,409,o),
(223,409,c),
(263,410,o),
(380,415,o),
(405,418,c),
(426,420,o),
(443,413,o),
(448,391,c),
(449,384,o),
(444,357,o),
(443,341,c),
(442,323,o),
(443,309,o),
(438,293,c),
(425,254,o),
(407,218,o),
(395,184,c),
(388,161,o),
(362,135,o),
(346,112,c),
(326,84,o),
(260,30,o),
(251,24,c),
(224,7,o),
(139,-45,o),
(123,-50,c),
(99,-62,o),
(4,-97,o),
(-10,-110,c),
(-24,-121,o),
(183,-49,o),
(196,-42,c),
(219,-27,o),
(244,-11,o),
(268,2,c),
(303,27,o),
(336,56,o),
(367,84,c),
(413,120,o),
(449,168,o),
(474,221,c),
(478,231,o),
(495,252,o),
(496,255,c),
(500,271,o),
(512,314,o),
(512,319,c),
(512,337,o),
(516,388,o),
(516,409,c),
(516,417,o),
(525,415,o),
(531,414,c),
(541,412,o),
(552,385,o),
(553,379,c),
(556,365,o),
(559,358,o),
(564,312,c),
(564,307,o),
(564,300,o),
(567,295,c),
(580,262,o),
(589,224,o),
(606,196,c),
(630,151,o),
(661,125,o),
(699,92,c),
(707,87,o),
(734,63,o),
(742,59,c),
(764,50,o),
(805,15,o),
(811,12,c),
(819,7,o),
(826,1,o),
(832,-3,c),
(832,-4,o),
(834,-4,o),
(834,-3,c),
(840,1,o),
(844,7,o),
(853,11,c),
(864,17,o),
(876,24,o),
(887,29,c),
(905,39,o),
(924,37,o),
(941,37,c),
(951,37,o),
(969,39,o),
(963,52,c)
);
}
);
width = 1000;
}
);
unicode = 22823;
},
{
glyphname = uni5B50;
lastChange = "2023-08-01 14:38:01 +0000";
layers = (
{
layerId = m01;
shapes = (
{
closed = 1;
nodes = (
(961,422,o),
(940,443,o),
(933,446,c),
(922,451,o),
(915,454,o),
(911,457,c),
(900,467,o),
(889,476,o),
(876,469,c),
(866,464,o),
(859,458,o),
(852,448,c),
(843,434,o),
(816,415,o),
(815,414,c),
(807,409,o),
(785,392,o),
(782,387,c),
(763,386,o),
(697,382,o),
(696,382,c),
(684,383,o),
(631,383,o),
(617,384,c),
(611,384,o),
(581,379,o),
(581,387,c),
(580,390,o),
(578,433,o),
(576,447,c),
(574,457,o),
(578,519,o),
(579,523,c),
(583,532,o),
(609,559,o),
(609,559,c),
(610,560,o),
(623,570,o),
(630,574,c),
(635,577,o),
(672,609,o),
(682,613,c),
(691,618,o),
(790,670,o),
(804,692,c),
(813,704,o),
(818,720,o),
(808,733,c),
(805,739,o),
(796,741,o),
(791,745,c),
(780,754,o),
(770,762,o),
(759,771,c),
(755,774,o),
(733,792,o),
(723,795,c),
(717,797,o),
(713,800,o),
(706,799,c),
(705,799,o),
(703,789,o),
(703,789,c),
(703,788,o),
(699,778,o),
(697,775,c),
(694,768,o),
(691,762,o),
(688,756,c),
(685,748,o),
(682,742,o),
(679,737,c),
(671,725,o),
(664,714,o),
(656,703,c),
(644,687,o),
(641,673,o),
(618,671,c),
(606,671,o),
(583,671,o),
(578,670,c),
(577,670,o),
(472,666,o),
(469,665,c),
(468,665,o),
(395,662,o),
(383,662,c),
(368,663,o),
(281,662,o),
(275,662,c),
(244,661,o),
(178,663,o),
(178,661,c),
(175,648,o),
(176,635,o),
(181,623,c),
(185,616,o),
(191,617,o),
(198,617,c),
(200,617,o),
(239,624,o),
(258,627,c),
(263,628,o),
(440,634,o),
(440,634,c),
(450,638,o),
(482,635,o),
(489,635,c),
(489,635,o),
(501,637,o),
(508,637,c),
(519,639,o),
(529,639,o),
(541,640,c),
(550,641,o),
(560,640,o),
(569,637,c),
(581,619,o),
(567,597,o),
(554,585,c),
(544,576,o),
(543,563,o),
(530,557,c),
(525,553,o),
(516,553,o),
(509,548,c),
(501,542,o),
(496,539,o),
(491,533,c),
(484,526,o),
(484,512,o),
(485,502,c),
(487,480,o),
(489,459,o),
(490,438,c),
(491,427,o),
(496,395,o),
(488,387,c),
(481,379,o),
(392,382,o),
(373,382,c),
(372,382,o),
(259,385,o),
(244,385,c),
(228,385,o),
(197,383,o),
(174,384,c),
(157,384,o),
(79,384,o),
(74,384,c),
(67,385,o),
(60,386,o),
(52,386,c),
(52,386,o),
(39,369,o),
(39,359,c),
(42,350,o),
(50,328,o),
(61,327,c),
(66,327,o),
(194,341,o),
(203,341,c),
(232,342,o),
(486,348,o),
(486,348,c),
(493,347,o),
(496,345,o),
(496,343,c),
(498,336,o),
(497,322,o),
(499,309,c),
(499,302,o),
(501,263,o),
(501,251,c),
(501,236,o),
(499,220,o),
(499,205,c),
(500,184,o),
(491,117,o),
(489,111,c),
(487,105,o),
(486,99,o),
(485,93,c),
(484,85,o),
(475,42,o),
(457,33,c),
(447,28,o),
(438,24,o),
(430,22,c),
(410,17,o),
(390,9,o),
(371,2,c),
(358,-2,o),
(362,-16,o),
(371,-21,c),
(382,-26,o),
(401,-32,o),
(407,-43,c),
(420,-65,o),
(433,-85,o),
(441,-112,c),
(442,-116,o),
(445,-125,o),
(452,-123,c),
(473,-114,o),
(500,-108,o),
(515,-90,c),
(523,-80,o),
(530,-68,o),
(542,-61,c),
(548,-57,o),
(577,6,o),
(579,20,c),
(582,43,o),
(587,233,o),
(584,245,c),
(577,268,o),
(581,338,o),
(581,338,c),
(579,347,o),
(597,355,o),
(608,356,c),
(618,357,o),
(670,355,o),
(679,354,c),
(683,353,o),
(795,358,o),
(809,356,c),
(812,356,o),
(881,359,o),
(885,356,c),
(894,356,l),
(914,359,o),
(934,357,o),
(953,356,c),
(954,356,o),
(968,389,o),
(970,397,c),
(973,405,o),
(974,411,o),
(967,417,c)
);
}
);
width = 1000;
}
);
unicode = 23376;
},
{
glyphname = uni5B58;
lastChange = "2023-08-04 02:06:15 +0000";
layers = (
{
layerId = m01;
shapes = (
{
closed = 1;
nodes = (
(944,290,o),
(931,304,o),
(917,319,c),
(910,326,o),
(903,326,o),
(897,318,c),
(886,306,o),
(878,292,o),
(870,279,c),
(863,266,o),
(856,261,o),
(842,261,c),
(813,261,o),
(679,261,o),
(667,263,c),
(647,267,o),
(662,349,o),
(660,351,c),
(659,352,o),
(622,355,o),
(632,367,c),
(632,368,o),
(706,414,o),
(712,418,c),
(723,428,o),
(737,434,o),
(750,439,c),
(761,442,o),
(773,445,o),
(781,451,c),
(794,463,o),
(812,489,o),
(796,505,c),
(790,511,o),
(781,512,o),
(777,516,c),
(763,530,o),
(732,555,o),
(731,555,c),
(722,553,o),
(705,516,o),
(701,507,c),
(697,497,o),
(690,493,o),
(677,493,c),
(670,491,o),
(603,485,o),
(562,483,c),
(546,482,o),
(529,481,o),
(513,480,c),
(487,478,o),
(409,480,o),
(398,477,c),
(387,474,o),
(387,461,o),
(391,453,c),
(399,439,o),
(413,436,o),
(429,439,c),
(460,445,o),
(594,461,o),
(630,467,c),
(641,470,o),
(664,475,o),
(667,467,c),
(672,459,o),
(654,428,o),
(649,421,c),
(640,406,o),
(610,381,o),
(609,382,c),
(600,387,o),
(591,391,o),
(582,396,c),
(558,406,o),
(573,356,o),
(575,349,c),
(577,337,o),
(585,293,o),
(585,282,c),
(584,265,o),
(567,263,o),
(554,261,c),
(526,257,o),
(406,258,o),
(396,258,c),
(375,259,o),
(353,266,o),
(330,259,c),
(325,258,o),
(322,254,o),
(321,249,c),
(320,247,o),
(315,281,o),
(317,293,c),
(317,298,o),
(316,318,o),
(314,325,c),
(310,336,o),
(313,356,o),
(316,366,c),
(318,374,o),
(393,528,o),
(396,535,c),
(396,536,o),
(430,617,o),
(444,614,c),
(458,612,o),
(525,614,o),
(541,614,c),
(560,613,o),
(748,618,o),
(765,619,c),
(811,621,o),
(900,621,o),
(905,622,c),
(907,624,o),
(926,632,o),
(926,644,c),
(925,644,o),
(915,659,o),
(913,660,c),
(904,668,o),
(894,678,o),
(882,691,c),
(868,704,o),
(850,704,o),
(839,689,c),
(830,675,o),
(820,663,o),
(807,654,c),
(803,650,o),
(794,641,o),
(766,640,c),
(757,640,o),
(492,640,o),
(492,638,c),
(480,635,o),
(450,640,o),
(469,658,c),
(472,660,o),
(524,692,o),
(529,701,c),
(535,709,o),
(525,723,o),
(518,730,c),
(502,747,o),
(485,765,o),
(468,782,c),
(468,782,o),
(458,768,o),
(450,758,c),
(436,740,o),
(403,681,o),
(398,669,c),
(393,653,o),
(364,632,o),
(356,632,c),
(342,632,o),
(329,630,o),
(315,632,c),
(289,634,o),
(132,628,o),
(117,626,c),
(108,625,o),
(103,627,o),
(94,630,c),
(75,637,o),
(88,602,o),
(89,595,c),
(91,594,o),
(150,599,o),
(175,596,c),
(185,595,o),
(284,602,o),
(322,606,c),
(332,608,o),
(354,606,o),
(354,604,c),
(353,595,o),
(350,587,o),
(345,580,c),
(340,575,o),
(320,538,o),
(318,536,c),
(301,513,o),
(288,487,o),
(273,462,c),
(248,421,o),
(212,374,o),
(187,343,c),
(177,331,o),
(162,317,o),
(152,301,c),
(137,278,o),
(68,197,o),
(61,188,c),
(57,184,o),
(21,141,o),
(28,138,c),
(29,137,o),
(39,151,o),
(48,154,c),
(59,159,o),
(68,164,o),
(76,171,c),
(108,196,o),
(148,228,o),
(179,258,c),
(200,277,o),
(212,294,o),
(230,302,c),
(249,311,o),
(258,279,o),
(259,267,c),
(260,251,o),
(260,236,o),
(259,221,c),
(258,212,o),
(261,163,o),
(263,148,c),
(264,128,o),
(252,-31,o),
(250,-59,c),
(249,-72,o),
(250,-84,o),
(252,-97,c),
(258,-124,o),
(291,-107,o),
(293,-85,c),
(293,-81,o),
(318,-14,o),
(320,-1,c),
(325,50,o),
(324,113,o),
(320,169,c),
(320,179,o),
(320,234,o),
(329,228,c),
(345,226,o),
(360,226,o),
(374,229,c),
(385,230,o),
(573,234,o),
(577,227,c),
(592,205,o),
(586,184,o),
(585,159,c),
(584,152,o),
(581,98,o),
(581,81,c),
(581,65,o),
(582,48,o),
(583,31,c),
(583,25,o),
(579,22,o),
(574,21,c),
(542,16,o),
(477,16,o),
(476,7,c),
(476,-9,o),
(512,-6,o),
(524,-19,c),
(540,-36,o),
(550,-51,o),
(553,-72,c),
(557,-97,o),
(578,-90,o),
(593,-81,c),
(610,-68,o),
(624,-58,o),
(633,-50,c),
(660,-23,o),
(667,14,o),
(670,51,c),
(671,100,o),
(666,212,o),
(665,224,c),
(664,230,o),
(673,237,o),
(677,237,c),
(700,236,o),
(855,238,o),
(866,238,c),
(899,238,o),
(925,236,o),
(954,232,c),
(958,230,o),
(966,233,o),
(966,234,c),
(970,249,o),
(967,263,o),
(957,275,c)
);
}
);
width = 1000;
}
);
unicode = 23384;
},
